<svg width="187" height="181" viewBox="0 0 187 181" fill="none" xmlns="http://www.w3.org/2000/svg">
<path d="M45.023 129.184C46.1218 128.893 54.543 125.286 61.2029 124.318C62.6972 124.176 64.2037 124.234 65.6828 124.49C74.7827 125.757 90.7696 131.122 93.8179 130.265C97.4667 129.214 123.97 116.79 128.897 116.927C129.853 117.019 130.782 117.291 131.637 117.729C137.816 120.516 148.439 129.693 148.439 129.693C148.492 124.501 162.507 100.62 162.507 100.62C162.507 100.62 160.689 99.9537 158.007 98.8632C152.161 96.5041 142.212 92.1531 138.004 88.3537C136.661 87.043 135.415 85.6364 134.276 84.1452C125.913 73.7677 109.996 50.1027 105.603 44.3236C105.467 44.1777 105.35 44.0537 105.248 43.9443C105.145 43.8349 104.995 43.6745 104.892 43.5651C104.868 43.5463 104.848 43.5242 104.83 43.4994C101.299 39.3255 83.0431 46.9477 80.234 47.1833C77.4249 47.4188 75.0445 48.1844 73.4765 48.3253C72.1998 48.4259 63.1934 52.8564 60.4579 54.106L57.4211 53.4994C52.636 54.2447 46.0713 60.8545 46.0713 60.8545C46.0713 60.8545 38.5964 57.6651 37.8227 57.7465C37.0489 57.8278 30.7873 62.042 27.0656 63.3802C23.8071 64.4185 20.4944 65.2784 17.1423 65.9561C15.1231 68.7001 17.8555 73.5135 17.8555 73.5135C23.4369 77.5054 35.1931 78.0091 36.7272 76.9404C38.1431 75.6998 39.4106 74.2993 40.5042 72.767C41.0433 73.1662 41.5677 73.5792 42.1131 73.9999C53.1536 82.7156 65.4987 97.3097 71.1598 104.339C73.1886 106.824 74.3772 108.369 74.3772 108.369C74.3772 108.369 69.1486 111.696 65.3727 111.413C61.5968 111.129 55.7883 107.377 52.9059 108.134C43.7317 110.515 42.8758 112.058 39.6247 117.26C38.508 118.993 37.9844 120.32 38.1127 120.954C38.7672 123.493 43.9383 129.474 45.023 129.184Z" fill="url(#paint0_linear_618_2418)"/>
<path d="M17.9199 73.4943C23.5014 77.4863 35.2576 77.9899 36.7916 76.9212C38.2076 75.6807 39.4751 74.2802 40.5687 72.7478C38.8054 71.8091 37.2035 70.5947 35.8235 69.1505C36.0575 70.4286 36.5401 71.6482 37.2438 72.7404L30.9245 75.6651C26.4757 76.0561 22.0005 75.3091 17.9199 73.4943Z" fill="url(#paint1_linear_618_2418)"/>
<path d="M74.4753 108.4L79.0423 112.48L65.4981 111.473C65.4981 111.473 72.2557 110.551 74.4753 108.4Z" fill="url(#paint2_linear_618_2418)"/>
<path style="mix-blend-mode:multiply" opacity="0.6" d="M104.964 43.5107C105.073 43.646 105.192 43.7728 105.32 43.89C105.19 43.7514 105.067 43.6201 104.964 43.5107Z" fill="url(#paint3_linear_618_2418)"/>
<path style="mix-blend-mode:multiply" opacity="0.6" d="M39.7228 117.291C40.3501 116.703 46.2917 112.761 52.7826 114.2C59.2736 115.639 65.4184 124.134 65.6829 124.489C74.7828 125.757 90.7697 131.122 93.818 130.265C97.4668 129.214 123.97 116.79 128.897 116.927C129.853 117.019 130.783 117.291 131.637 117.729L158.007 98.8631C152.161 96.504 142.212 92.153 138.004 88.3536C136.661 87.0429 135.415 85.6363 134.276 84.1451C127.323 91.1599 102.769 106.582 95.4042 107.676C86.7249 108.962 55.0944 79.113 55.0944 79.113C55.0944 79.113 37.9976 71.5122 33.5697 67.5077C33.22 65.6246 33.4465 63.6798 34.2195 61.9275C34.9925 60.1751 36.2761 58.6966 37.9025 57.6852C37.1151 57.752 30.8672 61.9808 27.1455 63.319C23.887 64.3573 20.5743 65.2172 17.2222 65.8949C15.203 68.6389 17.9353 73.4523 17.9353 73.4523C23.5168 77.4442 35.273 77.9479 36.807 76.8792C38.223 75.6386 39.4905 74.2381 40.5841 72.7057C55.8484 84.0682 74.4908 108.358 74.4908 108.358C74.4908 108.358 69.2622 111.686 65.4864 111.402L80.5211 112.697C80.129 112.79 86.3496 116.265 80.1135 116.808C73.6427 117.394 65.4782 111.437 65.4782 111.437C61.6881 111.153 55.8938 107.402 53.0114 108.159C43.8298 110.546 42.9593 112.103 39.7228 117.291Z" fill="url(#paint4_linear_618_2418)"/>
<path style="mix-blend-mode:multiply" opacity="0.6" d="M95.4582 54.059L92.8465 50.5583C92.8465 50.5583 91.284 47.4308 90.8152 46.8286C90.3463 46.2264 86.4131 47.9823 86.4131 47.9823L80.2926 47.1285L86.6683 47.0849C86.6683 47.0849 91.7131 45.7395 92.518 46.0129C93.3228 46.2863 93.4058 50.1022 93.4058 50.1022L95.4582 54.059Z" fill="url(#paint5_linear_618_2418)"/>
<path style="mix-blend-mode:multiply" opacity="0.6" d="M84.2993 62.9626L80.3065 59.5097C79.8145 58.3455 79.2231 57.2259 78.5388 56.1633C77.8985 55.3929 72.4327 56.4065 72.4327 56.4065C68.5419 55.3704 64.5909 54.5753 60.6022 54.0257C65.5906 53.8197 70.5869 54.148 75.5055 55.005C75.5055 55.005 80.2063 54.4622 80.734 54.9955C81.2617 55.5289 81.1558 59.0558 81.1558 59.0558L84.2993 62.9626Z" fill="url(#paint6_linear_618_2418)"/>
<path style="mix-blend-mode:multiply" opacity="0.6" d="M46.1511 60.7935C46.1511 60.7935 56.1424 65.5986 58.4994 66.2259C60.8564 66.8532 64.1727 65.5798 66.1327 66.4561C68.0926 67.3325 68.8374 70.1437 68.8374 70.1437L73.3697 73.9818C72.0594 72.6111 70.8208 71.1735 69.6589 69.6748C69.2242 68.8897 68.5151 66.5112 67.5199 65.3332C66.5247 64.1553 62.1428 65.7837 59.017 64.8629C55.8912 63.9422 47.0355 60.1285 47.0355 60.1285L46.1511 60.7935Z" fill="url(#paint7_linear_618_2418)"/>
<path d="M72.3756 56.4189C70.3534 58.9701 67.8475 61.0969 65.0015 62.6774C60.4885 65.0869 47.0013 60.092 47.0013 60.092C47.0013 60.092 52.3197 54.6237 57.5009 53.4383L72.3756 56.4189Z" fill="url(#paint8_linear_618_2418)"/>
<path d="M86.4622 47.9911C86.4622 47.9911 85.9353 50.7475 80.7019 52.9005C75.4684 55.0534 60.5651 54.074 60.5651 54.074C60.5651 54.074 68.1599 49.5417 73.5764 48.3002C73.549 48.271 82.7153 47.0222 86.4622 47.9911Z" fill="url(#paint9_linear_618_2418)"/>
<path d="M100.555 42.0254C96.8965 42.9863 93.3752 44.4093 90.0763 46.2602L86.7047 47.0507L81.1123 46.9354C81.1123 46.9354 92.1805 42.4082 100.555 42.0254Z" fill="url(#paint10_linear_618_2418)"/>
<path opacity="0.5" d="M58.4995 66.2259C56.5617 69.0694 53.7485 71.2026 50.4875 72.3013C44.8998 74.2519 33.5697 67.5078 33.5697 67.5078C33.5697 67.5078 31.7584 62.6532 37.9026 57.6853L58.4995 66.2259Z" fill="url(#paint11_linear_618_2418)"/>
<path style="mix-blend-mode:multiply" opacity="0.6" d="M42.1838 74.0023C53.2243 82.718 65.5694 97.3121 71.2305 104.342L79.0696 112.509L90.2023 114.146C90.2023 114.146 60.0853 81.4378 55.1357 79.1428C50.1862 76.8478 42.1838 74.0023 42.1838 74.0023Z" fill="url(#paint12_linear_618_2418)"/>
<path d="M47.0014 60.0918L58.4995 66.2258L46.1512 60.7933L47.0014 60.0918Z" fill="url(#paint13_linear_618_2418)"/>
<path d="M60.5377 54.0448L74.7799 54.904L72.3755 56.4188L60.5377 54.0448Z" fill="url(#paint14_linear_618_2418)"/>
<path style="mix-blend-mode:multiply" opacity="0.76" d="M122.963 118.421C122.963 118.421 126.726 102.085 140.127 93.4093C140.127 93.4093 126.7 106.223 127.995 117.018L122.963 118.421Z" fill="url(#paint15_linear_618_2418)"/>
<path style="mix-blend-mode:multiply" opacity="0.2" fill-rule="evenodd" clip-rule="evenodd" d="M93.2645 47.657C93.2645 47.657 122.301 85.8347 120.937 86.4561C119.573 87.0774 92.3075 49.487 92.3075 49.487L93.2645 47.657Z" fill="url(#paint16_linear_618_2418)"/>
<path style="mix-blend-mode:multiply" opacity="0.2" fill-rule="evenodd" clip-rule="evenodd" d="M81.1447 58.2984C81.1447 58.2984 111.632 90.7143 111.201 91.8041C110.77 92.894 80.3197 59.5384 80.3197 59.5384L81.1447 58.2984Z" fill="url(#paint17_linear_618_2418)"/>
<path style="mix-blend-mode:multiply" opacity="0.2" fill-rule="evenodd" clip-rule="evenodd" d="M69.0769 68.411C69.0769 68.411 105.054 95.5126 105.009 96.9403C104.963 98.3679 68.8466 70.0803 68.8466 70.0803L69.0769 68.411Z" fill="url(#paint18_linear_618_2418)"/>
<path d="M172.199 111.408C171.543 114.448 170.367 117.342 168.723 119.963C164.73 126.564 158.603 131.359 155.209 131.134C151.003 130.88 133.977 128.91 130.032 128.088C129.748 128.05 129.472 127.964 129.215 127.835C125.275 123.057 119.018 116.585 120.709 105.658C122.501 94.1321 130.131 87.9556 132.272 85.9382C134.413 83.9209 162.119 81.2525 165.235 83.0717C168.35 84.8909 174.318 100.927 172.199 111.408Z" fill="url(#paint19_linear_618_2418)"/>
<path d="M166.658 91.8011C168.342 101.333 170.011 111.23 167.875 120.768C163.684 127.538 157.362 132.521 153.919 132.363C149.652 132.191 132.396 130.544 128.405 129.791C123.801 124.959 121.047 118.649 120.612 111.934C127.743 113.706 135.703 114.106 143.098 113.975C145.353 104.761 149.911 94.3331 157.264 87.7201C158.804 86.3329 160.817 85.0694 162.791 85.5562C165.346 86.1789 166.193 89.2457 166.658 91.8011Z" fill="url(#paint20_linear_618_2418)"/>
<defs>
<linearGradient id="paint0_linear_618_2418" x1="116.847" y1="127.804" x2="58.0858" y2="43.6424" gradientUnits="userSpaceOnUse">
<stop stop-color="#202020"/>
<stop offset="0.405" stop-color="#5B5B5B"/>
<stop offset="1" stop-color="#5B5B5B"/>
</linearGradient>
<linearGradient id="paint1_linear_618_2418" x1="32.5701" y1="79.2645" x2="26.7988" y2="68.6865" gradientUnits="userSpaceOnUse">
<stop stop-color="#484848"/>
<stop offset="1" stop-color="#424242"/>
</linearGradient>
<linearGradient id="paint2_linear_618_2418" x1="74.0264" y1="115.244" x2="70.4774" y2="108.74" gradientUnits="userSpaceOnUse">
<stop stop-color="#202020"/>
<stop offset="1" stop-color="#4B4B4B"/>
</linearGradient>
<linearGradient id="paint3_linear_618_2418" x1="105.148" y1="43.7331" x2="105.078" y2="43.7714" gradientUnits="userSpaceOnUse">
<stop offset="0.01" stop-color="#C27CB6"/>
<stop offset="1" stop-color="#FFEADB"/>
</linearGradient>
<linearGradient id="paint4_linear_618_2418" x1="106.194" y1="131.652" x2="58.1561" y2="43.604" gradientUnits="userSpaceOnUse">
<stop offset="0.01" stop-color="#C3C8C3"/>
<stop offset="1" stop-color="#EBFFDB"/>
</linearGradient>
<linearGradient id="paint5_linear_618_2418" x1="93.5462" y1="47.5229" x2="83.5037" y2="53.002" gradientUnits="userSpaceOnUse">
<stop offset="0.01" stop-color="#BABABA"/>
<stop offset="1" stop-color="white"/>
</linearGradient>
<linearGradient id="paint6_linear_618_2418" x1="80.246" y1="54.2554" x2="65.1207" y2="62.5076" gradientUnits="userSpaceOnUse">
<stop offset="0.01" stop-color="#B7B7B7"/>
<stop offset="1" stop-color="white"/>
</linearGradient>
<linearGradient id="paint7_linear_618_2418" x1="67.3927" y1="63.102" x2="51.9778" y2="71.5123" gradientUnits="userSpaceOnUse">
<stop offset="0.01" stop-color="#6B6B6B"/>
<stop offset="1" stop-color="#4D4D4D"/>
</linearGradient>
<linearGradient id="paint8_linear_618_2418" x1="54.6567" y1="52.8909" x2="64.8928" y2="63.804" gradientUnits="userSpaceOnUse">
<stop stop-color="#7C7C7C"/>
<stop offset="1" stop-color="#666666"/>
</linearGradient>
<linearGradient id="paint9_linear_618_2418" x1="68.9711" y1="46.1895" x2="78.4922" y2="56.3404" gradientUnits="userSpaceOnUse">
<stop stop-color="#7C7C7C"/>
<stop offset="1" stop-color="#666666"/>
</linearGradient>
<linearGradient id="paint10_linear_618_2418" x1="87.5088" y1="40.9357" x2="94.1585" y2="48.0251" gradientUnits="userSpaceOnUse">
<stop stop-color="#474747"/>
<stop offset="1" stop-color="#666666"/>
</linearGradient>
<linearGradient id="paint11_linear_618_2418" x1="37.6139" y1="57.8892" x2="51.8073" y2="73.0213" gradientUnits="userSpaceOnUse">
<stop stop-color="#7C7C7C"/>
<stop offset="1" stop-color="#666666"/>
</linearGradient>
<linearGradient id="paint12_linear_618_2418" x1="80.1042" y1="119.64" x2="52.2296" y2="68.5497" gradientUnits="userSpaceOnUse">
<stop stop-color="#E9FFDB"/>
<stop offset="0.99" stop-color="white"/>
</linearGradient>
<linearGradient id="paint13_linear_618_2418" x1="54.8674" y1="68.2269" x2="49.6565" y2="58.6759" gradientUnits="userSpaceOnUse">
<stop stop-color="#4C4C4C"/>
<stop offset="1" stop-color="#6C6C6C"/>
</linearGradient>
<linearGradient id="paint14_linear_618_2418" x1="69.5455" y1="57.986" x2="65.8336" y2="51.1827" gradientUnits="userSpaceOnUse">
<stop stop-color="#4C4C4C"/>
<stop offset="1" stop-color="#6B6B6B"/>
</linearGradient>
<linearGradient id="paint15_linear_618_2418" x1="135.388" y1="113.002" x2="128.247" y2="99.9129" gradientUnits="userSpaceOnUse">
<stop stop-color="#3D3D3D"/>
<stop offset="1" stop-color="#BBBBBB"/>
</linearGradient>
<linearGradient id="paint16_linear_618_2418" x1="109.776" y1="65.6202" x2="103.078" y2="69.2746" gradientUnits="userSpaceOnUse">
<stop offset="0.01" stop-color="#777777"/>
<stop offset="1" stop-color="white"/>
</linearGradient>
<linearGradient id="paint17_linear_618_2418" x1="100.753" y1="72.5709" x2="90.4648" y2="78.1841" gradientUnits="userSpaceOnUse">
<stop offset="0.01" stop-color="#A8A8A8"/>
<stop offset="1" stop-color="#999999"/>
</linearGradient>
<linearGradient id="paint18_linear_618_2418" x1="94.9403" y1="78.4534" x2="78.2964" y2="87.5342" gradientUnits="userSpaceOnUse">
<stop offset="0.01" stop-color="#A6A6A6"/>
<stop offset="1" stop-color="#FFEADB"/>
</linearGradient>
<linearGradient id="paint19_linear_618_2418" x1="134.17" y1="76.9082" x2="173.278" y2="159.032" gradientUnits="userSpaceOnUse">
<stop stop-color="#7E7E7E"/>
<stop offset="0.49" stop-color="#707070"/>
<stop offset="1" stop-color="#232323"/>
</linearGradient>
<linearGradient id="paint20_linear_618_2418" x1="116.824" y1="44.0482" x2="169.314" y2="151.553" gradientUnits="userSpaceOnUse">
<stop stop-color="#969696"/>
<stop offset="0.49" stop-color="#4F4F4F"/>
<stop offset="1"/>
</linearGradient>
</defs>
</svg>
