<svg width="39" height="33" viewBox="0 0 39 33" fill="none" xmlns="http://www.w3.org/2000/svg">
<mask id="mask0_2409_2832" style="mask-type:alpha" maskUnits="userSpaceOnUse" x="0" y="0" width="39" height="33">
<rect width="39" height="33" fill="#D9D9D9"/>
</mask>
<g mask="url(#mask0_2409_2832)">
<mask id="path-2-inside-1_2409_2832" fill="white">
<path fill-rule="evenodd" clip-rule="evenodd" d="M-70 -178C-81.0457 -178 -90 -169.046 -90 -158V-16C-90 -4.9543 -81.0457 4 -70 4H2.91517C3.34027 4 3.71685 4.26674 3.86418 4.66549C7.12184 13.4823 14.9281 24.9804 35.8188 31.8733C36.7976 32.1962 37.5513 30.966 36.8763 30.1871C28.1674 20.1367 27.4309 11.1875 27.8503 4.91256C27.885 4.39468 28.3189 4 28.8379 4H129C140.046 4 149 -4.9543 149 -16V-158C149 -169.046 140.046 -178 129 -178H-70Z"/>
</mask>
<path fill-rule="evenodd" clip-rule="evenodd" d="M-70 -178C-81.0457 -178 -90 -169.046 -90 -158V-16C-90 -4.9543 -81.0457 4 -70 4H2.91517C3.34027 4 3.71685 4.26674 3.86418 4.66549C7.12184 13.4823 14.9281 24.9804 35.8188 31.8733C36.7976 32.1962 37.5513 30.966 36.8763 30.1871C28.1674 20.1367 27.4309 11.1875 27.8503 4.91256C27.885 4.39468 28.3189 4 28.8379 4H129C140.046 4 149 -4.9543 149 -16V-158C149 -169.046 140.046 -178 129 -178H-70Z" fill="#1D1D1D"/>
<path d="M27.8503 4.91256L29.8459 5.04594L27.8503 4.91256ZM35.8188 31.8733L36.4455 29.974L35.8188 31.8733ZM36.8763 30.1871L35.3648 31.4968L36.8763 30.1871ZM3.86418 4.66549L1.98814 5.35865L3.86418 4.66549ZM-88 -158C-88 -167.941 -79.9411 -176 -70 -176V-180C-82.1503 -180 -92 -170.15 -92 -158H-88ZM-88 -16V-158H-92V-16H-88ZM-70 2C-79.9411 2 -88 -6.05887 -88 -16H-92C-92 -3.84973 -82.1503 6 -70 6V2ZM2.91517 2H-70V6H2.91517V2ZM36.4455 29.974C16.1448 23.2758 8.79109 12.2294 5.74022 3.97233L1.98814 5.35865C5.45259 14.7351 13.7114 26.685 35.1921 33.7726L36.4455 29.974ZM25.8548 4.77918C25.4095 11.4412 26.2291 20.9539 35.3648 31.4968L38.3878 28.8773C30.1057 19.3196 29.4524 10.9338 29.8459 5.04594L25.8548 4.77918ZM129 2H28.8379V6H129V2ZM147 -16C147 -6.05887 138.941 2 129 2V6C141.15 6 151 -3.84973 151 -16H147ZM147 -158V-16H151V-158H147ZM129 -176C138.941 -176 147 -167.941 147 -158H151C151 -170.15 141.15 -180 129 -180V-176ZM-70 -176H129V-180H-70V-176ZM29.8459 5.04594C29.8082 5.60931 29.3406 6 28.8379 6V2C27.2973 2 25.9617 3.18006 25.8548 4.77918L29.8459 5.04594ZM35.1921 33.7726C36.7004 34.2702 38.0364 33.5135 38.6667 32.4985C39.2866 31.5004 39.3801 30.0224 38.3878 28.8773L35.3648 31.4968C35.0475 31.1306 35.1016 30.6572 35.2687 30.3882C35.3546 30.2498 35.5014 30.1013 35.7251 30.0084C35.9699 29.9068 36.2338 29.9042 36.4455 29.974L35.1921 33.7726ZM2.91517 6C2.48855 6 2.12593 5.73157 1.98814 5.35865L5.74022 3.97233C5.30777 2.8019 4.192 2 2.91517 2V6Z" fill="#44C313" mask="url(#path-2-inside-1_2409_2832)"/>
</g>
</svg>
