<svg width="34" height="24" viewBox="0 0 34 24" fill="none" xmlns="http://www.w3.org/2000/svg">
<mask id="mask0_2409_2839" style="mask-type:alpha" maskUnits="userSpaceOnUse" x="0" y="0" width="34" height="24">
<rect width="34" height="24" fill="#D9D9D9"/>
</mask>
<g mask="url(#mask0_2409_2839)">
<mask id="path-2-inside-1_2409_2839" fill="white">
<path fill-rule="evenodd" clip-rule="evenodd" d="M-81 -96C-92.0457 -96 -101 -87.0457 -101 -76V-16C-101 -4.95431 -92.0457 4 -81 4H2.90418C3.23822 4 3.54848 4.16592 3.73789 4.44106C8.37442 11.1765 16.3395 18.1099 30.3507 22.861C31.3238 23.1909 32.085 21.9771 31.422 21.1922C26.5118 15.3793 24.2009 9.93469 23.2041 5.16261C23.0775 4.55665 23.5489 4 24.1679 4H147C158.046 4 167 -4.95431 167 -16V-76C167 -87.0457 158.046 -96 147 -96H-81Z"/>
</mask>
<path fill-rule="evenodd" clip-rule="evenodd" d="M-81 -96C-92.0457 -96 -101 -87.0457 -101 -76V-16C-101 -4.95431 -92.0457 4 -81 4H2.90418C3.23822 4 3.54848 4.16592 3.73789 4.44106C8.37442 11.1765 16.3395 18.1099 30.3507 22.861C31.3238 23.1909 32.085 21.9771 31.422 21.1922C26.5118 15.3793 24.2009 9.93469 23.2041 5.16261C23.0775 4.55665 23.5489 4 24.1679 4H147C158.046 4 167 -4.95431 167 -16V-76C167 -87.0457 158.046 -96 147 -96H-81Z" fill="#1D1D1D"/>
<path d="M23.2041 5.16261L25.1618 4.75366L23.2041 5.16261ZM30.3507 22.861L29.7085 24.755L30.3507 22.861ZM31.422 21.1922L29.8941 22.4828L31.422 21.1922ZM3.73789 4.44106L2.09048 5.57511L3.73789 4.44106ZM-99 -76C-99 -85.9411 -90.9411 -94 -81 -94V-98C-93.1503 -98 -103 -88.1503 -103 -76H-99ZM-99 -16V-76H-103V-16H-99ZM-81 2C-90.9411 2 -99 -6.05888 -99 -16H-103C-103 -3.84974 -93.1503 6 -81 6V2ZM2.90418 2H-81V6H2.90418V2ZM30.993 20.9669C17.3499 16.3407 9.75447 9.65404 5.38529 3.30702L2.09048 5.57511C6.99437 12.6989 15.3291 19.8792 29.7085 24.755L30.993 20.9669ZM21.2463 5.57156C22.3123 10.6745 24.7736 16.4209 29.8941 22.4828L32.9498 19.9016C28.25 14.3378 26.0895 9.19486 25.1618 4.75366L21.2463 5.57156ZM147 2H24.1679V6H147V2ZM165 -16C165 -6.05888 156.941 2 147 2V6C159.15 6 169 -3.84974 169 -16H165ZM165 -76V-16H169V-76H165ZM147 -94C156.941 -94 165 -85.9411 165 -76H169C169 -88.1503 159.15 -98 147 -98V-94ZM-81 -94H147V-98H-81V-94ZM25.1618 4.75366C25.3061 5.44421 24.7619 6 24.1679 6V2C22.3359 2 20.8489 3.6691 21.2463 5.57156L25.1618 4.75366ZM29.7085 24.755C31.2053 25.2626 32.5462 24.5267 33.1877 23.5176C33.8184 22.5255 33.923 21.0537 32.9498 19.9016L29.8941 22.4828C29.584 22.1156 29.6395 21.6431 29.812 21.3717C29.9005 21.2326 30.0499 21.0851 30.2748 20.9945C30.5206 20.8956 30.7834 20.8958 30.993 20.9669L29.7085 24.755ZM2.90418 6C2.56844 6 2.26764 5.83247 2.09048 5.57511L5.38529 3.30702C4.82932 2.49937 3.90799 2 2.90418 2V6Z" fill="#44C313" mask="url(#path-2-inside-1_2409_2839)"/>
</g>
</svg>
