<svg width="292" height="444" viewBox="0 0 292 444" fill="none" xmlns="http://www.w3.org/2000/svg">
<g clip-path="url(#clip0_539_2)">
<path d="M202.538 31.3867C202.538 30.7725 202.267 28.6043 201.498 27.8303C200.73 27.0564 190.922 24.2556 190.922 24.2556C190.922 24.2556 187.884 16.8296 187.269 16.2093C186.654 15.5889 163.902 11.3815 163.902 11.3815L163.613 9.98722L177.965 7.81288C177.965 7.81288 177.178 2.43845 175.469 1.67067C173.759 0.902897 169.104 -0.362398 166.435 0.0982675C163.767 0.558933 114.29 5.11031 100.306 9.72311C98.7199 10.3435 88.2662 18.8259 88.2662 18.8259L95.5777 22.1119L125.42 23.8686L202.538 31.3867Z" fill="#F0DCC5"/>
<path d="M222.984 38.0817C209.332 29.1448 192.133 25.7543 175.573 27.3144C162.795 28.5428 149.857 32.8424 140.744 41.6196C137.054 45.2067 133.881 49.9976 134.595 54.9728C135.21 59.3276 138.604 62.7918 142.22 65.4145C154.254 74.1918 169.781 77.0847 184.754 79.4188C199.961 81.802 215.23 83.9087 230.597 85.1433C233.893 85.4074 238.886 85.8927 242.059 84.7072C244.469 83.8043 245.828 81.2737 246.277 78.8291C246.981 75.1866 246.811 71.4291 245.779 67.8653C243.37 60.0667 239.205 52.9229 233.604 46.9818C230.434 43.6003 226.868 40.6121 222.984 38.0817Z" fill="#F0DCC5"/>
<path d="M291.406 347.09C292.458 350.018 293.139 353.066 293.436 356.162C293.928 361.076 293.436 364.958 292.987 365.941C288.584 375.768 268.845 380.534 265.807 380.319C264.995 380.201 264.215 379.921 263.513 379.496C263.433 380.26 263.247 381.008 262.96 381.72C261.619 384.637 250.047 389.379 248.571 389.742C248.023 389.877 246.062 390.724 243.799 391.738C252.451 424.47 264.663 471.169 268.027 484.006H204.075L156.111 421.804L155.809 421.423L146.899 484.006H92.8781C91.7774 473.785 86.9748 427.836 87.067 404.157C87.1039 394.784 87.2454 386.081 87.4299 378.36C86.6168 377.877 85.9132 377.231 85.3637 376.462C84.7488 375.393 85.6958 356.009 86.1939 346.599C86.2738 345.112 86.3353 343.878 86.3906 343.006C86.446 342.133 86.4706 341.568 86.4706 341.568C86.4706 341.568 85.4559 335.543 84.5704 330.187C84.3245 328.725 84.0908 327.306 83.8817 326.084C83.6481 324.61 83.4575 323.418 83.3529 322.712C83.2115 321.827 82.7933 317.362 82.2645 311.275C82.1415 310.046 82.037 308.72 81.914 307.356C81.4159 301.724 80.8502 295.219 80.3091 289.022C80.1861 287.578 80.0692 286.153 79.9585 284.765C79.0423 273.777 78.2675 264.729 78.2675 264.729L80.9178 263.501C78.9746 243.723 77.4189 227.188 77.4005 223.189C77.4475 214.691 78.3915 206.221 80.2168 197.92C78.135 193.987 75.5919 190.314 72.6409 186.981L72.3519 186.852C61.5908 182.215 50.5775 176.81 41.0707 169.801C38.4204 167.959 35.8685 166.116 33.5686 164.157C26.8045 158.481 21.4116 151.031 17.5314 144.643C14.8698 140.314 12.5269 135.798 10.5213 131.13C10.5213 131.13 -0.578094 113.06 0.0184021 109.393C0.614868 105.726 9.41446 92.6245 16.7136 86.3717C25.5685 78.7984 33.3165 71.5076 39.5703 67.3309C42.9217 65.0951 52.2562 56.8154 58.2086 51.4471C55.8658 46.9265 54.6175 42.6884 55.0602 41.1528C55.9888 38.0817 75.8877 23.0578 78.5442 23.0578C80.4321 23.0072 82.3213 23.0708 84.2015 23.2483C86.323 20.7914 93.9911 12.2844 100.62 10.4295C108.386 8.26127 132.289 6.12992 132.289 6.12992C132.289 6.12992 168.858 0.503655 171.717 2.02692C174.577 3.55019 175.825 7.49963 175.819 7.93573C175.819 8.05857 174.165 8.40868 171.81 8.83863C166.054 9.87053 156.098 11.3999 156.098 11.3999C156.098 11.3999 157.943 11.6948 160.649 12.1616C168.317 13.5129 183.106 16.2216 184.071 17.3456C185.381 18.8811 187.927 25.2199 187.927 25.2199C187.927 25.2199 196.954 27.6338 198.258 28.7333C198.836 29.2123 199.272 30.3118 199.58 31.4051C204.566 32.7117 209.451 34.3765 214.196 36.3864C231.519 43.6957 241.868 59.1126 245.478 77.183C245.607 77.8402 245.73 78.5159 245.828 79.1915C249.198 99.903 241.413 122.322 226.766 138.157C228.912 138.771 231.168 139.453 233.53 140.153C257.026 147.143 288.399 156.903 290.164 159.593C290.871 160.662 289.211 171.454 286.296 187.129C294.721 198.393 309.178 218.048 314.226 227.477C321.513 241.088 329.599 255.516 331.629 260.467C333.658 265.417 338.872 274.299 338.842 276.363C337.612 283.303 325.535 304.537 317.461 314.831C312.394 321.281 299.972 336.593 291.406 347.09ZM118.945 41.7056C118.195 40.8027 110.815 44.0642 106.345 46.1648C106.388 46.8896 106.425 47.5837 106.468 48.2471C106.38 48.4865 106.251 48.7089 106.087 48.9043C103.996 51.8525 93.9973 63.4245 91.3838 66.1025C89.539 68.0065 84.0047 68.7129 78.2122 67.6626C71.8046 79.6153 61.726 98.3736 59.1495 102.673C57.2186 105.916 49.9933 112.857 49.9933 112.857L53.6152 114.141C61.8367 117.04 81.4098 123.968 83.6788 125.197C84.1384 125.458 84.5801 125.749 85.0009 126.069C86.9379 127.482 89.9203 130.037 92.7243 132.291C95.5284 134.545 98.0681 136.504 99.1134 136.738C101.831 137.195 104.575 137.478 107.329 137.585C109.297 136.044 111.529 135.264 114.001 136.124C114.505 136.302 115.188 136.523 115.975 136.738C118.434 135.258 120.765 134.195 122.597 133.888C122.597 133.888 130.327 137.776 132.436 139.01C132.725 139.154 133.031 139.261 133.346 139.33C132.127 137.382 131.016 135.368 130.02 133.298C129.909 133.476 129.829 133.581 129.792 133.581C129.318 132.352 128.876 131.081 128.458 129.822C128.46 129.81 128.46 129.797 128.458 129.785C126.758 125.654 125.421 121.383 124.461 117.021C124.208 115.867 123.981 114.687 123.766 113.496C123.698 113.103 123.637 112.703 123.575 112.304C123.44 111.487 123.311 110.664 123.194 109.847C123.132 109.393 123.077 108.938 123.022 108.484C122.923 107.667 122.831 106.844 122.751 106.027C122.708 105.578 122.665 105.136 122.628 104.688C122.548 103.748 122.487 102.802 122.438 101.856C122.438 101.518 122.394 101.187 122.376 100.849C122.321 99.6205 122.29 98.3184 122.284 97.0469C122.284 96.5985 122.284 96.1502 122.284 95.7079C122.284 94.891 122.284 94.0802 122.321 93.251C122.321 92.5692 122.376 91.8875 122.407 91.2057C122.407 90.8801 122.407 90.5485 122.45 90.2229C122.45 90.0387 122.487 89.8605 122.493 89.6763C122.567 88.6014 122.659 87.5265 122.763 86.4455C122.809 85.9582 122.858 85.4729 122.911 84.9898C123.022 84.007 123.151 83.0242 123.292 82.0476C123.372 81.4948 123.446 80.942 123.532 80.3954C123.68 79.4741 123.858 78.5527 124.036 77.6498C124.147 77.0356 124.245 76.4766 124.374 75.8931C124.565 74.9841 124.793 74.0873 124.989 73.1844C125.131 72.6193 125.248 72.0481 125.401 71.4892C125.779 70.0887 126.189 68.7047 126.631 67.337C126.828 66.7228 127.062 66.1393 127.246 65.5374C127.529 64.745 127.806 63.9465 128.107 63.1665C128.353 62.5523 128.63 61.938 128.888 61.3238C129.202 60.5806 129.503 59.8374 129.853 59.1065C130.13 58.4923 130.425 57.9456 130.714 57.3682C131.089 56.6312 131.465 55.8941 131.858 55.1693C131.969 54.9728 132.061 54.7639 132.178 54.5551C132.627 53.775 133.082 52.9888 133.561 52.2272C134.312 51.0356 135.099 49.8932 135.929 48.763C129.466 47.6513 119.879 42.8358 118.945 41.7056ZM270.462 264.907C269.97 267.221 269.48 269.512 268.992 271.78C262.517 301.877 256.891 326.839 256.128 329.198C256.128 329.241 256.128 329.284 256.085 329.308C255.409 331.022 243.51 331.274 230.572 331.034C230.701 331.575 230.836 332.152 230.99 332.767C231.058 333.055 231.131 333.344 231.205 333.651C231.254 333.854 231.31 334.069 231.359 334.265C232.65 339.388 234.495 346.206 236.057 352.403C241.038 352.673 245.281 352.919 247.23 353.017C247.23 352.974 247.23 352.931 247.23 352.888C247.265 352.512 247.352 352.142 247.488 351.789C247.511 351.459 247.554 351.131 247.618 350.806C248.282 347.649 260.691 331.624 262.72 331.065C265.159 330.509 267.67 330.345 270.161 330.58C270.776 329.382 271.446 328.16 272.061 326.95C273.406 324.387 274.613 321.755 275.677 319.063C278.628 311.232 278.345 297.479 281.211 288.432C282.508 284.304 290.158 275.669 290.158 275.669C290.158 275.669 276.937 268.894 270.462 264.907Z" fill="#C8F0C5"/>
<path d="M199.223 329.566C199.223 329.566 200.404 329.64 202.433 329.738C214.541 330.408 256.952 332.459 258.237 329.192C258.256 329.154 258.272 329.115 258.287 329.075C259.043 326.716 264.676 301.755 271.151 271.658C274.797 254.625 278.739 235.947 282.219 218.835C288.584 187.46 293.442 161.215 292.316 159.513C290.552 156.829 259.172 147.069 235.682 140.073C221.385 135.823 210.021 132.586 210.021 132.586L206.006 205.991L200.797 301.294L199.223 329.566Z" fill="url(#paint0_linear_539_2)"/>
<path d="M195.349 208.116L200.797 301.294L202.458 329.738C214.565 330.408 256.977 332.459 258.262 329.192C258.281 329.154 258.297 329.115 258.311 329.075L241.641 324.444L250.674 272.438L271.175 271.658C274.822 254.625 278.764 235.947 282.244 218.835L246.904 197.699L206.03 205.991L195.349 208.116Z" fill="url(#paint1_linear_539_2)"/>
<path d="M236.112 264.25C235.577 265.012 235.055 265.755 234.544 266.51C234.491 266.573 234.442 266.638 234.397 266.707C230.996 271.701 228.192 276.535 226.403 281.332C226.452 313.4 235.331 352.581 237.078 358.3C237.348 359.203 238.381 363.023 239.931 368.827C247.23 396.259 265.979 467.889 270.216 484.006H206.332L158.269 421.687L157.968 421.288L149.039 484.006H95.0303C93.9542 474.019 89.1209 427.805 89.207 404.035C89.3239 377.291 90.2647 355.953 90.7013 347.231C91.1379 338.509 79.6327 234.018 79.5466 223.085C79.5986 214.589 80.5446 206.121 82.3691 197.822C87.0609 175.452 96.6783 153.789 103.891 143.771C105.472 141.578 107.347 139.066 109.5 137.426C111.473 135.884 113.699 135.104 116.171 135.964C120.722 137.573 137.663 142.014 144.938 142.923C144.938 142.923 152.114 141.885 162.266 141.467C175.13 140.951 192.76 141.467 206.608 146.344C206.608 146.344 212.524 148.629 220.192 151.608C229.176 155.091 240.558 159.525 247.667 162.314C250.545 163.457 252.703 164.335 253.736 164.771H253.779C255.659 165.394 257.609 165.784 259.584 165.932C261.644 166.159 263.987 166.331 266.385 166.478C266.859 166.521 267.338 166.552 267.806 166.577C275.529 167.044 283.382 167.351 284.058 168.714C285.239 171.116 284.175 180.446 284.175 180.446C280.362 215.205 252.494 241.297 236.112 264.25Z" fill="url(#paint2_linear_539_2)"/>
<path d="M220.26 322.079C222.578 361.008 234.323 398.709 245.687 435.169L260.906 484.006H260.156L245.01 435.391C233.634 398.894 221.871 361.15 219.552 322.141C217.05 280.017 227.59 242.439 250.034 213.423L250.6 213.847C228.26 242.716 217.769 280.134 220.26 322.079Z" fill="#6D798C"/>
<path style="mix-blend-mode:screen" d="M173.003 350.198C172.388 350.407 151.277 354.074 148.148 354.074C145.018 354.074 115.557 347.833 116.171 348.042C116.786 348.251 145.141 361.07 147.649 360.867C150.158 360.664 173.003 350.198 173.003 350.198Z" fill="url(#paint3_linear_539_2)"/>
<path style="mix-blend-mode:screen" d="M179.484 389.349C179.484 389.349 151.499 395.994 148.123 396.142C144.747 396.289 110.157 384.472 110.157 384.472C110.157 384.472 146.137 388.857 148.639 388.655C151.142 388.452 179.484 389.349 179.484 389.349Z" fill="url(#paint4_linear_539_2)"/>
<path style="mix-blend-mode:screen" d="M143.376 340.936C143.886 342.514 144.433 344.295 145.159 346.04C146.536 349.541 147.975 353.097 148.965 355.339C148.35 352.968 147.244 349.326 146.124 345.757C145.509 343.988 145.079 342.183 144.642 340.586C144.206 338.989 143.788 337.576 143.493 336.526L142.146 331.931L141.014 327.282C140.295 324.167 139.403 321.096 138.874 317.945L137.073 308.536L135.72 299.046C134.159 286.345 133.497 273.549 133.74 260.755C134.139 247.937 135.44 235.162 137.632 222.526L139.477 213.073L141.746 203.706C142.435 200.568 143.48 197.515 144.347 194.426L145.694 189.794L147.299 185.237L148.621 181.195C149.138 179.604 149.679 177.811 150.361 176.054C151.659 172.516 152.938 168.898 153.682 166.546C152.581 168.763 150.964 172.283 149.414 175.759C148.603 177.485 147.969 179.254 147.379 180.821C146.789 182.387 146.297 183.781 145.928 184.801L144.341 189.383L142.97 194.039C142.097 197.147 141.039 200.211 140.35 203.369L138.075 212.797L136.23 222.299C134.026 235.004 132.719 247.848 132.319 260.737C132.072 273.603 132.738 286.47 134.312 299.242L135.671 308.781L137.46 318.246C137.995 321.416 138.893 324.505 139.612 327.632L140.775 332.294L142.127 336.913C142.447 337.957 142.884 339.351 143.376 340.936ZM110.785 356.727C121.066 361.034 131.976 363.657 143.093 364.497C154.269 365.235 165.491 364.186 176.336 361.389L180.4 360.228C181.206 359.995 182.073 359.798 182.94 359.504L185.603 358.588C189.249 357.483 192.766 355.824 195.134 354.989C192.188 356.695 189.131 358.201 185.984 359.497L183.358 360.585C182.497 360.935 181.63 361.199 180.818 361.451L176.686 362.747C165.687 365.585 154.305 366.649 142.97 365.898C131.696 365.045 120.633 362.384 110.207 358.017L106.345 356.174C105.601 355.788 104.777 355.431 103.99 354.946L101.579 353.503C98.6995 351.775 95.9404 349.854 93.3209 347.754C95.5161 348.914 98.7076 351.052 102.12 352.667L104.58 353.945C105.386 354.356 106.216 354.676 106.966 355.02L110.785 356.727ZM147.471 396.787L147.569 395.908L147.668 395.03C148.129 390.731 149.599 380.369 150.503 375.516C150.367 380.43 149.556 390.786 149.076 395.171L148.984 396.044L148.885 396.922C148.762 398.009 148.59 399.465 148.4 401.117C148.181 402.835 148.322 404.579 148.812 406.24C149.912 409.704 152.55 412.628 154.014 414.55C152.268 412.867 149.316 410.214 147.865 406.565C147.209 404.8 146.951 402.913 147.108 401.037C147.201 399.274 147.367 397.837 147.471 396.787Z" fill="url(#paint5_linear_539_2)"/>
<path d="M142.632 340.186C143.142 341.771 143.689 343.546 144.415 345.29C145.792 348.792 147.231 352.348 148.221 354.59C147.606 352.219 146.5 348.577 145.38 345.008C144.765 343.239 144.335 341.433 143.892 339.836L142.748 335.776L141.402 331.182L140.27 326.532C139.551 323.418 138.659 320.347 138.13 317.196L136.329 307.786L134.976 298.296C133.412 285.596 132.75 272.8 132.996 260.006C133.392 247.187 134.693 234.413 136.888 221.777L138.733 212.324L141.002 202.957C141.685 199.818 142.736 196.766 143.603 193.676L144.968 189.051L146.549 184.487C146.893 183.443 147.367 182.031 147.895 180.458C148.424 178.886 148.953 177.08 149.636 175.317C150.933 171.779 152.212 168.161 152.956 165.809C151.855 168.026 150.238 171.546 148.689 175.022C147.877 176.748 147.244 178.517 146.653 180.083C146.063 181.65 145.571 183.044 145.202 184.064L143.616 188.652L142.244 193.301C141.365 196.409 140.313 199.474 139.625 202.631L137.343 212.054L135.499 221.556C133.294 234.261 131.987 247.105 131.588 259.994C131.336 272.863 131.997 285.735 133.568 298.511L134.927 308.05L136.735 317.515C137.269 320.685 138.167 323.774 138.887 326.901L140.03 331.581L141.383 336.2C141.703 337.207 142.14 338.602 142.632 340.186ZM110.041 355.978C120.322 360.285 131.231 362.909 142.349 363.748C153.523 364.485 164.743 363.436 175.585 360.64L179.65 359.479C180.456 359.246 181.323 359.049 182.19 358.754L184.809 357.839C188.456 356.733 191.979 355.075 194.347 354.24C191.401 355.945 188.344 357.451 185.197 358.748L182.571 359.835C181.71 360.185 180.837 360.449 180.031 360.701L175.899 361.997C164.9 364.836 153.518 365.899 142.183 365.148C130.909 364.296 119.846 361.636 109.42 357.268L105.558 355.425C104.814 355.044 103.99 354.682 103.203 354.197L100.792 352.753C97.9247 351.02 95.1779 349.095 92.5707 346.992C94.7659 348.153 97.9574 350.29 101.37 351.906L103.83 353.183C104.635 353.595 105.466 353.914 106.216 354.258L110.041 355.978ZM146.752 396.013L146.85 395.134L146.942 394.256C147.41 389.957 148.873 379.595 149.783 374.742C149.642 379.656 148.836 390.018 148.357 394.397L148.264 395.276L148.166 396.148C148.043 397.235 147.871 398.691 147.68 400.343C147.462 402.061 147.602 403.805 148.092 405.466C149.193 408.936 151.831 411.854 153.288 413.776C151.548 412.093 148.596 409.44 147.139 405.791C146.488 404.025 146.232 402.138 146.389 400.263C146.456 398.525 146.622 397.088 146.727 396.013H146.752Z" fill="url(#paint6_linear_539_2)"/>
<path d="M191.248 172.94L191.617 173.216C194.125 175.286 208.761 187.239 210.236 188.21C211.503 189.057 226.224 190.587 232.527 191.213C234.286 191.385 235.405 191.483 235.405 191.483C235.405 191.483 249.653 173.401 251.141 171.073C252.629 168.745 256.817 166.773 259.018 166.055C259.201 165.994 259.392 165.957 259.584 165.944C261.324 165.68 264.503 166.153 266.385 166.491L267.861 166.786C267.847 166.719 267.828 166.653 267.806 166.589C267.523 165.619 266.17 161.362 263.6 161.061L247.612 162.339L246.13 162.468L207.512 169.838L191.248 172.94Z" fill="url(#paint7_linear_539_2)"/>
<path d="M191.248 172.94L191.616 173.216C193.929 174.936 206.405 184.186 209.019 185.163C211.903 186.25 232.718 188.781 232.718 188.781L233.388 187.731C235.891 183.732 244.906 169.599 248.663 167.302C250.315 166.351 252.029 165.509 253.791 164.783C258.428 162.812 263.63 161.049 263.63 161.049C263.63 161.049 247.532 158.328 245.687 157.603C243.842 156.878 227.854 148.795 227.854 148.795C225.935 148.863 223.23 149.956 220.149 151.62C213.157 155.416 204.241 162.24 198.159 167.16C194.07 170.483 191.248 172.94 191.248 172.94Z" fill="url(#paint8_linear_539_2)"/>
<path d="M91.1624 169.009C91.1825 169.015 91.2039 169.015 91.2239 169.009C92.1463 169.273 103.59 172.75 106.874 173.45C110.268 174.162 127.197 173.739 127.197 173.739C127.197 173.739 141.894 144.545 145.208 142.499C145.712 142.196 146.24 141.937 146.788 141.725C148.844 140.977 151.014 140.591 153.202 140.583C152.04 140.546 136.599 140.036 134.595 138.869C132.59 137.702 124.756 133.747 124.756 133.747C117.739 134.92 103.732 147.032 100.159 151.885C96.5861 156.737 91.1624 169.009 91.1624 169.009Z" fill="url(#paint9_linear_539_2)"/>
<path d="M130.21 153.629C128.052 158.543 126.644 163.696 125.242 168.843C125.788 164.144 126.683 159.492 127.916 154.925C128.734 151.915 129.718 148.899 131.44 146.277C132.369 144.864 136.089 140.135 138.057 141.572C137.177 143.414 134.982 145.22 133.752 147.051C132.385 149.138 131.2 151.339 130.21 153.629Z" fill="url(#paint10_linear_539_2)"/>
<path d="M122.874 149.366C118.508 154.906 114.968 161.049 112.365 167.602C114.167 163.051 115.175 158.426 117.475 154.004C119.658 149.796 122.345 145.091 125.992 141.934C127.295 140.81 131.526 137.524 133.106 139.097C130.782 142.573 126.607 144.932 123.883 148.169C123.526 148.562 123.194 148.967 122.874 149.366Z" fill="url(#paint11_linear_539_2)"/>
<path d="M116.264 145.865C110.828 151.51 106.228 158.463 102.637 164.98C104.297 161.976 105.097 158.401 106.738 155.318C109.653 149.79 114.075 142.002 119.775 138.894C121.294 138.065 126.268 134.932 127.658 136.965C126.219 138.464 123.6 139.459 121.847 140.81C119.867 142.359 118.001 144.048 116.264 145.865Z" fill="url(#paint12_linear_539_2)"/>
<path d="M91.224 169.04C92.2202 169.476 106.48 175.864 108.626 176.337C110.871 176.822 132.024 175.035 132.024 175.035C132.024 175.035 140.061 159.311 141.088 156.473C142.115 153.635 148.357 145.306 149.273 144.674C150.189 144.041 159.425 144.109 159.425 144.109C157.322 141.817 153.946 139.705 150.041 140.466C148.738 140.661 147.486 141.113 146.36 141.797C145.233 142.48 144.254 143.381 143.48 144.446C139.496 149.913 136.507 155.981 133.426 161.761C131.93 164.574 130.458 167.392 129.011 170.213C128.9 170.434 127.363 173.769 127.197 173.769C127.197 173.769 110.268 174.193 106.874 173.481C103.59 172.78 92.1464 169.304 91.224 169.04Z" fill="url(#paint13_linear_539_2)"/>
<path d="M182.657 342.447C183.21 345.389 191.198 356.101 198.19 365.05C201.092 368.778 203.823 372.181 205.791 374.613C207.635 376.88 208.773 378.299 208.773 378.299L210.003 378.231C209.849 378.022 208.847 376.561 207.322 374.312C207.291 374.269 207.26 374.239 207.248 374.214C205.372 371.481 202.747 367.63 199.924 363.496C192.816 353.054 184.508 340.85 184.33 340.487C184.01 339.873 183.967 280.331 184.299 279.913C184.545 279.587 204.53 272.475 214.676 268.924C217.788 267.831 219.977 267.082 220.377 266.953C221.563 266.59 229.514 266.842 234.415 266.75C235.485 266.765 236.556 266.711 237.619 266.59C238.043 266.547 238.283 266.474 238.314 266.351C238.258 265.565 237.644 262.979 237.576 262.666L236.383 264.361C236.303 264.368 236.223 264.368 236.143 264.361C234.157 264.207 220.647 263.132 218.925 263.409C218.624 263.464 217.499 263.814 215.783 264.398C206.897 267.42 182.577 276.393 181.845 278.697C180.929 281.313 181.673 337.152 182.657 342.447Z" fill="url(#paint14_linear_539_2)"/>
<path d="M184.268 341.286C185.363 344.854 192.693 355.222 199.248 364.055C202.046 367.839 204.702 371.34 206.682 373.925C208.558 376.382 209.812 377.992 209.984 378.188L210.138 378.145C212.21 377.531 234.544 371.303 239.913 368.797C240.312 368.651 240.681 368.432 241.001 368.152C242.231 366.721 237.398 349.24 234.305 337.281C233.954 335.942 233.634 334.677 233.351 333.51C232.853 331.556 232.472 329.886 232.22 328.596C231.826 326.63 231.334 323.443 230.812 319.616C230.658 318.467 230.504 317.245 230.338 315.992C229.76 311.373 229.17 306.165 228.69 301.324C228.58 300.2 228.469 299.076 228.377 297.995C227.854 292.148 227.534 287.093 227.645 284.483C227.649 283.968 227.709 283.455 227.823 282.953C228.208 281.938 228.709 280.972 229.317 280.072C232.478 275.079 239.156 267.057 239.107 266.308C239.058 265.558 237.877 263.145 237.576 262.622C237.736 263.083 238.541 265.288 238.283 266.246C238.283 266.369 238.013 266.443 237.588 266.486C236.564 266.543 235.536 266.531 234.514 266.449C229.594 266.148 221.373 265.221 218.95 265.945C218.335 266.13 216.921 266.633 214.977 267.358C205.532 270.927 183.616 279.471 183.616 279.471C183.616 279.471 182.227 334.652 184.268 341.286Z" fill="url(#paint15_linear_539_2)"/>
<path d="M186.482 290.932L187.841 291.214C188.776 291.423 190.135 291.638 191.807 291.878C196.189 292.432 200.621 292.463 205.01 291.97C207.638 291.685 210.245 291.226 212.813 290.594C215.374 289.946 217.889 289.125 220.34 288.137C222.869 287.129 225.315 285.926 227.657 284.538C227.662 284.023 227.721 283.51 227.836 283.009C228.22 281.994 228.721 281.027 229.33 280.128C226.218 282.397 222.89 284.354 219.393 285.969C217.088 287.04 214.72 287.969 212.303 288.751C209.853 289.522 207.358 290.138 204.831 290.594C200.554 291.377 196.2 291.665 191.856 291.454C190.171 291.356 188.782 291.239 187.859 291.098C187.146 291 186.654 290.944 186.482 290.932ZM193.418 314.979C194.328 314.88 195.626 314.641 197.212 314.321C201.285 313.483 205.263 312.238 209.086 310.605C211.345 309.649 213.55 308.571 215.691 307.375C217.808 306.171 219.861 304.857 221.84 303.437C224.133 301.776 226.321 299.972 228.389 298.038C228.481 299.12 228.592 300.244 228.703 301.368C226.941 302.816 225.093 304.155 223.168 305.378C221.049 306.735 218.852 307.965 216.589 309.064C214.306 310.141 211.965 311.092 209.578 311.914C205.588 313.279 201.466 314.228 197.28 314.745C195.675 314.923 194.347 315.065 193.437 315.089L192.016 315.175L193.418 314.979ZM203.257 336.593C204.032 336.323 205.133 335.862 206.479 335.273C209.9 333.742 213.167 331.891 216.238 329.745C219.859 327.241 223.189 324.34 226.163 321.096C227.652 319.498 229.048 317.817 230.344 316.06C230.51 317.288 230.664 318.517 230.818 319.684C229.932 320.697 228.936 321.735 227.872 322.755C226.227 324.321 224.496 325.795 222.689 327.171C220.861 328.534 218.958 329.794 216.988 330.942C213.701 332.872 210.23 334.47 206.627 335.715C205.225 336.175 204.099 336.538 203.3 336.734L202.144 337.054L203.257 336.593ZM209.585 360.855C210.341 360.376 211.392 359.626 212.659 358.681C215.909 356.222 218.936 353.482 221.705 350.493C224.972 346.992 227.858 343.154 230.314 339.044C231.47 337.152 232.466 335.273 233.315 333.516C233.597 334.683 233.929 335.973 234.268 337.287C233.653 338.27 233.038 339.265 232.331 340.272C230.941 342.305 229.441 344.259 227.836 346.126C226.213 347.989 224.497 349.768 222.695 351.457C219.656 354.273 216.362 356.803 212.856 359.012C211.491 359.848 210.396 360.523 209.572 360.929L208.342 361.598C208.533 361.567 208.92 361.291 209.585 360.855Z" fill="url(#paint16_linear_539_2)"/>
<path d="M217.277 179.678C218.835 173.52 222.297 168.009 227.171 163.929C229.699 161.817 240.152 154.87 243.116 157.855C237.834 160.527 232.73 162.652 228.118 166.546C224.515 169.568 218.452 174.955 217.277 179.678Z" fill="url(#paint17_linear_539_2)"/>
<path d="M209.105 175.587C210.664 169.43 214.129 163.921 219.005 159.845C221.539 157.732 231.968 150.785 234.944 153.746C229.662 156.424 224.558 158.549 219.946 162.443C216.343 165.477 210.279 170.87 209.105 175.587Z" fill="url(#paint18_linear_539_2)"/>
<path d="M228.66 182.19C230.219 176.036 233.681 170.529 238.554 166.454C241.087 164.341 251.522 157.394 254.499 160.355C249.216 163.033 244.113 165.158 239.501 169.052C235.897 172.08 229.834 177.467 228.66 182.19Z" fill="url(#paint19_linear_539_2)"/>
<path d="M80.432 264.6L83.1869 263.372C83.1869 263.372 83.5128 265.909 84.5951 267.002C85.6773 268.095 102.864 282.793 102.864 282.793C102.864 282.793 107.938 322.104 108.786 326.655C109.635 331.206 111.467 342.791 111.055 345.505C110.643 348.22 95.5346 377.555 94.0526 378.458C93.1952 378.994 92.19 379.246 91.1809 379.177L95.6452 323.351L80.432 264.6Z" fill="url(#paint20_linear_539_2)"/>
<path d="M80.4259 264.606C80.4259 264.606 81.1761 273.654 82.117 284.63C82.2215 286.018 82.3445 287.437 82.4613 288.887C83.0086 295.078 83.5743 301.582 84.0724 307.221C84.1892 308.578 84.2999 309.905 84.4229 311.14C84.9518 317.221 85.3637 321.692 85.5113 322.577C85.6097 323.277 85.8065 324.475 86.0402 325.949C86.2492 327.177 86.4829 328.59 86.7289 330.052C87.6144 335.401 88.629 341.433 88.629 341.433C88.629 341.433 88.5921 341.949 88.5491 342.864C88.506 343.779 88.4322 344.971 88.3523 346.464C87.8481 355.873 86.8949 375.258 87.516 376.327C88.3461 377.746 91.2055 379.152 91.2055 379.152C91.2055 379.152 109.284 351.328 109.088 345.696C108.891 340.063 101.18 286.024 100.06 283.77C100.06 283.77 88.5368 273.623 86.2984 271.639C84.0601 269.655 80.4259 264.606 80.4259 264.606Z" fill="url(#paint21_linear_539_2)"/>
<g style="mix-blend-mode:multiply">
<path d="M236.112 264.25C236.192 264.257 236.272 264.257 236.352 264.25L237.545 262.555C237.711 262.88 239.009 265.436 239.107 266.308C239.205 267.18 228.961 279.206 227.823 282.953C226.686 286.7 230.48 319.806 232.22 328.584C233.96 337.361 242.637 366.278 241.001 368.127C240.681 368.408 240.312 368.626 239.913 368.772C247.23 396.259 265.979 467.889 270.216 484.006H246.818C234.6 457.908 223.636 430.937 215.088 403.605C211.024 401.037 206.479 398.691 202.384 396.123C203.718 389.846 205.883 383.065 210.15 378.182C210.193 378.127 210.243 378.059 210.298 377.998C209.419 376.861 208.25 375.467 207.303 374.276C207.272 374.233 207.242 374.202 207.229 374.177L206.91 373.766L206.682 373.932C206.393 374.171 206.067 374.398 205.791 374.62C201.215 378.053 196.382 380.897 191.838 384.447C190.116 382.856 187.583 381.376 185.861 379.791C189.438 374.465 193.56 369.525 198.159 365.05C198.51 364.712 198.854 364.374 199.217 364.055L199.881 363.441C202.653 360.953 205.65 358.728 208.834 356.795C206.375 327.656 207.875 297.516 214.627 268.869C214.732 268.378 214.842 267.886 214.977 267.407C215.131 266.75 215.279 266.099 215.445 265.442C215.537 265.049 215.642 264.668 215.734 264.275C221.791 240.001 226.704 215.536 232.497 191.182C232.767 190.028 233.056 188.867 233.345 187.7C233.923 185.31 234.501 182.909 235.104 180.526C226.246 176.179 217.031 172.597 207.561 169.82C204.434 168.874 201.312 167.987 198.196 167.16C196.499 166.724 194.814 166.282 193.129 165.877C186.416 169.568 178.618 170.787 171.096 169.322C163.66 167.824 157.005 163.717 152.335 157.744C149.771 154.409 147.895 149.759 149.998 146.074L162.26 141.474C175.124 140.958 192.754 141.474 206.602 146.35C206.602 146.35 212.518 148.635 220.186 151.614C223.26 149.95 225.972 148.856 227.891 148.789C227.891 148.789 243.879 156.878 245.724 157.597C247.568 158.315 263.63 161.043 263.63 161.043C266.201 161.356 267.553 165.612 267.836 166.571C275.56 167.037 283.412 167.345 284.089 168.708C285.269 171.11 284.206 180.44 284.206 180.44C280.362 215.205 252.494 241.297 236.112 264.25Z" fill="#819968"/>
</g>
<path d="M269.583 262.708C272.866 265.595 292.304 275.515 292.304 275.515C292.304 275.515 284.655 284.157 283.351 288.285C280.498 297.326 280.787 311.078 277.817 318.91C276.747 321.6 275.54 324.235 274.201 326.802C270.431 334.173 265.709 342.158 265.709 342.158L284.734 357.796C284.734 357.796 311.527 324.997 319.619 314.715C327.711 304.433 339.77 283.156 341 276.246C341 274.182 335.798 265.294 333.787 260.344C331.776 255.393 323.671 240.971 316.403 227.36C309.135 213.749 282.146 178.683 282.146 178.683C278.464 179.246 274.933 180.539 271.76 182.485C266.453 185.71 261.238 191.035 255.999 199.247C244.887 216.648 250.397 237.943 251.203 240.019C252.008 242.095 266.287 259.815 269.583 262.708Z" fill="url(#paint22_linear_539_2)"/>
<path d="M272.467 337.619L272.725 337.324C277.743 331.421 283.437 324.733 284.187 317.257C284.538 313.824 284.593 309.733 284.648 305.784C284.753 298.051 284.864 290.06 287.108 286.958C288.393 284.82 293.522 279.858 297.734 277.591L298.195 277.345L297.802 277.014C297.52 276.804 297.22 276.621 296.904 276.467H296.861C297.697 276.301 298.521 276.098 299.32 275.908C300.409 275.644 301.534 275.374 302.659 275.189L303.545 275.036L302.801 274.551C279.323 259.072 262.357 247.893 249.303 223.11L248.688 223.441C261.687 248.115 279.36 259.932 301.694 274.655C300.845 274.827 300.003 275.03 299.185 275.226C298.097 275.49 296.971 275.755 295.846 275.945L295.09 276.074L295.668 276.559C295.95 276.773 296.253 276.959 296.572 277.112L296.898 277.29C292.692 279.716 287.784 284.507 286.524 286.602C284.144 289.857 284.064 297.602 283.923 305.808C283.867 309.746 283.812 313.824 283.468 317.227C282.742 324.475 277.122 331.077 272.172 336.882L271.913 337.177L272.467 337.619Z" fill="#6D798C"/>
<path d="M280.202 196.416C277.528 199.044 277.294 203.706 278.081 207.588C279.68 215.512 284.777 222.33 291.363 225.364C294.702 226.899 298.976 227.292 301.596 224.381C304.215 221.47 304.025 216.648 302.825 212.803C300.483 205.377 288.35 188.431 280.202 196.416Z" fill="url(#paint23_linear_539_2)"/>
<path d="M281.279 195.967C278.604 198.59 278.37 203.258 279.151 207.14C280.75 215.063 285.854 221.881 292.433 224.915C295.779 226.451 300.052 226.838 302.672 223.933C305.291 221.027 305.101 216.2 303.902 212.355C301.559 204.923 289.42 187.952 281.279 195.967Z" fill="url(#paint24_linear_539_2)"/>
<path d="M283.197 198C280.971 200.224 280.774 204.173 281.426 207.465C282.754 214.173 287.004 219.953 292.495 222.514C295.28 223.816 298.835 224.148 301.024 221.685C303.213 219.222 303.047 215.137 302.038 211.857C300.089 205.586 289.961 191.232 283.197 198Z" fill="url(#paint25_linear_539_2)"/>
<path d="M192.188 196.839C197.723 199.186 200.674 204.21 201.621 208.571C203.564 217.477 199.537 225.855 191.168 230.376C186.906 232.679 180.591 233.902 174.97 231.242C172.614 230.108 170.605 228.366 169.151 226.195C167.696 224.024 166.85 221.504 166.7 218.896C166.134 210.389 175.309 189.696 192.188 196.839Z" fill="url(#paint26_linear_539_2)"/>
<path d="M190.288 196.551C195.823 198.897 198.774 203.921 199.727 208.282C201.664 217.189 197.637 225.566 189.274 230.093C185.012 232.39 178.697 233.619 173.077 230.953C170.72 229.82 168.711 228.077 167.257 225.906C165.802 223.735 164.956 221.215 164.806 218.607C164.24 210.1 173.415 189.407 190.288 196.551Z" fill="url(#paint27_linear_539_2)"/>
<path d="M188.499 199.124C193.135 201.114 195.62 205.371 196.444 209.062C198.122 216.599 194.826 223.681 187.865 227.489C184.33 229.43 179.072 230.456 174.368 228.195C172.388 227.221 170.7 225.743 169.474 223.91C168.248 222.077 167.526 219.954 167.382 217.754C166.847 210.543 174.356 193.05 188.499 199.124Z" fill="url(#paint28_linear_539_2)"/>
<g style="mix-blend-mode:multiply">
<path d="M265.727 342.121L284.734 357.796C284.734 357.796 311.527 324.997 319.619 314.715C327.711 304.433 339.77 283.156 341 276.246C341 274.182 335.798 265.294 333.787 260.344C331.776 255.393 323.671 240.971 316.403 227.36C309.135 213.749 282.146 178.683 282.146 178.683C278.464 179.246 274.933 180.539 271.76 182.485C292.97 210.669 310.361 241.529 323.481 274.262C314.804 271.961 305.591 272.816 297.488 276.676C304.223 275.309 311.225 276.461 317.166 279.913C312.703 298.046 305.206 315.297 294.991 330.936C291.433 331.794 287.731 331.868 284.141 331.154C280.551 330.44 277.159 328.956 274.201 326.802C270.45 334.185 265.727 342.121 265.727 342.121Z" fill="#819968"/>
</g>
<path d="M249.635 353.791C249.635 354.283 249.69 354.799 249.739 355.333C249.788 355.867 249.85 356.236 249.911 356.709C250.489 360.658 251.854 365.412 254.16 368.588C257.936 373.809 264.928 380.031 267.965 380.258C271.003 380.485 290.718 375.694 295.139 365.879C295.582 364.896 296.086 360.965 295.588 356.101C295.065 350.739 293.362 344.173 289.076 339.025C287.818 337.498 286.372 336.136 284.771 334.972C276.396 328.829 266.613 330.475 264.885 330.979C262.855 331.593 250.446 347.563 249.782 350.788C249.723 351.113 249.682 351.441 249.659 351.771C249.614 352.443 249.606 353.118 249.635 353.791Z" fill="url(#paint29_linear_539_2)"/>
<path style="mix-blend-mode:screen" d="M249.635 353.791L260.445 361.954C264.495 356.987 268.677 352.125 272.989 347.367C276.587 343.38 280.368 339.621 284.058 335.696L284.753 334.922C276.378 328.78 266.594 330.426 264.866 330.93C262.837 331.544 250.428 347.514 249.764 350.739C249.705 351.064 249.664 351.392 249.641 351.721C249.6 352.411 249.598 353.102 249.635 353.791Z" fill="url(#paint30_linear_539_2)"/>
<path d="M249.739 355.302C249.905 355.774 250.11 356.23 250.354 356.666C250.213 356.666 250.053 356.666 249.924 356.666C250.502 360.615 251.867 365.369 254.173 368.545C257.948 373.766 264.94 379.988 267.978 380.215C271.015 380.442 290.73 375.651 295.151 365.836C295.594 364.853 296.098 360.922 295.6 356.058C288.319 362.888 279.28 367.636 269.687 370.529C266.613 363.035 263.163 355.118 256.368 350.671C254.966 349.737 253.201 348.976 251.615 349.608C251.158 349.804 250.748 350.093 250.412 350.459C250.076 350.824 249.821 351.257 249.665 351.728C249.53 352.079 249.441 352.446 249.401 352.821C249.33 353.663 249.445 354.51 249.739 355.302Z" fill="url(#paint31_linear_539_2)"/>
<path d="M181.845 377.611V377.906C182.171 379.042 184.834 381.591 185.689 382.113C186.826 382.844 199.358 372.9 201.388 370.504C202.931 368.662 216.047 368.508 216.047 368.508C216.047 368.508 204.364 381.677 203.595 383.864C202.827 386.05 198.953 397.235 198.953 397.235C198.953 397.235 203.724 400.165 204.653 399.803C205.581 399.44 208.017 397.96 208.017 397.96C208.017 397.96 212.223 400.89 212.967 400.343C213.711 399.796 221.09 390.645 222.018 390.122C222.947 389.6 232.472 386.67 232.472 386.67V386.701C232.251 387.272 229.244 391.615 228.869 392.843C228.524 393.98 225.284 401.817 224.521 404.164C224.429 404.458 224.386 404.612 224.386 404.612C224.386 404.612 228.075 406.08 229.367 405.902C230.658 405.724 237.361 395.595 237.361 395.595C237.361 395.595 249.29 389.987 250.772 389.625C252.254 389.263 263.827 384.521 265.161 381.597C266.496 378.673 265.709 370.252 265.709 370.252C265.53 369.743 265.34 369.239 265.094 368.747C261.005 359.313 250.569 352.999 250.569 352.999C250.569 352.999 213.932 350.751 211.522 351.476C209.111 352.2 195.429 362.065 194.488 363.342C193.547 364.62 182.042 376.696 181.845 377.611Z" fill="url(#paint32_linear_539_2)"/>
<path d="M224.343 404.612C224.343 404.612 228.032 406.08 229.324 405.902C230.615 405.724 237.318 395.595 237.318 395.595C237.318 395.595 249.247 389.987 250.729 389.625C252.211 389.263 263.784 384.521 265.118 381.597C266.453 378.673 265.666 370.252 265.666 370.252C265.487 369.743 265.297 369.239 265.051 368.748L264.78 368.52C265.53 372.636 264.325 379.546 260.187 381.744C255.931 384.029 250.44 383.36 246.326 385.835C244.236 387.1 237.607 391.455 235.707 393.82C235.707 393.82 230.676 403.033 229.404 403.691C228.463 404.151 225.757 404.176 224.453 404.157C224.386 404.458 224.343 404.612 224.343 404.612Z" fill="url(#paint33_linear_539_2)"/>
<path d="M198.953 397.235C198.953 397.235 203.724 400.165 204.653 399.803C205.581 399.44 208.017 397.96 208.017 397.96C208.017 397.96 212.223 400.89 212.967 400.343C213.711 399.796 221.09 390.645 222.018 390.122C222.947 389.6 232.472 386.671 232.472 386.671L237.834 374.57C237.496 375.148 234.809 379.705 232.736 380.713C230.517 381.787 221.988 383.95 220.856 385.356C219.725 386.763 213.926 396.074 213.274 396.86C212.622 397.647 211.528 398.703 211.528 398.703L208.865 397.29C208.865 397.29 213.784 385.473 214.578 384.392C215.371 383.311 229.194 367.838 230.068 366.874C229.072 367.74 213.323 381.751 212.407 382.365C211.491 382.979 208.183 390.915 207.371 392.807C206.559 394.698 204.604 398.236 204.604 398.236L198.953 397.235Z" fill="url(#paint34_linear_539_2)"/>
<path d="M181.845 377.611V377.906C182.171 379.042 184.834 381.591 185.689 382.113C186.826 382.844 199.358 372.9 201.388 370.504C202.931 368.662 216.047 368.508 216.047 368.508L219.786 360.327C219.786 360.327 204.622 364.344 203.023 365.591C201.424 366.837 186.42 380.498 185.953 380.805C185.486 381.112 181.845 377.611 181.845 377.611Z" fill="url(#paint35_linear_539_2)"/>
<path style="mix-blend-mode:screen" d="M241.905 374.638C240.94 374.171 239.833 373.987 238.953 373.41C237.49 372.421 236.967 370.572 236.057 369.073C235.147 367.574 233.155 366.297 231.666 367.28C231.331 365.938 230.697 364.69 229.812 363.627C228.928 362.563 227.815 361.713 226.556 361.137C225.579 360.695 224.521 360.425 223.586 359.909C221.028 358.459 220.229 355.566 218.157 353.687C216.927 352.563 213.588 351.605 211.94 351.525C214.781 351.615 217.609 351.82 220.426 352.139C221.656 352.286 222.965 352.501 223.845 353.368C225.075 354.559 225.019 356.531 224.865 358.281C226.63 358.036 228.512 357.814 230.123 358.539C231.734 359.264 232.122 360.634 232.386 362.169C232.49 362.747 232.97 365.818 232.189 365.996C233.905 365.609 235.473 365.996 237.195 365.996C238.209 365.996 239.353 366.143 239.925 366.96C240.497 367.777 240.687 372.169 239.925 373.102C241.702 372.556 244.469 373.195 246.234 373.674C246.709 373.779 247.154 373.991 247.535 374.295C247.915 374.598 248.221 374.984 248.429 375.424C248.798 376.339 248.558 377.371 248.319 378.336C248.134 379.048 247.956 379.754 247.778 380.467C247.728 380.657 247.661 380.872 247.476 380.946C247.292 381.02 246.978 380.799 246.824 380.577C245.398 378.52 244.217 375.756 241.905 374.638Z" fill="url(#paint36_linear_539_2)"/>
<path d="M82.117 284.63C82.2215 286.018 82.3445 287.437 82.4613 288.887C83.6804 290.207 85.0025 291.429 86.4153 292.541C88.2282 294.014 90.1711 295.319 92.2202 296.441C93.0134 296.884 93.6591 297.222 94.1265 297.43C94.4647 297.584 94.686 297.701 94.7844 297.744C94.7045 297.682 94.5077 297.541 94.1695 297.32C93.7514 297.05 93.1733 296.613 92.4539 296.091C88.3382 292.932 84.8351 289.047 82.117 284.63Z" fill="url(#paint37_linear_539_2)"/>
<path d="M84.0724 307.221C84.1892 308.578 84.2999 309.905 84.4229 311.14C87.4108 314.038 90.8657 316.414 94.643 318.166C95.4916 318.535 96.168 318.83 96.6599 319.002L97.3978 319.284L96.703 318.891C96.2541 318.652 95.633 318.277 94.8582 317.773C92.9175 316.51 91.0978 315.071 89.4223 313.474C87.4641 311.623 85.7003 309.577 84.1585 307.368L84.0724 307.221Z" fill="url(#paint38_linear_539_2)"/>
<path d="M86.0402 325.949C86.2492 327.177 86.4829 328.59 86.7289 330.052C88.5155 331.657 90.4325 333.112 92.46 334.4C94.8038 335.893 97.2875 337.154 99.876 338.165C100.878 338.546 101.721 338.841 102.274 339.025L103.178 339.308L102.317 338.915C101.782 338.657 101.007 338.264 100.067 337.772C97.6757 336.479 95.4111 334.966 93.3024 333.252C90.8125 331.268 88.5446 329.021 86.5383 326.551L86.0402 325.949Z" fill="url(#paint39_linear_539_2)"/>
<path d="M88.3523 346.464C89.3542 347.615 90.4482 348.683 91.6237 349.658C93.1107 350.935 94.7005 352.087 96.377 353.103C97.6561 353.877 98.4985 354.332 98.4985 354.332C98.4985 354.332 97.7545 353.773 96.6538 352.784C95.2283 351.523 93.8966 350.16 92.669 348.706C91.126 346.899 89.753 344.954 88.5675 342.895C88.4937 343.737 88.4322 344.971 88.3523 346.464Z" fill="url(#paint40_linear_539_2)"/>
<path d="M126.613 116.905C127.57 121.267 128.908 125.538 130.61 129.668C134.828 139.87 141.433 148.985 150.81 154.606C151.136 154.821 151.456 155.017 151.794 155.22C166.724 163.641 184.748 161.497 200.57 156.448C232.195 146.43 253.14 110.744 247.987 79.0564C247.882 78.3807 247.765 77.7051 247.636 77.0479C244.051 59.0021 233.671 43.5605 216.355 36.2575C200.982 29.7713 182.835 26.0982 166.196 29.974C165.741 30.0723 165.298 30.1828 164.837 30.2995C154.357 32.9753 145.122 39.1798 138.69 47.8662C137.645 49.2298 136.685 50.6302 135.769 52.0921C124.147 70.6661 122.167 96.7521 126.613 116.905Z" fill="url(#paint41_linear_539_2)"/>
<g style="mix-blend-mode:multiply">
<path d="M138.69 47.8662C138.93 47.9092 139.157 47.9399 139.385 47.9645C161.59 50.8145 184.176 48.3392 206.51 45.8762C208.644 45.6366 211.356 44.8565 211.558 42.7375C211.694 41.2326 210.39 40.0349 209.166 39.1504C197.538 30.6742 181.562 28.1743 166.189 29.9863C165.734 30.0845 165.292 30.1951 164.83 30.3118C154.355 32.9856 145.122 39.1855 138.69 47.8662Z" fill="#819968"/>
</g>
<path d="M127.978 119.773C128.915 124.437 130.235 129.017 131.926 133.464C132.326 133.421 138.29 120.688 141.094 115.75C148.424 114.933 163.379 115.437 167.032 116.057C167.302 116.096 167.564 116.172 167.813 116.284C169.246 117.144 176.723 121.812 179.656 124.048C182.971 126.611 186.595 128.749 190.442 130.411C191.305 130.824 192.247 131.046 193.203 131.062C194.252 131.025 195.269 130.698 196.142 130.117C214.27 119.134 229.379 102.477 239.046 82.8768C239.236 82.4837 239.427 82.0599 239.605 81.6484C240.786 78.866 241.518 75.6106 239.82 73.3318C228.475 58.0254 210.304 50.4398 192.853 46.1648C177.479 42.4058 160.76 41.3616 145.473 46.6071C142.611 47.5926 139.837 48.8129 137.177 50.2556C136.698 51.0725 136.243 51.9139 135.788 52.7554C134.277 55.6065 132.965 58.5576 131.858 61.5879C128.448 71.0475 126.465 80.9608 125.973 91.003C125.409 100.639 126.083 110.308 127.978 119.773Z" fill="url(#paint42_linear_539_2)"/>
<path d="M167.063 116.088C167.332 116.127 167.595 116.203 167.844 116.315C169.276 117.175 176.754 121.843 179.687 124.079C183.002 126.642 186.626 128.779 190.473 130.442C191.336 130.855 192.277 131.077 193.234 131.093L190.411 123.108L169.141 112.298L167.063 116.088Z" fill="url(#paint43_linear_539_2)"/>
<path d="M131.889 61.5818C158.152 53.6891 186.888 56.1521 213.526 62.8102C220.137 64.4502 226.87 66.4403 232.22 70.5986C234.837 72.6221 236.959 75.2141 238.425 78.178C238.899 79.3172 239.31 80.4819 239.654 81.6668C240.835 78.8844 241.567 75.629 239.87 73.3503C228.524 58.0439 210.353 50.4583 192.902 46.1833C177.529 42.4242 160.809 41.3801 145.522 46.6255C142.661 47.611 139.886 48.8313 137.226 50.274C136.747 51.0909 136.292 51.9324 135.837 52.7739C134.321 55.6165 133.002 58.5594 131.889 61.5818Z" fill="url(#paint44_linear_539_2)"/>
<path d="M126.613 116.905C127.57 121.267 128.908 125.538 130.61 129.668C131.026 129.629 131.427 129.49 131.778 129.263C132.41 128.792 132.925 128.182 133.285 127.482C136.083 122.875 138.954 118.231 141.752 113.631C149.906 112.771 167.745 113.483 168.729 114.153C170.168 114.958 175.389 118.84 178.328 120.909C181.673 123.31 185.294 125.302 189.114 126.843C191.26 127.69 192.803 127.69 194.814 126.56C213.01 116.254 227.885 100.976 237.693 82.5206C239.156 79.7136 240.405 76.0651 238.455 73.6144C227.098 59.3522 208.939 52.2702 191.463 48.2778C176.09 44.7706 159.364 43.8001 144.114 48.6893C141.264 49.6016 138.493 50.7395 135.824 52.0921C135.339 52.8476 134.89 53.6338 134.435 54.42C128.476 64.9477 125.395 77.5823 124.664 90.0817C124.081 99.0697 124.737 108.095 126.613 116.905Z" fill="url(#paint45_linear_539_2)"/>
<mask id="mask0_539_2" style="mask-type:luminance" maskUnits="userSpaceOnUse" x="124" y="44" width="116" height="85">
<path d="M126.779 115.904C127.736 120.266 129.074 124.537 130.776 128.667C131.194 128.633 131.596 128.494 131.944 128.262C132.579 127.793 133.094 127.183 133.451 126.48C136.249 121.88 139.12 117.23 141.918 112.63C150.072 111.77 167.911 112.488 168.895 113.158C170.334 113.956 175.555 117.844 178.494 119.914C181.842 122.32 185.465 124.318 189.286 125.866C191.432 126.708 192.975 126.714 194.986 125.577C213.172 115.268 228.037 99.993 237.84 81.544C239.304 78.737 240.552 75.0824 238.603 72.6378C227.239 58.351 209.068 51.269 191.61 47.295C176.237 43.7817 159.511 42.8112 144.23 47.7065C141.381 48.6167 138.609 49.7526 135.941 51.1032C135.455 51.8587 135.007 52.6449 134.551 53.4311C128.593 63.9588 125.512 76.5934 124.78 89.0989C124.215 98.083 124.887 107.102 126.779 115.904Z" fill="white"/>
</mask>
<g mask="url(#mask0_539_2)">
<path d="M220.801 119.693C218.956 121.935 212.807 125.516 211.515 124.754C210.525 124.183 209.271 121.02 208.736 119.54L208.65 119.276L208.484 118.79L203.417 150.84L154.118 172.989L154.161 172.492L154.192 172.025L154.278 170.938C154.629 166.835 155.397 157.48 155.742 150.834C155.975 146.83 156.049 143.82 155.803 143.605C155.041 142.935 143.05 138.396 141.66 136.173C140.27 133.949 141.771 101.813 142.89 98.951C143.831 96.5863 147.268 93.3248 148.707 90.7143C149.004 90.2307 149.212 89.6983 149.322 89.1419C149.759 86.4086 150.14 68.9095 151.167 65.2303C152.194 61.5511 164.695 44.3468 164.695 44.3468C176.582 45.3234 193.203 48.4682 202.611 54.7885C204.08 55.7317 205.424 56.8542 206.614 58.1299C208.171 59.7524 209.237 61.7817 209.689 63.9834C212.001 76.5995 210.458 100.327 210.458 100.327C210.458 100.327 211.073 99.4547 212.013 98.2508C214.178 95.5052 217.991 91.0521 219.823 91.304C222.473 91.6479 228.395 98.6746 228.469 102.096C228.543 105.517 222.633 117.451 220.801 119.693Z" fill="url(#paint46_linear_539_2)"/>
<path d="M176.2 86.7833C176.2 86.7833 175.333 89.3139 182.897 89.9773C190.934 90.6775 194.045 86.9061 194.045 86.9061C194.045 86.9061 187.078 89.0129 176.2 86.7833Z" fill="#EC7C82"/>
<path fill-rule="evenodd" clip-rule="evenodd" d="M152.372 62.6505C152.372 62.6505 155.975 64.2844 157.082 66.4526C158.189 68.6208 158.595 71.8086 158.38 72.214C158.165 72.6193 154.075 69.0016 152.366 68.7743C152.153 68.7301 151.934 68.7314 151.722 68.7781C151.509 68.8248 151.31 68.9159 151.135 69.0453C150.961 69.1747 150.816 69.3395 150.71 69.5289C150.604 69.7183 150.54 69.9279 150.521 70.144C150.521 70.144 148.898 64.5792 152.372 62.6505Z" fill="url(#paint47_linear_539_2)"/>
<path fill-rule="evenodd" clip-rule="evenodd" d="M178.494 61.2809C177.787 61.5634 177.965 66.0411 179.89 68.3014C179.89 68.3014 185.984 69.1797 189.077 70.1932C192.17 71.2067 196.358 74.3945 196.647 74.2593C196.936 74.1242 195.128 68.1171 191.297 64.7573C188.21 62.0363 179.976 60.6789 178.494 61.2809Z" fill="url(#paint48_linear_539_2)"/>
<path d="M194.033 86.9184C194.033 87.3914 192.065 88.3987 189.815 88.9761C188.855 89.2495 187.866 89.4103 186.869 89.4552C186.808 89.4552 186.746 89.4552 186.685 89.4552C185.754 89.4521 184.825 89.3782 183.905 89.234C182.811 89.0682 181.63 88.8225 180.542 88.5584C178.199 87.9933 176.237 87.2808 176.176 86.7771C175.997 84.5537 177.781 77.1032 183.34 77.4717C190.344 77.9324 194.033 86.2059 194.033 86.9184Z" fill="#FFEBED"/>
<path d="M159.136 86.8263C159.117 87.0146 159.059 87.1968 158.964 87.3607C158.778 87.786 158.496 88.1624 158.14 88.4601C156.955 89.4389 155.591 90.1794 154.125 90.6406C153.641 90.8057 153.148 90.9431 152.649 91.0521C152.192 91.1857 151.716 91.2398 151.241 91.2118C149.943 90.9477 150.724 80.7332 152.87 78.8844C154.137 77.7911 156.234 79.861 157.654 82.2811C158.253 83.2637 158.703 84.3297 158.989 85.4443C159.119 85.8927 159.169 86.3606 159.136 86.8263Z" fill="#FFEBED"/>
<path d="M150.626 87.6187C150.626 87.6187 150.232 91.6049 151.031 92.084C151.831 92.5631 157.617 89.6763 158.367 88.2452C158.367 88.2452 154.936 91.218 151.763 91.0706C150.306 91.003 150.626 87.6187 150.626 87.6187Z" fill="#EC7C82"/>
<path d="M190.725 86.9491C190.576 87.6808 190.272 88.372 189.833 88.9761C188.873 89.2495 187.885 89.4103 186.888 89.4552C186.826 89.4552 186.765 89.4552 186.703 89.4552C185.772 89.4521 184.843 89.3782 183.924 89.234C182.829 89.0682 181.649 88.8225 180.56 88.5584C179.887 87.4011 179.667 86.0352 179.945 84.7257C180.35 83.4106 181.23 82.2935 182.415 81.5925C183.601 80.8915 185.005 80.6571 186.354 80.935C187.702 81.2129 188.899 81.9832 189.71 83.0953C190.52 84.2075 190.887 85.5816 190.737 86.9491H190.725Z" fill="#704061"/>
<path d="M189.347 86.6666C189.218 87.3059 188.923 87.9 188.491 88.3895C188.059 88.8789 187.506 89.2464 186.888 89.4552C186.826 89.4552 186.765 89.4552 186.703 89.4552C185.772 89.4521 184.843 89.3782 183.924 89.234C183.305 88.9103 182.789 88.4207 182.433 87.8202C182.078 87.2197 181.897 86.5321 181.911 85.8346C181.925 85.1371 182.133 84.4574 182.513 83.8716C182.892 83.2858 183.427 82.8172 184.058 82.5184C184.689 82.2197 185.391 82.1025 186.086 82.1802C186.78 82.2578 187.438 82.5272 187.988 82.958C188.537 83.3889 188.955 83.9641 189.195 84.6192C189.436 85.2743 189.488 85.9833 189.347 86.6666Z" fill="#4A2039"/>
<path d="M158.982 87.3607C158.797 87.786 158.515 88.1624 158.158 88.4601C156.973 89.4389 155.61 90.1794 154.143 90.6406C153.659 90.8057 153.167 90.9431 152.667 91.0521C152.373 89.752 152.373 88.4028 152.667 87.1027C153.331 83.9026 155.262 81.5747 156.972 81.9494C157.236 82.001 157.485 82.1147 157.697 82.2811C158.296 83.2637 158.746 84.3297 159.032 85.4443C159.104 86.0823 159.088 86.7272 158.982 87.3607Z" fill="#704061"/>
<path d="M158.189 88.2451L158.14 88.4601C156.955 89.4389 155.591 90.1793 154.125 90.6406C153.778 89.5871 153.729 88.4585 153.983 87.3791C154.426 85.217 155.723 83.6262 156.879 83.8596C158.035 84.093 158.632 86.0892 158.189 88.2451Z" fill="#4A2039"/>
<path d="M181.544 82.8216C181.011 82.8216 180.579 82.3898 180.579 81.8572C180.579 81.3247 181.011 80.8929 181.544 80.8929C182.077 80.8929 182.509 81.3247 182.509 81.8572C182.509 82.3898 182.077 82.8216 181.544 82.8216Z" fill="white"/>
<path d="M177.215 82.0108C177.215 82.0108 178.746 76.6487 183.579 76.7408C188.413 76.8329 192.422 83.4972 192.422 83.4972C192.422 83.4972 182.583 76.7777 177.215 82.0108Z" fill="#EC7C82"/>
<path d="M177.215 82.0108C177.215 82.0108 178.648 79.4864 182.958 79.7443C187.269 80.0023 192.588 81.9248 193.412 85.3583C193.412 85.3583 189.624 81.2123 184.151 80.4445C178.678 79.6768 177.215 82.0108 177.215 82.0108Z" fill="#702039"/>
<path d="M158.982 85.4443C158.982 85.4443 157.095 78.3132 154.174 78.2702C152.157 78.2702 151.511 81.63 151.511 81.63C151.511 81.63 155.908 80.033 158.982 85.4443Z" fill="#EC7C82"/>
<path d="M158.853 84.9406C158.853 84.9406 156.228 80.7025 153.11 80.248C149.992 79.7935 150.681 86.6605 150.681 86.6605C150.681 86.6605 151.05 82.0599 153.251 81.6853C155.809 81.243 158.853 84.9406 158.853 84.9406Z" fill="#702039"/>
<path d="M150.011 94.5409C152.815 94.0611 155.686 94.1257 158.466 94.7313C163.109 95.7387 166.872 96.574 168.92 96.4512C168.191 97.3705 167.275 98.1243 166.232 98.6624C166.232 98.6624 162.088 98.0481 162.543 99.8908C162.543 99.8908 160.766 101.463 157.334 101.119C153.903 100.775 150.041 97.2128 150.011 94.5409Z" fill="#CB5F7D"/>
<path d="M162.543 99.8846C163.018 99.405 163.6 99.0439 164.241 98.8305C164.882 98.6171 165.564 98.5574 166.232 98.6562C166.232 98.6562 161.953 96.4327 162.543 99.8846Z" fill="#9F4A8B"/>
<path d="M150.011 94.5409C150.011 94.5409 154.487 89.7991 159.61 88.497C164.732 87.1948 164.941 96.058 164.941 96.058C164.941 96.058 160.766 95.106 157.125 94.4856C154.766 94.1242 152.364 94.1429 150.011 94.5409Z" fill="#FFBCAF"/>
<path d="M151.259 109.239C151.259 109.239 151.259 110.529 152.354 110.762C153.448 110.996 164.837 111.573 169.387 110.222C172.268 109.276 174.815 107.521 176.723 105.167L177.203 105.265C177.203 105.265 172.062 110.179 168.969 111.291C165.876 112.402 154.918 112.851 152.796 112.077C152.223 111.894 151.742 111.496 151.456 110.967C151.169 110.438 151.099 109.819 151.259 109.239Z" fill="#CB5F7D"/>
<path style="mix-blend-mode:multiply" opacity="0.6" d="M175.438 102.575C175.438 102.575 179.742 103.994 180.425 107.427C180.425 107.427 176.366 106.463 174.841 107.427C175.657 105.947 175.871 104.209 175.438 102.575Z" fill="url(#paint49_linear_539_2)"/>
<path style="mix-blend-mode:multiply" opacity="0.6" d="M208.472 118.766L203.405 150.816L154.106 172.965C154.106 172.965 156.566 144.274 155.791 143.58C155.016 142.886 143.037 138.372 141.648 136.148C156.83 141.013 177.928 137.991 177.928 137.991C180.273 132.386 182.942 126.923 185.922 121.628C190.811 112.955 203.755 95.4622 203.755 95.4622C203.048 90.573 198.338 88.4478 198.338 88.4478C184.766 90.2352 175.186 93.251 172.726 88.282C170.266 83.3129 175.432 64.9416 175.432 64.9416C165.101 60.5008 158.312 66.385 158.312 66.385C158.312 66.385 160.298 83.964 159.13 86.8386C157.962 89.7131 151.696 92.9808 150.392 92.6491C149.088 92.3174 148.701 90.702 148.701 90.702C148.998 90.2184 149.206 89.686 149.316 89.1296C149.752 86.3963 150.134 68.8972 151.161 65.218C152.188 61.5388 164.689 44.3345 164.689 44.3345C176.575 45.3111 193.197 48.4559 202.605 54.7762L206.578 58.1053L213.957 64.3151L216.416 86.427C216.416 86.427 214.006 92.0472 212.013 98.2262C210.873 101.527 210.049 104.929 209.554 108.385C208.699 116.192 211.362 124.226 211.528 124.73C210.199 123.974 208.472 118.766 208.472 118.766Z" fill="url(#paint50_linear_539_2)"/>
<path style="mix-blend-mode:multiply" opacity="0.82" d="M212.776 105.486C212.776 105.486 218.925 96.5248 220.911 96.1625C222.898 95.8001 226.538 100.216 227.061 102.919C227.583 105.621 221.846 116.432 221.846 116.432C221.846 116.432 225.702 107.145 225.677 105.376C225.653 103.607 221.563 101.076 220.143 101.328C220.143 101.328 221.926 104.454 221.643 106.291C221.36 108.127 217.523 112.372 217.234 112.366C216.945 112.359 215.15 110.719 215.15 110.719C215.337 109.742 215.395 108.745 215.322 107.753C215.174 106.807 212.776 105.486 212.776 105.486Z" fill="url(#paint51_linear_539_2)"/>
<path style="mix-blend-mode:multiply" opacity="0.6" d="M203.405 150.816L154.106 172.965L154.149 172.467L154.18 172L154.266 170.913L155.729 150.81C155.963 146.805 156.037 143.795 155.791 143.58C155.028 142.911 143.037 138.372 141.648 136.148C160.095 141.111 177.928 137.991 177.928 137.991C177.928 137.991 195.687 137.414 198.073 135.184C200.459 132.954 208.447 118.778 208.447 118.778L203.405 150.816Z" fill="url(#paint52_linear_539_2)"/>
<path fill-rule="evenodd" clip-rule="evenodd" d="M217.597 92.2437C215.992 96.1502 210.421 100.302 210.421 100.302C210.808 90.2905 206.854 73.7188 206.854 73.7188C206.854 73.7188 207.469 67.6442 206.657 63.9773C205.846 60.3104 190.116 50.1082 185.043 48.4068C179.97 46.7054 167.936 48.505 167.936 48.505L164.695 46.0482L155.188 58.0685L153.233 38.2598L145.54 36.0425C155.01 32.1606 170.137 34.6482 170.137 34.6482L168.114 30.0968C168.477 30.146 168.809 30.2197 169.159 30.2872C180.929 32.4984 184.194 36.239 184.194 36.239C189.113 36.0128 194.04 36.0641 198.952 36.3926C198.952 36.3926 207.088 52.565 212.05 56.6987C217.013 60.8324 223.623 66.4526 224.269 70.8258C224.915 75.1991 217.597 92.2437 217.597 92.2437Z" fill="url(#paint53_linear_539_2)"/>
<path style="mix-blend-mode:multiply" opacity="0.6" d="M151.259 109.239C151.374 109.46 151.56 109.635 151.788 109.737C152.151 109.878 151.985 108.809 160.612 109.166C169.239 109.522 169.793 109.411 171.17 109.11C172.548 108.809 176.532 105.529 176.532 105.529C176.532 105.529 173.07 109.466 168.95 110.621C164.83 111.776 154.063 111.788 152.477 111.266C152.263 111.213 152.063 111.118 151.886 110.988C151.709 110.857 151.56 110.693 151.447 110.505C151.334 110.316 151.259 110.108 151.227 109.891C151.195 109.674 151.206 109.452 151.259 109.239Z" fill="url(#paint54_linear_539_2)"/>
<g style="mix-blend-mode:multiply" opacity="0.5">
<path d="M217.597 92.2437C215.992 96.1502 210.421 100.302 210.421 100.302C210.808 90.2905 206.854 73.7188 206.854 73.7188C206.854 73.7188 207.469 67.6442 206.658 63.9773C205.846 60.3104 190.116 50.1082 185.043 48.4068C179.97 46.7054 167.936 48.505 167.936 48.505L164.695 46.0482L155.188 58.0685L153.233 38.2598L145.54 36.0425C157.368 35.289 169.234 36.7216 180.542 40.2683L170.149 34.6482L168.114 30.0968C168.477 30.146 168.809 30.2197 169.159 30.2872C188.154 34.2674 202.697 55.9862 206.547 59.5856C210.396 63.1849 224.269 70.8688 224.269 70.8688C224.921 75.2298 217.597 92.2437 217.597 92.2437Z" fill="#7A4AC0"/>
</g>
<g style="mix-blend-mode:screen" opacity="0.2">
<path d="M198.952 36.3742C198.952 36.3742 196.191 43.3763 199.174 48.9289C202.156 54.4814 215.389 59.5119 215.389 59.5119C213.117 57.835 211.007 55.9493 209.086 53.8795C205.674 50.274 198.952 36.3742 198.952 36.3742Z" fill="#D6A49E"/>
</g>
<path fill-rule="evenodd" clip-rule="evenodd" d="M202.574 54.764C202.574 54.764 186.654 35.0106 182.159 31.9395C177.664 28.8684 168.114 30.0968 168.114 30.0968C168.114 30.0968 181.323 30.7971 202.574 54.764Z" fill="url(#paint55_linear_539_2)"/>
<path style="mix-blend-mode:screen" opacity="0.33" d="M206.854 73.7065C206.854 73.7065 213.286 84.3756 219.245 87.33L221.526 82.2688C221.526 82.2688 214.473 80.7209 206.854 73.7065Z" fill="url(#paint56_linear_539_2)"/>
<path style="mix-blend-mode:screen" opacity="0.33" d="M222.572 79.1485C222.572 79.1485 216.644 80.1313 207.057 70.0519V67.3678C207.057 67.3678 214.713 74.2655 223.814 74.8858C223.795 74.8858 223.267 78.0798 222.572 79.1485Z" fill="url(#paint57_linear_539_2)"/>
</g>
<path style="mix-blend-mode:screen" d="M126.92 87.3852C127.004 87.5044 127.097 87.6173 127.197 87.7231C128.015 88.5523 129.509 88.5891 130.665 88.6874C133.414 88.9085 136.2 88.5707 138.936 88.7734L149.759 89.578C168.766 89.578 187.995 95.2411 206.498 98.7913C211.368 99.7311 216.447 100.671 221.256 99.4055C229.17 97.3356 233.837 86.1261 235.497 78.909C237.379 70.746 229.385 67.0545 223.5 63.4429C207.623 53.7321 188.831 50.3661 170.352 48.9719C169.571 48.9104 168.791 48.8551 168.003 48.806C162.222 48.3492 156.411 48.4274 150.644 49.0394C147.7 49.3816 144.791 49.9755 141.949 50.8145C139.545 51.5332 136.316 52.3194 134.804 54.4998C133.002 57.1164 132.196 60.6912 131.151 63.6517C129.472 68.3935 127.677 73.1783 126.705 78.1105C126.164 80.9175 125.162 84.8976 126.92 87.3852Z" fill="url(#paint58_linear_539_2)"/>
<path d="M133.961 69.9721C130.302 65.39 138.315 58.7564 141.703 56.6373C146.721 53.4986 153.59 51.7604 158.823 55.3475C163.564 58.5967 160.606 63.6579 157.414 66.8395C153.258 70.9732 145.528 72.8405 139.92 72.4781C137.964 72.3552 135.929 71.8639 134.496 70.5433C134.303 70.3669 134.125 70.1759 133.961 69.9721Z" fill="#FBFFD1"/>
<path d="M85.8065 23.8256L88.051 26.6081L105.091 47.682C105.091 47.682 120.015 40.2745 121.079 41.5828C122.142 42.8911 135.093 49.2667 141.07 48.8429C147.047 48.419 160.409 41.4722 160.409 41.4722C160.409 41.4722 169.018 41.2634 175.229 41.4722C181.44 41.681 191.149 39.9674 192.49 39.7462C193.83 39.5251 191.02 36.239 191.02 36.239L195.214 36.0363C196.383 35.9754 197.543 35.7943 198.676 35.4958C199.949 35.1893 201.175 34.7142 202.322 34.0831C202.322 34.0831 201.707 29.7099 200.416 28.6166C199.125 27.5232 190.085 25.0971 190.085 25.0971C190.085 25.0971 187.54 18.7583 186.23 17.2228C185.264 16.0987 170.469 13.39 162.807 12.0449C160.083 11.5781 158.257 11.2771 158.257 11.2771C158.257 11.2771 168.206 9.74769 173.968 8.72194C176.317 8.28584 177.971 7.94188 177.977 7.81289C177.977 7.3768 176.748 3.43964 173.876 1.90409C171.004 0.368534 134.465 5.9948 134.465 5.9948C134.465 5.9948 110.563 8.15071 102.803 10.2943C95.0427 12.438 85.8065 23.8256 85.8065 23.8256Z" fill="url(#paint59_linear_539_2)"/>
<path d="M200.416 28.6166C199.112 27.5171 190.085 25.0971 190.085 25.0971L186.297 28.2542L195.601 29.2124L198.676 35.4836C199.949 35.177 201.175 34.7019 202.322 34.0708C202.322 34.0708 201.732 29.7099 200.416 28.6166Z" fill="url(#paint60_linear_539_2)"/>
<path d="M162.807 12.0449L157.365 14.858L180.905 19.6059L184.809 26.5773L190.091 25.0971C190.091 25.0971 187.546 18.7583 186.236 17.2227C185.264 16.0987 170.469 13.39 162.807 12.0449Z" fill="url(#paint61_linear_539_2)"/>
<path d="M85.8065 23.8256L88.051 26.6081L97.3794 28.678L104.758 20.601L108.343 23.0579C107.997 21.8284 107.423 20.6743 106.652 19.6551C105.533 18.3345 104.254 14.5632 104.254 14.5632C104.254 14.5632 108.559 18.9119 110.256 20.7975C111.953 22.6832 112.783 29.2738 112.783 29.2738C112.783 29.2738 113.078 22.8736 111.018 19.6551C109.106 16.6454 106.862 13.82 106.585 13.4699C107.372 13.8753 123.803 22.4621 127.572 20.6255C131.342 18.789 138.985 9.34844 138.985 9.34844L171.625 3.96787L173.968 8.72194C176.317 8.28584 177.971 7.94188 177.977 7.81289C177.977 7.3768 176.748 3.43964 173.876 1.90409C171.004 0.368534 134.465 5.9948 134.465 5.9948C134.465 5.9948 110.563 8.15071 102.803 10.2943C95.0427 12.438 85.8065 23.8256 85.8065 23.8256Z" fill="url(#paint62_linear_539_2)"/>
<path d="M70.1505 63.5657C72.4611 65.1295 75.0237 66.2847 77.7264 66.9808C84.4352 68.8235 91.433 68.2092 93.5299 66.0103C96.1434 63.3016 106.142 51.7297 108.233 48.8121C108.396 48.6159 108.525 48.3937 108.614 48.1549C108.257 42.6884 108.38 34.7281 100.515 28.7025C92.214 22.3515 83.3714 22.9841 80.7149 22.978C78.0584 22.9719 58.1595 38.0141 57.231 41.073C56.3024 44.1318 62.2795 58.0869 70.1505 63.5657Z" fill="url(#paint63_linear_539_2)"/>
<path d="M61.2095 47.4424C65.8276 54.6534 70.6732 62.0916 77.7264 66.9808C84.4352 68.8235 91.433 68.2092 93.5299 66.0103C96.1434 63.3016 106.142 51.7297 108.233 48.8121C108.278 42.8738 106.264 37.1029 102.532 32.48C99.052 37.9711 94.2248 43.0753 89.4407 47.4916C82.5043 42.8849 73.3789 38.8925 64.7515 39.0767C62.9436 39.1136 60.9082 39.519 59.9428 41.0361C58.6883 42.9955 59.9797 45.5015 61.2095 47.4424Z" fill="url(#paint64_linear_539_2)"/>
<path d="M12.6859 131.038C14.6901 135.706 17.0309 140.222 19.6898 144.551C23.57 150.933 28.9814 158.389 35.7332 164.058C50.3623 176.38 74.8055 186.883 74.8055 186.883C77.7574 190.218 80.3006 193.892 82.3814 197.828C83.8528 190.888 85.7379 184.042 88.0264 177.326L88.2477 176.65C93.0564 162.627 99.0274 150.558 103.891 143.795C105.472 141.603 107.347 139.09 109.5 137.45C106.739 137.377 103.987 137.125 101.26 136.695C99.1626 136.228 91.021 128.851 87.1163 126.02C86.6959 125.699 86.2541 125.408 85.7942 125.148C83.5313 123.919 63.9582 116.978 55.7305 114.092L52.1148 112.808C52.1148 112.808 59.3402 105.867 61.2649 102.624C65.1696 96.0949 85.8065 57.3682 85.8065 57.3682C85.8065 57.3682 86.4952 50.5442 81.2437 46.4781C81.0593 46.3368 80.8625 46.1833 80.6657 46.042C79.9288 45.5501 79.1413 45.1383 78.3167 44.8136C69.8984 41.3985 65.5816 46.6562 65.5816 46.6562L64.8929 47.2704C61.4616 50.4275 46.2115 64.2782 41.7226 67.2818C35.475 71.4523 27.7208 78.7431 18.8597 86.3226C11.5729 92.5324 2.76099 105.646 2.17681 109.331C1.59264 113.017 12.6859 131.038 12.6859 131.038Z" fill="url(#paint65_linear_539_2)"/>
<path d="M21.9712 115.713L22.0696 115.996C26.4294 129.797 37.8424 140.657 49.1816 150.558C60.1888 160.201 75.8078 170.932 88.0264 177.313L88.2477 176.638C76.0845 170.268 60.5762 159.611 49.6612 150.036C38.4881 140.208 27.2165 129.558 22.8321 116.069C25.8737 114.61 29.1874 113.802 32.5602 113.698H33.3289L24.8491 104.172C37.9838 84.4431 56.1487 68.5471 73.6925 53.1363C76.2137 50.9189 78.7472 48.7016 81.2561 46.4904L80.7826 45.9683L80.678 46.0543C78.2183 48.2409 75.7361 50.4275 73.2313 52.6142C55.5707 68.0925 37.3074 84.1053 24.0989 104.012L23.9512 104.239L31.8038 113.017C28.4787 113.215 25.2273 114.078 22.2418 115.553L21.9712 115.713Z" fill="#6D798C"/>
<g style="mix-blend-mode:multiply">
<path d="M34.0668 161.903C45.2338 172.958 60.2626 180.618 74.8055 186.871C77.7574 190.205 80.3007 193.88 82.3814 197.816C87.0733 175.446 96.6907 153.783 103.904 143.765C105.484 141.572 107.36 139.06 109.512 137.42C106.752 137.347 103.999 137.094 101.272 136.664C99.175 136.197 91.0334 128.821 87.1286 125.989C90.3939 137.714 87.6697 149.649 84.5521 161.165C83.3899 165.465 80.7211 167.781 76.1153 168.536C71.5095 169.292 61.929 166.847 59.2234 162.799L66.6947 173.984C55.0514 172.444 43.902 168.315 34.0668 161.903Z" fill="#819968"/>
</g>
<path d="M144.224 14.7413C144.224 14.7413 143.025 23.451 141.931 25.4042C140.836 27.3574 131.926 33.1679 131.926 33.1679C131.926 33.1679 142.189 37.8422 143.24 38.4441C144.292 39.046 152.79 40.1148 152.79 40.1148L144.796 37.5473C144.796 37.5473 139.686 33.6286 140.32 32.1299C140.953 30.6312 144.206 26.6019 144.396 24.0222C144.587 21.4425 144.224 14.7413 144.224 14.7413Z" fill="url(#paint66_linear_539_2)"/>
<path d="M182.005 28.764C182.005 28.764 166.017 28.8868 164.222 28.8807C162.426 28.8745 152.538 26.0061 152.538 26.0061C152.538 26.0061 160.532 30.3794 161.584 30.5329C162.635 30.6865 182.005 28.764 182.005 28.764Z" fill="url(#paint67_linear_539_2)"/>
<path d="M184.809 35.8275C184.809 35.8275 165.513 35.4958 163.693 35.0413C161.873 34.5868 155.816 33.1986 155.816 33.1986C155.816 33.1986 161.694 36.5154 163.367 36.5216C165.039 36.5277 184.809 35.8275 184.809 35.8275Z" fill="url(#paint68_linear_539_2)"/>
<g style="mix-blend-mode:multiply">
<path d="M41.4152 113.502C46.1358 114.441 50.9747 114.634 55.7552 114.073L52.1394 112.789C52.1394 112.789 59.3648 105.849 61.2895 102.606C65.1697 96.0949 85.8065 57.3682 85.8065 57.3682C85.8065 57.3682 86.7289 48.2286 78.3168 44.8013C69.9046 41.3739 65.5817 46.6439 65.5817 46.6439L64.893 47.2582C66.0236 48.9341 67.0503 50.6777 67.9676 52.479C70.9684 58.6213 71.7801 65.7892 70.8823 72.5579C69.5479 82.5267 64.8438 91.8076 59.4509 100.376C55.3001 106.967 49.2185 114.036 41.4152 113.502Z" fill="#819968"/>
</g>
<g style="mix-blend-mode:multiply">
<path d="M150.81 154.606C151.136 154.821 151.456 155.017 151.794 155.22C166.724 163.641 184.748 161.497 200.57 156.448C232.195 146.43 253.14 110.744 247.987 79.0564C245.693 100.671 234.772 121.53 217.812 135.62C199.42 150.908 174.356 157.855 150.81 154.606Z" fill="#819968"/>
</g>
<g style="mix-blend-mode:multiply">
<path d="M100.565 240.019C123.057 246.222 146.293 249.321 169.627 249.232C157.537 254.859 145.995 259.478 133.088 262.788C122.087 254.982 111.504 247.838 100.565 240.019Z" fill="#819968"/>
</g>
<g style="mix-blend-mode:multiply">
<path d="M153.294 412.511C143.559 409.781 134.08 406.209 124.965 401.836C142.352 404.508 159.863 406.307 177.43 407.229C170.291 410.582 161.178 411.927 153.294 412.511Z" fill="#819968"/>
</g>
<g style="mix-blend-mode:multiply">
<path d="M158.306 421.356L158.269 421.669L157.974 421.282L149.039 484.006H134.232L143.609 422.357L152.944 420.674L136.618 414.532C142.472 415.146 148.535 415.957 154.45 415.914C156.972 415.914 159.567 415.662 162.106 415.428C164 415.256 168.305 415.428 169.873 414.317C165.937 417.093 162.408 420.631 158.072 421.282L158.306 421.356Z" fill="#819968"/>
</g>
<path style="mix-blend-mode:screen" d="M230.16 143.113C232.368 144.843 234.785 146.287 237.355 147.413C241.659 149.329 276.833 158.954 276.833 158.954L292.31 159.458C290.545 156.774 259.166 147.014 235.676 140.018L230.16 143.113Z" fill="url(#paint69_linear_539_2)"/>
<path d="M272.35 266.388C272.35 266.388 266.201 261.185 263.895 258.501C261.49 255.67 251.178 240.019 251.178 240.019C251.178 240.019 263.354 255.338 264.706 256.886C267.622 260.012 270.701 262.983 273.93 265.786L272.35 266.388Z" fill="#F0DCC5"/>
<g clip-path="url(#clip1_539_2)">
<path d="M170.749 217.712L172.494 216.429L172.162 215.782L171.068 216.587L169.94 214.392L169.288 214.873L170.749 217.712ZM172.353 213.418L172.604 213.902L173.508 213.235L173.806 213.814L172.9 214.481L173.219 215.098L174.338 214.275L174.636 214.855L172.865 216.158L171.402 213.318L173.175 212.014L173.473 212.593L172.353 213.418ZM177.197 212.976L175.933 212.192C176.054 212.018 176.128 211.808 176.143 211.592C176.157 211.376 176.113 211.165 176.015 210.989C175.957 210.884 175.88 210.796 175.789 210.728C175.698 210.661 175.595 210.616 175.485 210.597C175.376 210.577 175.264 210.583 175.153 210.614C175.043 210.646 174.938 210.701 174.844 210.779L173.54 211.737L175.01 214.58L175.664 214.1L174.482 211.802L174.903 211.493C174.946 211.46 174.994 211.437 175.044 211.424C175.094 211.412 175.144 211.411 175.193 211.422C175.242 211.432 175.288 211.453 175.328 211.485C175.368 211.516 175.402 211.557 175.428 211.604C175.477 211.703 175.488 211.823 175.46 211.938C175.431 212.053 175.365 212.153 175.275 212.216L174.891 212.499L176.5 213.488L177.197 212.976ZM177.157 209.002C177.962 208.411 178.779 208.679 179.206 209.51C179.633 210.342 179.465 211.335 178.661 211.926C177.856 212.517 177.04 212.25 176.613 211.412C176.186 210.575 176.353 209.587 177.158 208.996M177.445 209.571C177.036 209.87 177.036 210.353 177.319 210.902C177.601 211.451 177.96 211.664 178.369 211.367C178.777 211.07 178.777 210.585 178.495 210.036C178.213 209.487 177.856 209.26 177.445 209.571ZM180.112 208.385L180.049 206.961L180.812 206.401L180.774 208.81L181.346 209.922L180.694 210.402L180.125 209.295L178.416 208.161L179.135 207.634L180.101 208.38L180.112 208.385ZM187.526 218.733L190.101 216.843L189.711 216.085L187.138 217.975L187.526 218.733ZM181.937 207.865L183.713 207.356L182.234 208.442L182.573 209.1L185.144 207.207L184.682 206.306L182.959 206.818L184.133 205.238L183.654 204.308L181.081 206.199L181.418 206.857L182.897 205.77L181.716 207.434L181.937 207.865ZM185.356 209.023L184.915 209.345L185.477 210.435L184.952 210.821L184.392 209.732L183.832 210.142L184.514 211.467L183.989 211.853L182.936 209.807L185.51 207.914L186.563 209.961L186.038 210.347L185.356 209.023ZM185.879 215.532L186.869 217.46L187.457 217.028L186.835 215.822L188.823 214.361L188.452 213.642L185.879 215.532ZM190.928 218.449L189.691 220.804L189.689 220.804L191.467 219.499L191.814 220.173L189.241 222.063L188.783 221.173L189.942 218.718L189.944 218.719L188.187 220.011L187.849 219.355L190.42 217.464L190.928 218.449ZM185.602 214.995L186.369 213.476C186.512 213.605 186.69 213.676 186.878 213.677C187.065 213.679 187.253 213.612 187.413 213.485C187.507 213.41 187.589 213.315 187.654 213.205C187.719 213.096 187.765 212.974 187.789 212.848C187.814 212.721 187.817 212.592 187.798 212.467C187.779 212.342 187.739 212.225 187.679 212.122L186.894 210.593L184.317 212.49L184.688 213.211L186.774 211.681L187.052 212.237C187.077 212.285 187.093 212.338 187.099 212.394C187.105 212.45 187.102 212.507 187.089 212.563C187.076 212.619 187.053 212.672 187.023 212.719C186.993 212.767 186.955 212.807 186.912 212.839C186.869 212.87 186.821 212.892 186.772 212.903C186.723 212.915 186.673 212.915 186.625 212.903C186.578 212.892 186.533 212.87 186.494 212.839C186.455 212.807 186.422 212.766 186.397 212.719L186.128 212.201L185.2 214.224L185.602 214.995Z" fill="white"/>
<path d="M171.108 217.907L188.837 222.076L182.417 209.593L171.108 217.907Z" fill="white"/>
</g>
</g>
<path d="M119 212L90 241" stroke="#44C313" stroke-width="2"/>
<circle cx="124" cy="207" r="7" stroke="#44C313" stroke-width="2"/>
<circle cx="124" cy="207" r="4" fill="#2A2A2A"/>
<defs>
<linearGradient id="paint0_linear_539_2" x1="251.792" y1="25.0329" x2="245.335" y2="513.053" gradientUnits="userSpaceOnUse">
<stop stop-color="#CDF2F1"/>
<stop offset="0.27" stop-color="#A2BBCA"/>
<stop offset="0.88" stop-color="#353268"/>
<stop offset="1" stop-color="#1F1654"/>
</linearGradient>
<linearGradient id="paint1_linear_539_2" x1="378.467" y1="250.411" x2="210.262" y2="263.937" gradientUnits="userSpaceOnUse">
<stop stop-color="#CDF2F1"/>
<stop offset="0.27" stop-color="#A2BBCA"/>
<stop offset="0.88" stop-color="#353268"/>
<stop offset="1" stop-color="#1F1654"/>
</linearGradient>
<linearGradient id="paint2_linear_539_2" x1="79.2377" y1="206.915" x2="373.974" y2="541.139" gradientUnits="userSpaceOnUse">
<stop stop-color="#DDF0C5"/>
<stop offset="0.29" stop-color="#B8B9B5"/>
<stop offset="0.96" stop-color="#308F50"/>
<stop offset="1" stop-color="#278C5C"/>
</linearGradient>
<linearGradient id="paint3_linear_539_2" x1="111.602" y1="306.111" x2="154.36" y2="366.158" gradientUnits="userSpaceOnUse">
<stop stop-color="#F2D998"/>
<stop offset="1"/>
</linearGradient>
<linearGradient id="paint4_linear_539_2" x1="103.435" y1="332.478" x2="157.763" y2="408.77" gradientUnits="userSpaceOnUse">
<stop stop-color="#F2D998"/>
<stop offset="1"/>
</linearGradient>
<linearGradient id="paint5_linear_539_2" x1="120.5" y1="259.806" x2="252.97" y2="391.079" gradientUnits="userSpaceOnUse">
<stop stop-color="#F2D998"/>
<stop offset="1"/>
</linearGradient>
<linearGradient id="paint6_linear_539_2" x1="-34.873" y1="52.4999" x2="226.207" y2="404.22" gradientUnits="userSpaceOnUse">
<stop stop-color="#F0DCC5"/>
<stop offset="0.29" stop-color="#B9B5B5"/>
<stop offset="0.96" stop-color="#30548F"/>
<stop offset="1" stop-color="#274E8C"/>
</linearGradient>
<linearGradient id="paint7_linear_539_2" x1="194.029" y1="96.464" x2="226.699" y2="166.172" gradientUnits="userSpaceOnUse">
<stop stop-color="#50A153"/>
<stop offset="1" stop-color="#0E4714"/>
</linearGradient>
<linearGradient id="paint8_linear_539_2" x1="213.956" y1="136.226" x2="255.992" y2="239.805" gradientUnits="userSpaceOnUse">
<stop stop-color="#3CC142"/>
<stop offset="1" stop-color="#0E471B"/>
</linearGradient>
<linearGradient id="paint9_linear_539_2" x1="107.858" y1="117.193" x2="166.733" y2="289.143" gradientUnits="userSpaceOnUse">
<stop stop-color="#45C13A"/>
<stop offset="1" stop-color="#0E4717"/>
</linearGradient>
<linearGradient id="paint10_linear_539_2" x1="65.6249" y1="88.942" x2="174.417" y2="204.844" gradientUnits="userSpaceOnUse">
<stop stop-color="#50A15D"/>
<stop offset="1" stop-color="#0E4714"/>
</linearGradient>
<linearGradient id="paint11_linear_539_2" x1="65.8787" y1="73.3817" x2="162.108" y2="211.272" gradientUnits="userSpaceOnUse">
<stop stop-color="#52A150"/>
<stop offset="1" stop-color="#0E4721"/>
</linearGradient>
<linearGradient id="paint12_linear_539_2" x1="63.1705" y1="40.9319" x2="151.878" y2="231.17" gradientUnits="userSpaceOnUse">
<stop stop-color="#50A16C"/>
<stop offset="1" stop-color="#0E4717"/>
</linearGradient>
<linearGradient id="paint13_linear_539_2" x1="93.0637" y1="101.237" x2="135.529" y2="178.861" gradientUnits="userSpaceOnUse">
<stop stop-color="#52A150"/>
<stop offset="1" stop-color="#0E4717"/>
</linearGradient>
<linearGradient id="paint14_linear_539_2" x1="181.389" y1="297.641" x2="217.513" y2="318.387" gradientUnits="userSpaceOnUse">
<stop stop-color="#50A158"/>
<stop offset="1" stop-color="#0E4717"/>
</linearGradient>
<linearGradient id="paint15_linear_539_2" x1="169.839" y1="224.769" x2="264.87" y2="412.003" gradientUnits="userSpaceOnUse">
<stop stop-color="#3CB93A"/>
<stop offset="1" stop-color="#0E3E0A"/>
</linearGradient>
<linearGradient id="paint16_linear_539_2" x1="164.225" y1="227.803" x2="197.847" y2="287.435" gradientUnits="userSpaceOnUse">
<stop stop-color="#52A150"/>
<stop offset="1" stop-color="#13470E"/>
</linearGradient>
<linearGradient id="paint17_linear_539_2" x1="193.707" y1="132.024" x2="251.054" y2="193.119" gradientUnits="userSpaceOnUse">
<stop stop-color="#50A162"/>
<stop offset="1" stop-color="#16470E"/>
</linearGradient>
<linearGradient id="paint18_linear_539_2" x1="185.51" y1="127.969" x2="242.863" y2="189.063" gradientUnits="userSpaceOnUse">
<stop stop-color="#50A158"/>
<stop offset="1" stop-color="#0E471E"/>
</linearGradient>
<linearGradient id="paint19_linear_539_2" x1="205.134" y1="134.505" x2="262.481" y2="195.6" gradientUnits="userSpaceOnUse">
<stop stop-color="#5BA150"/>
<stop offset="1" stop-color="#0F470E"/>
</linearGradient>
<linearGradient id="paint20_linear_539_2" x1="89.5082" y1="252.771" x2="93.1101" y2="292.378" gradientUnits="userSpaceOnUse">
<stop stop-color="#50A158"/>
<stop offset="1" stop-color="#0E471B"/>
</linearGradient>
<linearGradient id="paint21_linear_539_2" x1="66.7921" y1="254.169" x2="125.045" y2="430.63" gradientUnits="userSpaceOnUse">
<stop stop-color="#41CA57"/>
<stop offset="1" stop-color="#0E4714"/>
</linearGradient>
<linearGradient id="paint22_linear_539_2" x1="162.5" y1="221" x2="353.329" y2="325.483" gradientUnits="userSpaceOnUse">
<stop stop-color="#DDF0C5"/>
<stop offset="0.478263" stop-color="#B8B9B5"/>
<stop offset="0.875292" stop-color="#308F50"/>
<stop offset="1" stop-color="#278C5C"/>
</linearGradient>
<linearGradient id="paint23_linear_539_2" x1="270.583" y1="172.589" x2="281.52" y2="194.7" gradientUnits="userSpaceOnUse">
<stop stop-color="#CBCBCB"/>
<stop offset="0.49" stop-color="#8B8B8B"/>
<stop offset="1" stop-color="#454545"/>
</linearGradient>
<linearGradient id="paint24_linear_539_2" x1="281.669" y1="183.012" x2="311.914" y2="272.519" gradientUnits="userSpaceOnUse">
<stop stop-color="#4F4F4F"/>
<stop offset="0.49" stop-color="#646464"/>
<stop offset="1" stop-color="#464646"/>
</linearGradient>
<linearGradient id="paint25_linear_539_2" x1="283.23" y1="186.928" x2="308.778" y2="262.542" gradientUnits="userSpaceOnUse">
<stop stop-color="#44B242"/>
<stop offset="1" stop-color="#0F470E"/>
</linearGradient>
<linearGradient id="paint26_linear_539_2" x1="189.241" y1="168.468" x2="184.038" y2="194.572" gradientUnits="userSpaceOnUse">
<stop stop-color="#C8C8C8"/>
<stop offset="0.49" stop-color="#8E8E8E"/>
<stop offset="1" stop-color="#4A4A4A"/>
</linearGradient>
<linearGradient id="paint27_linear_539_2" x1="177.992" y1="181.91" x2="166.859" y2="283.957" gradientUnits="userSpaceOnUse">
<stop stop-color="#D2D2D2"/>
<stop offset="0.49" stop-color="#8F8F8F"/>
<stop offset="1" stop-color="#282828"/>
</linearGradient>
<linearGradient id="paint28_linear_539_2" x1="177.753" y1="186.488" x2="168.349" y2="272.695" gradientUnits="userSpaceOnUse">
<stop stop-color="#56C82E"/>
<stop offset="1" stop-color="#0E471B"/>
</linearGradient>
<linearGradient id="paint29_linear_539_2" x1="255.505" y1="330.629" x2="311.402" y2="416.619" gradientUnits="userSpaceOnUse">
<stop stop-color="#BFBFBF"/>
<stop offset="0.49" stop-color="#555555"/>
<stop offset="1" stop-color="#3A3A3A"/>
</linearGradient>
<linearGradient id="paint30_linear_539_2" x1="240.64" y1="370.981" x2="273.675" y2="327.739" gradientUnits="userSpaceOnUse">
<stop stop-color="#5CAD2B"/>
<stop offset="1"/>
</linearGradient>
<linearGradient id="paint31_linear_539_2" x1="265.382" y1="301.393" x2="273.143" y2="368.416" gradientUnits="userSpaceOnUse">
<stop stop-color="#878787"/>
<stop offset="0.49" stop-color="#646464"/>
<stop offset="1" stop-color="#333333"/>
</linearGradient>
<linearGradient id="paint32_linear_539_2" x1="201.81" y1="349.206" x2="285.264" y2="445.555" gradientUnits="userSpaceOnUse">
<stop stop-color="#A9A9A9"/>
<stop offset="0.49" stop-color="#5B5B5B"/>
<stop offset="1" stop-color="#3C3C3C"/>
</linearGradient>
<linearGradient id="paint33_linear_539_2" x1="236.2" y1="321.004" x2="244.896" y2="392.99" gradientUnits="userSpaceOnUse">
<stop stop-color="#D0D0D0"/>
<stop offset="0.49" stop-color="#323232"/>
<stop offset="1" stop-color="#383838"/>
</linearGradient>
<linearGradient id="paint34_linear_539_2" x1="210.047" y1="324.262" x2="217.53" y2="388.894" gradientUnits="userSpaceOnUse">
<stop stop-color="#D0D0D0"/>
<stop offset="0.49" stop-color="#323232"/>
<stop offset="1" stop-color="#383838"/>
</linearGradient>
<linearGradient id="paint35_linear_539_2" x1="192.672" y1="332.596" x2="195.943" y2="374.968" gradientUnits="userSpaceOnUse">
<stop stop-color="#D0D0D0"/>
<stop offset="0.49" stop-color="#323232"/>
<stop offset="1" stop-color="#383838"/>
</linearGradient>
<linearGradient id="paint36_linear_539_2" x1="189.431" y1="323.776" x2="250.939" y2="386.698" gradientUnits="userSpaceOnUse">
<stop stop-color="#275520"/>
<stop offset="1"/>
</linearGradient>
<linearGradient id="paint37_linear_539_2" x1="60.3866" y1="249.675" x2="119.398" y2="349.38" gradientUnits="userSpaceOnUse">
<stop stop-color="#52A150"/>
<stop offset="1" stop-color="#0E4710"/>
</linearGradient>
<linearGradient id="paint38_linear_539_2" x1="52.3029" y1="254.455" x2="111.32" y2="354.166" gradientUnits="userSpaceOnUse">
<stop stop-color="#468A40"/>
<stop offset="1" stop-color="#093E0C"/>
</linearGradient>
<linearGradient id="paint39_linear_539_2" x1="46.6015" y1="257.83" x2="105.619" y2="357.534" gradientUnits="userSpaceOnUse">
<stop stop-color="#60A150"/>
<stop offset="1" stop-color="#13470E"/>
</linearGradient>
<linearGradient id="paint40_linear_539_2" x1="38.4611" y1="262.652" x2="97.4726" y2="362.356" gradientUnits="userSpaceOnUse">
<stop stop-color="#56A150"/>
<stop offset="1" stop-color="#0E4714"/>
</linearGradient>
<linearGradient id="paint41_linear_539_2" x1="134.413" y1="32.2387" x2="284.667" y2="226.932" gradientUnits="userSpaceOnUse">
<stop stop-color="#C8F0C5"/>
<stop offset="0.29" stop-color="#B6B9B5"/>
<stop offset="0.96" stop-color="#308F4B"/>
<stop offset="1" stop-color="#4D8C27"/>
</linearGradient>
<linearGradient id="paint42_linear_539_2" x1="177.812" y1="110.614" x2="166.539" y2="194.538" gradientUnits="userSpaceOnUse">
<stop stop-color="#F0DCC5"/>
<stop offset="0.29" stop-color="#B9B5B5"/>
<stop offset="0.96" stop-color="#30548F"/>
<stop offset="1" stop-color="#274E8C"/>
</linearGradient>
<linearGradient id="paint43_linear_539_2" x1="218.302" y1="146.138" x2="142.851" y2="93.4124" gradientUnits="userSpaceOnUse">
<stop stop-color="#F0DCC5"/>
<stop offset="0.29" stop-color="#B9B5B5"/>
<stop offset="0.96" stop-color="#30548F"/>
<stop offset="1" stop-color="#274E8C"/>
</linearGradient>
<linearGradient id="paint44_linear_539_2" x1="180.878" y1="91.9885" x2="190.912" y2="33.6243" gradientUnits="userSpaceOnUse">
<stop stop-color="#F0DCC5"/>
<stop offset="0.29" stop-color="#B9B5B5"/>
<stop offset="0.96" stop-color="#30548F"/>
<stop offset="1" stop-color="#274E8C"/>
</linearGradient>
<linearGradient id="paint45_linear_539_2" x1="178.291" y1="152.936" x2="179.912" y2="56.5826" gradientUnits="userSpaceOnUse">
<stop offset="0.03" stop-color="#8F8F8F"/>
<stop offset="0.47" stop-color="#828282"/>
<stop offset="1" stop-color="#313131"/>
</linearGradient>
<linearGradient id="paint46_linear_539_2" x1="170.533" y1="175.995" x2="196.32" y2="49.4985" gradientUnits="userSpaceOnUse">
<stop offset="0.02" stop-color="#FFC2A9"/>
<stop offset="1" stop-color="#FF9595"/>
</linearGradient>
<linearGradient id="paint47_linear_539_2" x1="154.103" y1="71.058" x2="155.741" y2="63.0214" gradientUnits="userSpaceOnUse">
<stop offset="0.01" stop-color="#651D4F"/>
<stop offset="1" stop-color="#93364F"/>
</linearGradient>
<linearGradient id="paint48_linear_539_2" x1="186.828" y1="71.879" x2="188.777" y2="62.3194" gradientUnits="userSpaceOnUse">
<stop offset="0.01" stop-color="#401433"/>
<stop offset="1" stop-color="#93364F"/>
</linearGradient>
<linearGradient id="paint49_linear_539_2" x1="175.272" y1="104.629" x2="181.026" y2="105.805" gradientUnits="userSpaceOnUse">
<stop stop-color="#FFEADB"/>
<stop offset="0.99" stop-color="#C27CB6"/>
</linearGradient>
<linearGradient id="paint50_linear_539_2" x1="165.224" y1="174.913" x2="191.01" y2="48.4162" gradientUnits="userSpaceOnUse">
<stop stop-color="#FFEADB"/>
<stop offset="0.99" stop-color="#C27CB6"/>
</linearGradient>
<linearGradient id="paint51_linear_539_2" x1="218.047" y1="115.186" x2="221.994" y2="95.8262" gradientUnits="userSpaceOnUse">
<stop stop-color="#FFEADB"/>
<stop offset="0.99" stop-color="#C27CB6"/>
</linearGradient>
<linearGradient id="paint52_linear_539_2" x1="166.423" y1="175.157" x2="179.221" y2="112.375" gradientUnits="userSpaceOnUse">
<stop stop-color="#FFEADB"/>
<stop offset="0.99" stop-color="#C27CB6"/>
</linearGradient>
<linearGradient id="paint53_linear_539_2" x1="177.141" y1="93.0847" x2="189.185" y2="33.9992" gradientUnits="userSpaceOnUse">
<stop offset="0.01" stop-color="#2C2C2C"/>
<stop offset="1" stop-color="#762E41"/>
</linearGradient>
<linearGradient id="paint54_linear_539_2" x1="152.291" y1="105.582" x2="175.809" y2="110.387" gradientUnits="userSpaceOnUse">
<stop stop-color="#FFEADB"/>
<stop offset="0.99" stop-color="#C27CB6"/>
</linearGradient>
<linearGradient id="paint55_linear_539_2" x1="183.812" y1="50.5416" x2="187.599" y2="31.9641" gradientUnits="userSpaceOnUse">
<stop offset="0.01" stop-color="#651D4F"/>
<stop offset="1" stop-color="#C46376"/>
</linearGradient>
<linearGradient id="paint56_linear_539_2" x1="206.037" y1="78.6664" x2="221.794" y2="81.8858" gradientUnits="userSpaceOnUse">
<stop/>
<stop offset="0.27" stop-color="#4C3A39"/>
<stop offset="0.53" stop-color="#8C6968"/>
<stop offset="0.74" stop-color="#B98C8A"/>
<stop offset="0.91" stop-color="#D6A19F"/>
<stop offset="1" stop-color="#E0A9A7"/>
</linearGradient>
<linearGradient id="paint57_linear_539_2" x1="206.422" y1="71.2521" x2="224.011" y2="74.8458" gradientUnits="userSpaceOnUse">
<stop/>
<stop offset="0.27" stop-color="#4C3A39"/>
<stop offset="0.53" stop-color="#8C6968"/>
<stop offset="0.74" stop-color="#B98C8A"/>
<stop offset="0.91" stop-color="#D6A19F"/>
<stop offset="1" stop-color="#E0A9A7"/>
</linearGradient>
<linearGradient id="paint58_linear_539_2" x1="184.407" y1="160.118" x2="175.893" y2="45.9298" gradientUnits="userSpaceOnUse">
<stop stop-color="#1DBF0F"/>
<stop offset="1"/>
</linearGradient>
<linearGradient id="paint59_linear_539_2" x1="176.845" y1="-54.37" x2="126.91" y2="80.0172" gradientUnits="userSpaceOnUse">
<stop stop-color="#777777"/>
<stop offset="0.49" stop-color="#4D4D4D"/>
<stop offset="1"/>
</linearGradient>
<linearGradient id="paint60_linear_539_2" x1="197.672" y1="-12.7348" x2="188.38" y2="117.894" gradientUnits="userSpaceOnUse">
<stop stop-color="#ABABAB"/>
<stop offset="0.49" stop-color="#747474"/>
<stop offset="1" stop-color="#606060"/>
</linearGradient>
<linearGradient id="paint61_linear_539_2" x1="176.133" y1="-14.2672" x2="166.841" y2="116.368" gradientUnits="userSpaceOnUse">
<stop stop-color="#8B8B8B"/>
<stop offset="0.579" stop-color="#5E5E5E"/>
<stop offset="1" stop-color="#474747"/>
<stop offset="1" stop-color="#323232"/>
</linearGradient>
<linearGradient id="paint62_linear_539_2" x1="134.01" y1="-17.2589" x2="124.718" y2="113.37" gradientUnits="userSpaceOnUse">
<stop stop-color="#D9D9D9"/>
<stop offset="0.0439996" stop-color="#9C9C9C"/>
<stop offset="0.49" stop-color="#5B5B5B"/>
<stop offset="1" stop-color="#494949"/>
</linearGradient>
<linearGradient id="paint63_linear_539_2" x1="73.8854" y1="18.3015" x2="97.9313" y2="95.231" gradientUnits="userSpaceOnUse">
<stop stop-color="#7E7E7E"/>
<stop offset="0.49" stop-color="#707070"/>
<stop offset="1" stop-color="#232323"/>
</linearGradient>
<linearGradient id="paint64_linear_539_2" x1="64.4189" y1="-13.878" x2="96.2985" y2="87.4846" gradientUnits="userSpaceOnUse">
<stop stop-color="#969696"/>
<stop offset="0.49" stop-color="#4F4F4F"/>
<stop offset="1"/>
</linearGradient>
<linearGradient id="paint65_linear_539_2" x1="16.5" y1="86" x2="111.655" y2="338.82" gradientUnits="userSpaceOnUse">
<stop stop-color="#DDF0C5"/>
<stop offset="0.419" stop-color="#B8B9B5"/>
<stop offset="0.714" stop-color="#308F50"/>
<stop offset="1" stop-color="#278C5C"/>
</linearGradient>
<linearGradient id="paint66_linear_539_2" x1="122.218" y1="-31.1961" x2="143.965" y2="44.6364" gradientUnits="userSpaceOnUse">
<stop stop-color="#DFDFDF"/>
<stop offset="0.49" stop-color="#636363"/>
<stop offset="1" stop-color="#0D0D0D"/>
</linearGradient>
<linearGradient id="paint67_linear_539_2" x1="147.844" y1="-38.5478" x2="169.59" y2="37.2908" gradientUnits="userSpaceOnUse">
<stop stop-color="#E6C82C"/>
<stop offset="0.0589996" stop-color="#BEBEBE"/>
<stop offset="0.49" stop-color="#737373"/>
<stop offset="1" stop-color="#2B2B2B"/>
</linearGradient>
<linearGradient id="paint68_linear_539_2" x1="148.762" y1="-38.8092" x2="170.509" y2="37.0293" gradientUnits="userSpaceOnUse">
<stop stop-color="#9A9A9A"/>
<stop offset="0.49" stop-color="#515151"/>
<stop offset="1" stop-color="#2C2C2C"/>
</linearGradient>
<linearGradient id="paint69_linear_539_2" x1="263.969" y1="84.722" x2="259.825" y2="203.077" gradientUnits="userSpaceOnUse">
<stop stop-color="#F2F2BB"/>
<stop offset="1"/>
</linearGradient>
<clipPath id="clip0_539_2">
<rect width="341" height="484" fill="white" transform="matrix(-1 0 0 1 341 0)"/>
</clipPath>
<clipPath id="clip1_539_2">
<rect width="23.1412" height="21.9343" fill="white" transform="translate(173.02 199) rotate(13.2311)"/>
</clipPath>
</defs>
</svg>
