<svg  viewBox="0 0 175 93" fill="none" xmlns="http://www.w3.org/2000/svg">
<rect x="1.5" y="1" width="172" height="50" rx="25" fill="#2A2A2A"/>
<rect x="1.5" y="1" width="172" height="50" rx="25" stroke="#44C313" stroke-width="2"/>
<path d="M17.9961 15.6621H20.0469L17.4336 21.6504C17.2461 22.0801 17.0469 22.4414 16.8359 22.7344C16.6289 23.0234 16.377 23.2754 16.0801 23.4902C15.7871 23.7051 15.4414 23.8613 15.043 23.959C14.6445 24.0566 14.1777 24.1055 13.6426 24.1055L13.543 22.5117C13.9141 22.5117 14.2441 22.4512 14.5332 22.3301C14.8223 22.209 15.084 22.002 15.3184 21.709L12.6582 15.6621H14.709L16.3145 19.6816L17.9961 15.6621ZM22.7216 24.1582C21.9755 24.1582 21.3641 24.0059 20.8876 23.7012C20.411 23.3965 20.0985 22.9609 19.9501 22.3945L21.6552 21.9141C21.7372 22.1016 21.8661 22.2578 22.0419 22.3828C22.2216 22.5078 22.4403 22.5703 22.6981 22.5703C22.9325 22.5703 23.1298 22.5117 23.2899 22.3945C23.4501 22.2734 23.5302 22.1211 23.5302 21.9375C23.5302 21.7422 23.4501 21.5898 23.2899 21.4805C23.1298 21.3672 22.9286 21.3105 22.6864 21.3105H21.7255V20.1973H22.6747C22.9012 20.1973 23.0868 20.1445 23.2313 20.0391C23.3798 19.9297 23.454 19.7773 23.454 19.582C23.454 19.4141 23.3837 19.2734 23.243 19.1602C23.1024 19.043 22.9325 18.9844 22.7333 18.9844C22.5302 18.9844 22.3563 19.0449 22.2118 19.166C22.0712 19.2832 21.9735 19.4219 21.9188 19.582L20.1317 19.1543C20.1708 19.0098 20.2294 18.8633 20.3075 18.7148C20.3895 18.5664 20.5028 18.4121 20.6473 18.252C20.7958 18.0918 20.9637 17.9512 21.1512 17.8301C21.3427 17.7051 21.579 17.6035 21.8602 17.5254C22.1415 17.4434 22.4442 17.4023 22.7684 17.4023C23.5223 17.4023 24.1337 17.5703 24.6024 17.9062C25.0712 18.2422 25.3055 18.6934 25.3055 19.2598C25.3055 19.873 25.0282 20.2969 24.4735 20.5312V20.543C24.7509 20.6445 24.9813 20.8301 25.1649 21.0996C25.3524 21.3652 25.4462 21.668 25.4462 22.0078C25.4462 22.6367 25.1962 23.1523 24.6962 23.5547C24.1962 23.957 23.538 24.1582 22.7216 24.1582ZM26.8318 24V17.5547H28.6541V19.9453H31.0798V17.5547H32.9021V24H31.0798V21.4805H28.6541V24H26.8318ZM36.1159 24.1582C35.5729 24.1582 35.1178 23.9844 34.7506 23.6367C34.3834 23.2891 34.1998 22.8145 34.1998 22.2129C34.1998 21.5723 34.442 21.0723 34.9264 20.7129C35.4147 20.3535 36.0514 20.1738 36.8366 20.1738H37.7858V19.8223C37.7858 19.5645 37.7116 19.3613 37.5631 19.2129C37.4147 19.0605 37.2213 18.9844 36.983 18.9844C36.7838 18.9844 36.61 19.043 36.4616 19.1602C36.3131 19.2773 36.2038 19.4297 36.1334 19.6172L34.4401 19.1777C34.487 19.041 34.5495 18.9004 34.6276 18.7559C34.7096 18.6074 34.8229 18.4512 34.9674 18.2871C35.1159 18.1191 35.2799 17.9727 35.4596 17.8477C35.6393 17.7188 35.86 17.6133 36.1217 17.5312C36.3873 17.4453 36.6705 17.4023 36.9713 17.4023C37.7721 17.4023 38.4166 17.6152 38.9049 18.041C39.3932 18.4668 39.6373 19.0684 39.6373 19.8457V21.9258C39.6373 22.8438 39.733 23.5352 39.9245 24H37.9909C37.8932 23.793 37.8405 23.5723 37.8327 23.3379C37.6842 23.584 37.4577 23.7832 37.153 23.9355C36.8522 24.084 36.5065 24.1582 36.1159 24.1582ZM36.778 22.6348C37.0397 22.6348 37.2721 22.5527 37.4752 22.3887C37.6823 22.2246 37.7858 22.0215 37.7858 21.7793V21.3867H36.9245C36.6354 21.3867 36.4186 21.4453 36.2741 21.5625C36.1295 21.6758 36.0573 21.8359 36.0573 22.043C36.0573 22.2188 36.1256 22.3613 36.2623 22.4707C36.403 22.5801 36.5748 22.6348 36.778 22.6348ZM44.4273 16.8223C43.8726 16.8223 43.4292 16.6621 43.0972 16.3418C42.7652 16.0215 42.5933 15.543 42.5816 14.9062H43.8062C43.8062 15.1562 43.8628 15.3496 43.9761 15.4863C44.0933 15.6191 44.2437 15.6855 44.4273 15.6855C44.6187 15.6855 44.771 15.6191 44.8843 15.4863C44.9976 15.3496 45.0542 15.1562 45.0542 14.9062H46.2905C46.2788 15.543 46.105 16.0215 45.7691 16.3418C45.437 16.6621 44.9898 16.8223 44.4273 16.8223ZM47.5269 24H45.6987V20.3262L43.062 24H41.3452V17.5547H43.1675V21.2285L45.8101 17.5547H47.5269V24ZM49.4047 26.2793L48.9008 25.5117C49.2133 25.375 49.4867 25.1797 49.7211 24.9258C49.9594 24.6719 50.0785 24.416 50.0785 24.1582C50.0785 24.0996 50.0707 24.0391 50.0551 23.9766C49.9301 24.0312 49.8012 24.0586 49.6684 24.0586C49.4262 24.0586 49.2211 23.9727 49.0531 23.8008C48.8891 23.6289 48.807 23.4023 48.807 23.1211C48.807 22.8555 48.8969 22.625 49.0766 22.4297C49.2562 22.2305 49.5062 22.1309 49.8266 22.1309C50.2641 22.1309 50.6039 22.291 50.8461 22.6113C51.0922 22.9277 51.2152 23.3223 51.2152 23.7949C51.2152 24.9746 50.6117 25.8027 49.4047 26.2793ZM58.715 20.291C58.9142 20.4238 59.0978 20.6035 59.2658 20.8301C59.4338 21.0566 59.5822 21.3047 59.7111 21.5742C59.8439 21.8398 59.967 22.1074 60.0802 22.377C60.1974 22.6465 60.3302 22.9316 60.4787 23.2324C60.631 23.5293 60.7834 23.7852 60.9357 24H58.8088C58.6955 23.8711 58.5822 23.6934 58.4689 23.4668C58.3595 23.2402 58.2599 23.0254 58.1701 22.8223C58.0841 22.6152 57.9884 22.4141 57.883 22.2188C57.7814 22.0234 57.6623 21.8672 57.5255 21.75C57.3888 21.6328 57.2365 21.5742 57.0685 21.5742H56.7931V24H54.9709V17.5547H56.7931V19.9805H57.0451L57.8888 18.6211C58.0646 18.332 58.2677 18.0938 58.4982 17.9062C58.7287 17.7188 58.9552 17.5879 59.1779 17.5137C59.4045 17.4395 59.6388 17.4023 59.881 17.4023C60.2599 17.4023 60.6154 17.502 60.9474 17.7012L60.5607 19.043C60.5451 19.0391 60.5119 19.0293 60.4611 19.0137C60.4142 18.9941 60.3732 18.9805 60.338 18.9727C60.3029 18.9609 60.258 18.9512 60.2033 18.9434C60.1525 18.9316 60.1037 18.9258 60.0568 18.9258C59.8029 18.9258 59.5998 19.041 59.4474 19.2715L58.715 20.291ZM63.5284 24.1582C62.9854 24.1582 62.5303 23.9844 62.1631 23.6367C61.7959 23.2891 61.6123 22.8145 61.6123 22.2129C61.6123 21.5723 61.8545 21.0723 62.3389 20.7129C62.8272 20.3535 63.4639 20.1738 64.2491 20.1738H65.1983V19.8223C65.1983 19.5645 65.1241 19.3613 64.9756 19.2129C64.8272 19.0605 64.6338 18.9844 64.3955 18.9844C64.1963 18.9844 64.0225 19.043 63.8741 19.1602C63.7256 19.2773 63.6162 19.4297 63.5459 19.6172L61.8526 19.1777C61.8995 19.041 61.962 18.9004 62.0401 18.7559C62.1221 18.6074 62.2354 18.4512 62.3799 18.2871C62.5284 18.1191 62.6924 17.9727 62.8721 17.8477C63.0518 17.7188 63.2725 17.6133 63.5342 17.5312C63.7998 17.4453 64.083 17.4023 64.3838 17.4023C65.1846 17.4023 65.8291 17.6152 66.3174 18.041C66.8057 18.4668 67.0498 19.0684 67.0498 19.8457V21.9258C67.0498 22.8438 67.1455 23.5352 67.337 24H65.4034C65.3057 23.793 65.253 23.5723 65.2452 23.3379C65.0967 23.584 64.8702 23.7832 64.5655 23.9355C64.2647 24.084 63.919 24.1582 63.5284 24.1582ZM64.1905 22.6348C64.4522 22.6348 64.6846 22.5527 64.8877 22.3887C65.0948 22.2246 65.1983 22.0215 65.1983 21.7793V21.3867H64.337C64.0479 21.3867 63.8311 21.4453 63.6866 21.5625C63.542 21.6758 63.4698 21.8359 63.4698 22.043C63.4698 22.2188 63.5381 22.3613 63.6748 22.4707C63.8155 22.5801 63.9873 22.6348 64.1905 22.6348ZM72.5019 20.291C72.7011 20.4238 72.8847 20.6035 73.0527 20.8301C73.2206 21.0566 73.3691 21.3047 73.498 21.5742C73.6308 21.8398 73.7538 22.1074 73.8671 22.377C73.9843 22.6465 74.1171 22.9316 74.2655 23.2324C74.4179 23.5293 74.5702 23.7852 74.7226 24H72.5956C72.4823 23.8711 72.3691 23.6934 72.2558 23.4668C72.1464 23.2402 72.0468 23.0254 71.957 22.8223C71.871 22.6152 71.7753 22.4141 71.6698 22.2188C71.5683 22.0234 71.4491 21.8672 71.3124 21.75C71.1757 21.6328 71.0234 21.5742 70.8554 21.5742H70.58V24H68.7577V17.5547H70.58V19.9805H70.832L71.6757 18.6211C71.8515 18.332 72.0546 18.0938 72.2851 17.9062C72.5155 17.7188 72.7421 17.5879 72.9648 17.5137C73.1913 17.4395 73.4257 17.4023 73.6679 17.4023C74.0468 17.4023 74.4023 17.502 74.7343 17.7012L74.3476 19.043C74.332 19.0391 74.2988 19.0293 74.248 19.0137C74.2011 18.9941 74.1601 18.9805 74.1249 18.9727C74.0898 18.9609 74.0448 18.9512 73.9902 18.9434C73.9394 18.9316 73.8905 18.9258 73.8437 18.9258C73.5898 18.9258 73.3866 19.041 73.2343 19.2715L72.5019 20.291ZM78.2555 26.3379V17.5547H80.0778V18.2637C80.1911 18.0293 80.3864 17.8281 80.6637 17.6602C80.945 17.4883 81.2712 17.4023 81.6423 17.4023C81.9821 17.4023 82.2985 17.4727 82.5915 17.6133C82.8845 17.7539 83.1442 17.9609 83.3708 18.2344C83.6012 18.5039 83.7809 18.8574 83.9098 19.2949C84.0427 19.7324 84.1091 20.2285 84.1091 20.7832C84.1091 21.3379 84.0427 21.834 83.9098 22.2715C83.7809 22.709 83.6012 23.0645 83.3708 23.3379C83.1442 23.6074 82.8845 23.8125 82.5915 23.9531C82.2985 24.0898 81.9821 24.1582 81.6423 24.1582C81.3141 24.1582 81.0134 24.0918 80.7399 23.959C80.4665 23.8262 80.2458 23.6602 80.0778 23.4609V26.3379H78.2555ZM81.1618 22.5703C81.8884 22.5703 82.2516 21.9746 82.2516 20.7832C82.2516 19.584 81.8884 18.9844 81.1618 18.9844C80.4391 18.9844 80.0778 19.584 80.0778 20.7832C80.0778 21.9746 80.4391 22.5703 81.1618 22.5703ZM86.9302 24.1582C86.3873 24.1582 85.9322 23.9844 85.565 23.6367C85.1978 23.2891 85.0142 22.8145 85.0142 22.2129C85.0142 21.5723 85.2564 21.0723 85.7408 20.7129C86.2291 20.3535 86.8658 20.1738 87.6509 20.1738H88.6002V19.8223C88.6002 19.5645 88.5259 19.3613 88.3775 19.2129C88.2291 19.0605 88.0357 18.9844 87.7974 18.9844C87.5982 18.9844 87.4244 19.043 87.2759 19.1602C87.1275 19.2773 87.0181 19.4297 86.9478 19.6172L85.2545 19.1777C85.3013 19.041 85.3638 18.9004 85.442 18.7559C85.524 18.6074 85.6373 18.4512 85.7818 18.2871C85.9302 18.1191 86.0943 17.9727 86.274 17.8477C86.4537 17.7188 86.6744 17.6133 86.9361 17.5312C87.2017 17.4453 87.4849 17.4023 87.7857 17.4023C88.5865 17.4023 89.231 17.6152 89.7193 18.041C90.2076 18.4668 90.4517 19.0684 90.4517 19.8457V21.9258C90.4517 22.8438 90.5474 23.5352 90.7388 24H88.8052C88.7076 23.793 88.6548 23.5723 88.647 23.3379C88.4986 23.584 88.272 23.7832 87.9673 23.9355C87.6666 24.084 87.3209 24.1582 86.9302 24.1582ZM87.5923 22.6348C87.8541 22.6348 88.0865 22.5527 88.2896 22.3887C88.4966 22.2246 88.6002 22.0215 88.6002 21.7793V21.3867H87.7388C87.4498 21.3867 87.233 21.4453 87.0884 21.5625C86.9439 21.6758 86.8716 21.8359 86.8716 22.043C86.8716 22.2188 86.94 22.3613 87.0767 22.4707C87.2173 22.5801 87.3892 22.6348 87.5923 22.6348ZM94.7846 24.1582C94.351 24.1582 93.9506 24.0879 93.5834 23.9473C93.2202 23.8066 92.8998 23.5996 92.6225 23.3262C92.3491 23.0527 92.1342 22.6992 91.978 22.2656C91.8256 21.832 91.7495 21.3379 91.7495 20.7832C91.7495 20.248 91.8256 19.7656 91.978 19.3359C92.1342 18.9062 92.3491 18.5508 92.6225 18.2695C92.8959 17.9883 93.2162 17.7734 93.5834 17.625C93.9545 17.4766 94.3549 17.4023 94.7846 17.4023C95.1596 17.4023 95.5092 17.4609 95.8334 17.5781C96.1577 17.6914 96.4291 17.8418 96.6479 18.0293C96.8705 18.2129 97.0522 18.418 97.1928 18.6445C97.3334 18.8711 97.4233 19.1035 97.4623 19.3418L95.7573 19.834C95.558 19.2676 95.2104 18.9844 94.7143 18.9844C94.3627 18.9844 94.0912 19.1465 93.8998 19.4707C93.7084 19.7949 93.6127 20.2324 93.6127 20.7832C93.6127 21.334 93.7065 21.7695 93.894 22.0898C94.0854 22.4102 94.3588 22.5703 94.7143 22.5703C95.2455 22.5703 95.6264 22.3145 95.8569 21.8027L97.5092 22.1309C97.3569 22.7168 97.0268 23.2012 96.519 23.584C96.0151 23.9668 95.437 24.1582 94.7846 24.1582ZM98.6077 24V17.5547H104.561V24H102.733V19.0898H100.43V24H98.6077ZM106.169 26.3379V17.5547H107.991V18.2637C108.105 18.0293 108.3 17.8281 108.577 17.6602C108.859 17.4883 109.185 17.4023 109.556 17.4023C109.896 17.4023 110.212 17.4727 110.505 17.6133C110.798 17.7539 111.058 17.9609 111.284 18.2344C111.515 18.5039 111.695 18.8574 111.823 19.2949C111.956 19.7324 112.023 20.2285 112.023 20.7832C112.023 21.3379 111.956 21.834 111.823 22.2715C111.695 22.709 111.515 23.0645 111.284 23.3379C111.058 23.6074 110.798 23.8125 110.505 23.9531C110.212 24.0898 109.896 24.1582 109.556 24.1582C109.228 24.1582 108.927 24.0918 108.654 23.959C108.38 23.8262 108.159 23.6602 107.991 23.4609V26.3379H106.169ZM109.075 22.5703C109.802 22.5703 110.165 21.9746 110.165 20.7832C110.165 19.584 109.802 18.9844 109.075 18.9844C108.353 18.9844 107.991 19.584 107.991 20.7832C107.991 21.9746 108.353 22.5703 109.075 22.5703ZM118.828 20.4375V21.4102H114.738C114.883 22.2148 115.295 22.6172 115.975 22.6172C116.264 22.6172 116.51 22.543 116.713 22.3945C116.92 22.2461 117.07 22.0449 117.164 21.791L118.805 22.1309C118.664 22.6738 118.318 23.1484 117.768 23.5547C117.217 23.957 116.615 24.1582 115.963 24.1582C115.002 24.1582 114.236 23.8535 113.666 23.2441C113.1 22.6309 112.816 21.7988 112.816 20.748C112.816 19.748 113.098 18.9414 113.66 18.3281C114.227 17.7109 114.963 17.4023 115.869 17.4023C116.338 17.4023 116.762 17.4883 117.141 17.6602C117.524 17.8281 117.836 18.0547 118.078 18.3398C118.32 18.6211 118.506 18.9434 118.635 19.3066C118.764 19.666 118.828 20.043 118.828 20.4375ZM114.75 19.9688H116.924C116.92 19.6602 116.815 19.418 116.607 19.2422C116.404 19.0625 116.149 18.9727 115.84 18.9727C115.266 18.9727 114.902 19.3047 114.75 19.9688ZM126.325 22.4648H127.046V26.0508H125.452V24H120.987V26.0508H119.388V22.4648H120.085C120.249 22.2383 120.366 22.041 120.436 21.873C120.507 21.7012 120.55 21.4785 120.565 21.2051L120.817 17.5547H126.325V22.4648ZM121.837 22.4648H124.503V19.0195H122.476L122.306 21.1816C122.278 21.498 122.229 21.7461 122.159 21.9258C122.089 22.1016 121.981 22.2812 121.837 22.4648ZM133.928 20.4375V21.4102H129.838C129.982 22.2148 130.394 22.6172 131.074 22.6172C131.363 22.6172 131.609 22.543 131.812 22.3945C132.019 22.2461 132.17 22.0449 132.264 21.791L133.904 22.1309C133.764 22.6738 133.418 23.1484 132.867 23.5547C132.316 23.957 131.715 24.1582 131.062 24.1582C130.101 24.1582 129.336 23.8535 128.765 23.2441C128.199 22.6309 127.916 21.7988 127.916 20.748C127.916 19.748 128.197 18.9414 128.76 18.3281C129.326 17.7109 130.062 17.4023 130.969 17.4023C131.437 17.4023 131.861 17.4883 132.24 17.6602C132.623 17.8281 132.935 18.0547 133.178 18.3398C133.42 18.6211 133.605 18.9434 133.734 19.3066C133.863 19.666 133.928 20.043 133.928 20.4375ZM129.849 19.9688H132.023C132.019 19.6602 131.914 19.418 131.707 19.2422C131.504 19.0625 131.248 18.9727 130.939 18.9727C130.365 18.9727 130.002 19.3047 129.849 19.9688ZM134.475 24.0703V22.5352C134.811 22.5352 135.053 22.4785 135.202 22.3652C135.35 22.252 135.436 22.0527 135.46 21.7676L135.747 17.5547H141.219V24H139.397V19.0898H137.428L137.223 21.7324C137.157 22.5684 136.899 23.168 136.45 23.5312C136.005 23.8906 135.346 24.0703 134.475 24.0703ZM145.453 17.5547H148.154V24H146.296V22.043H146.056C145.81 22.043 145.601 22.1113 145.429 22.248C145.257 22.3848 145.129 22.541 145.043 22.7168C144.961 22.8926 144.857 23.1113 144.732 23.373C144.607 23.6348 144.484 23.8438 144.363 24H142.242C142.343 23.8672 142.464 23.6543 142.605 23.3613C142.75 23.0645 142.912 22.75 143.091 22.418C143.271 22.082 143.459 21.793 143.654 21.5508C143.341 21.3398 143.105 21.0801 142.945 20.7715C142.785 20.4629 142.705 20.1387 142.705 19.7988C142.705 19.5137 142.763 19.2402 142.88 18.9785C142.998 18.7129 143.166 18.4746 143.384 18.2637C143.607 18.0488 143.896 17.877 144.252 17.748C144.611 17.6191 145.011 17.5547 145.453 17.5547ZM146.296 20.4727V19.1426H145.394C145.144 19.1426 144.949 19.209 144.808 19.3418C144.671 19.4707 144.603 19.623 144.603 19.7988C144.603 19.9785 144.671 20.1367 144.808 20.2734C144.949 20.4062 145.144 20.4727 145.394 20.4727H146.296ZM151.315 24V19.0898H149.206V17.5547H155.264V19.0898H153.137V24H151.315ZM159.269 19.7168C159.648 19.7168 159.99 19.7773 160.294 19.8984C160.599 20.0195 160.845 20.1816 161.033 20.3848C161.224 20.5879 161.369 20.8145 161.466 21.0645C161.568 21.3145 161.619 21.5762 161.619 21.8496C161.619 22.123 161.568 22.3867 161.466 22.6406C161.369 22.8906 161.224 23.1191 161.033 23.3262C160.845 23.5293 160.599 23.6934 160.294 23.8184C159.99 23.9395 159.648 24 159.269 24H156.111V17.5547H157.933V19.7168H159.269ZM159.005 22.4648C159.247 22.4648 159.433 22.4043 159.562 22.2832C159.695 22.1621 159.761 22.0176 159.761 21.8496C159.761 21.6855 159.695 21.5449 159.562 21.4277C159.433 21.3105 159.247 21.252 159.005 21.252H157.933V22.4648H159.005ZM14.791 37V32.0898H12.6816V30.5547H18.7402V32.0898H16.6133V37H14.791ZM19.7743 39.3379V30.5547H21.5966V31.2637C21.7098 31.0293 21.9052 30.8281 22.1825 30.6602C22.4637 30.4883 22.7899 30.4023 23.161 30.4023C23.5009 30.4023 23.8173 30.4727 24.1102 30.6133C24.4032 30.7539 24.663 30.9609 24.8895 31.2344C25.12 31.5039 25.2997 31.8574 25.4286 32.2949C25.5614 32.7324 25.6278 33.2285 25.6278 33.7832C25.6278 34.3379 25.5614 34.834 25.4286 35.2715C25.2997 35.709 25.12 36.0645 24.8895 36.3379C24.663 36.6074 24.4032 36.8125 24.1102 36.9531C23.8173 37.0898 23.5009 37.1582 23.161 37.1582C22.8329 37.1582 22.5321 37.0918 22.2587 36.959C21.9852 36.8262 21.7645 36.6602 21.5966 36.4609V39.3379H19.7743ZM22.6805 35.5703C23.4071 35.5703 23.7704 34.9746 23.7704 33.7832C23.7704 32.584 23.4071 31.9844 22.6805 31.9844C21.9579 31.9844 21.5966 32.584 21.5966 33.7832C21.5966 34.9746 21.9579 35.5703 22.6805 35.5703ZM32.4334 33.4375V34.4102H28.3435C28.488 35.2148 28.9002 35.6172 29.5798 35.6172C29.8689 35.6172 30.115 35.543 30.3181 35.3945C30.5252 35.2461 30.6755 35.0449 30.7693 34.791L32.4099 35.1309C32.2693 35.6738 31.9236 36.1484 31.3728 36.5547C30.822 36.957 30.2205 37.1582 29.5681 37.1582C28.6072 37.1582 27.8416 36.8535 27.2712 36.2441C26.7048 35.6309 26.4216 34.7988 26.4216 33.748C26.4216 32.748 26.7029 31.9414 27.2654 31.3281C27.8318 30.7109 28.5681 30.4023 29.4744 30.4023C29.9431 30.4023 30.367 30.4883 30.7459 30.6602C31.1287 30.8281 31.4412 31.0547 31.6834 31.3398C31.9255 31.6211 32.1111 31.9434 32.24 32.3066C32.3689 32.666 32.4334 33.043 32.4334 33.4375ZM28.3552 32.9688H30.5291C30.5252 32.6602 30.4197 32.418 30.2127 32.2422C30.0095 32.0625 29.7537 31.9727 29.4451 31.9727C28.8709 31.9727 28.5076 32.3047 28.3552 32.9688ZM36.1041 31C36.9596 31 37.6471 31.2637 38.1666 31.791C38.6862 32.3145 38.9459 33.0781 38.9459 34.082C38.9459 35.082 38.6862 35.8457 38.1666 36.373C37.6471 36.8965 36.9596 37.1582 36.1041 37.1582C35.2487 37.1582 34.5592 36.8945 34.0358 36.3672C33.5163 35.8359 33.2565 35.0742 33.2565 34.082C33.2565 32.5234 33.487 31.3359 33.9479 30.5195C34.4088 29.6992 35.1705 29.1641 36.233 28.9141C36.608 28.8242 36.8873 28.7363 37.0709 28.6504C37.2584 28.5605 37.3971 28.4551 37.487 28.334C37.5768 28.209 37.6588 28.0254 37.733 27.7832L39.2799 27.9414C39.2135 28.5625 38.9733 29.0723 38.5592 29.4707C38.1452 29.8652 37.5299 30.168 36.7135 30.3789C36.1666 30.4922 35.7877 30.7109 35.5768 31.0352C35.7448 31.0117 35.9205 31 36.1041 31ZM35.3424 35.2246C35.5143 35.4863 35.7682 35.6172 36.1041 35.6172C36.4401 35.6172 36.694 35.4863 36.8659 35.2246C37.0377 34.9629 37.1237 34.582 37.1237 34.082C37.1237 33.0508 36.7838 32.5352 36.1041 32.5352C35.7682 32.5352 35.5143 32.666 35.3424 32.9277C35.1705 33.1895 35.0846 33.5703 35.0846 34.0703C35.0846 34.5742 35.1705 34.959 35.3424 35.2246ZM44.8316 36.2969C44.2964 36.8711 43.5835 37.1582 42.6929 37.1582C41.8023 37.1582 41.0874 36.8711 40.5484 36.2969C40.0093 35.7188 39.7398 34.8809 39.7398 33.7832C39.7398 32.6816 40.0073 31.8438 40.5425 31.2695C41.0816 30.6914 41.7984 30.4023 42.6929 30.4023C43.5835 30.4023 44.2964 30.6895 44.8316 31.2637C45.3667 31.8379 45.6343 32.6777 45.6343 33.7832C45.6343 34.8809 45.3667 35.7188 44.8316 36.2969ZM42.6929 35.5703C43.4116 35.5703 43.771 34.9746 43.771 33.7832C43.771 32.584 43.4116 31.9844 42.6929 31.9844C41.9663 31.9844 41.603 32.584 41.603 33.7832C41.603 34.9746 41.9663 35.5703 42.6929 35.5703ZM46.8441 37V30.5547H49.8676C50.5238 30.5547 51.0531 30.707 51.4555 31.0117C51.8617 31.3125 52.0648 31.7402 52.0648 32.2949C52.0648 32.9785 51.7172 33.4512 51.0219 33.7129V33.7246C51.1469 33.7637 51.2699 33.8184 51.391 33.8887C51.5121 33.959 51.6312 34.0508 51.7484 34.1641C51.8656 34.2773 51.9613 34.4199 52.0355 34.5918C52.1098 34.7637 52.1469 34.9512 52.1469 35.1543C52.1469 35.7363 51.932 36.1895 51.5023 36.5137C51.0727 36.8379 50.516 37 49.8324 37H46.8441ZM48.6664 33.1094H49.6391C49.8422 33.1094 49.9945 33.0605 50.0961 32.9629C50.2016 32.8613 50.2543 32.7383 50.2543 32.5938C50.2543 32.457 50.2035 32.3398 50.102 32.2422C50.0004 32.1406 49.8539 32.0898 49.6625 32.0898H48.6664V33.1094ZM48.6664 35.4648H49.6391C49.85 35.4648 50.0102 35.4141 50.1195 35.3125C50.2328 35.2109 50.2895 35.0859 50.2895 34.9375C50.2895 34.793 50.2328 34.6719 50.1195 34.5742C50.0102 34.4727 49.85 34.4219 49.6391 34.4219H48.6664V35.4648ZM55.2962 37.1582C54.7532 37.1582 54.2981 36.9844 53.9309 36.6367C53.5638 36.2891 53.3802 35.8145 53.3802 35.2129C53.3802 34.5723 53.6223 34.0723 54.1067 33.7129C54.595 33.3535 55.2317 33.1738 56.0169 33.1738H56.9661V32.8223C56.9661 32.5645 56.8919 32.3613 56.7434 32.2129C56.595 32.0605 56.4016 31.9844 56.1634 31.9844C55.9641 31.9844 55.7903 32.043 55.6419 32.1602C55.4934 32.2773 55.3841 32.4297 55.3138 32.6172L53.6204 32.1777C53.6673 32.041 53.7298 31.9004 53.8079 31.7559C53.8899 31.6074 54.0032 31.4512 54.1477 31.2871C54.2962 31.1191 54.4602 30.9727 54.6399 30.8477C54.8196 30.7188 55.0403 30.6133 55.302 30.5312C55.5677 30.4453 55.8509 30.4023 56.1516 30.4023C56.9524 30.4023 57.597 30.6152 58.0852 31.041C58.5735 31.4668 58.8177 32.0684 58.8177 32.8457V34.9258C58.8177 35.8438 58.9134 36.5352 59.1048 37H57.1712C57.0735 36.793 57.0208 36.5723 57.013 36.3379C56.8645 36.584 56.638 36.7832 56.3333 36.9355C56.0325 37.084 55.6868 37.1582 55.2962 37.1582ZM55.9583 35.6348C56.22 35.6348 56.4524 35.5527 56.6555 35.3887C56.8626 35.2246 56.9661 35.0215 56.9661 34.7793V34.3867H56.1048C55.8157 34.3867 55.5989 34.4453 55.4544 34.5625C55.3098 34.6758 55.2376 34.8359 55.2376 35.043C55.2376 35.2188 55.3059 35.3613 55.4427 35.4707C55.5833 35.5801 55.7552 35.6348 55.9583 35.6348ZM60.5255 37V30.5547H62.3478V32.9453H64.7736V30.5547H66.5959V37H64.7736V34.4805H62.3478V37H60.5255ZM74.3741 37H72.5459V33.3262L69.9092 37H68.1924V30.5547H70.0147V34.2285L72.6573 30.5547H74.3741V37ZM78.6015 30.5547H81.3027V37H79.4452V35.043H79.205C78.9589 35.043 78.7499 35.1113 78.578 35.248C78.4062 35.3848 78.2773 35.541 78.1913 35.7168C78.1093 35.8926 78.0058 36.1113 77.8808 36.373C77.7558 36.6348 77.6327 36.8438 77.5116 37H75.3905C75.4921 36.8672 75.6132 36.6543 75.7538 36.3613C75.8984 36.0645 76.0605 35.75 76.2402 35.418C76.4198 35.082 76.6073 34.793 76.8027 34.5508C76.4902 34.3398 76.2538 34.0801 76.0937 33.7715C75.9335 33.4629 75.8534 33.1387 75.8534 32.7988C75.8534 32.5137 75.912 32.2402 76.0292 31.9785C76.1464 31.7129 76.3144 31.4746 76.5331 31.2637C76.7558 31.0488 77.0448 30.877 77.4003 30.748C77.7597 30.6191 78.1601 30.5547 78.6015 30.5547ZM79.4452 33.4727V32.1426H78.5429C78.2929 32.1426 78.0976 32.209 77.957 32.3418C77.8202 32.4707 77.7519 32.623 77.7519 32.7988C77.7519 32.9785 77.8202 33.1367 77.957 33.2734C78.0976 33.4062 78.2929 33.4727 78.5429 33.4727H79.4452ZM85.3805 37V30.5547H91.3337V37H89.5055V32.0898H87.2028V37H85.3805ZM97.6236 36.2969C97.0884 36.8711 96.3755 37.1582 95.4849 37.1582C94.5943 37.1582 93.8795 36.8711 93.3404 36.2969C92.8013 35.7188 92.5318 34.8809 92.5318 33.7832C92.5318 32.6816 92.7994 31.8438 93.3345 31.2695C93.8736 30.6914 94.5904 30.4023 95.4849 30.4023C96.3755 30.4023 97.0884 30.6895 97.6236 31.2637C98.1588 31.8379 98.4263 32.6777 98.4263 33.7832C98.4263 34.8809 98.1588 35.7188 97.6236 36.2969ZM95.4849 35.5703C96.2037 35.5703 96.563 34.9746 96.563 33.7832C96.563 32.584 96.2037 31.9844 95.4849 31.9844C94.7584 31.9844 94.3951 32.584 94.3951 33.7832C94.3951 34.9746 94.7584 35.5703 95.4849 35.5703ZM106.143 30.5547H108.053L105.856 36.9766C105.703 37.4258 105.496 37.8145 105.235 38.1426C104.973 38.4746 104.672 38.7363 104.332 38.9277C103.993 39.123 103.631 39.2656 103.248 39.3555C102.866 39.4492 102.455 39.4961 102.018 39.4961L101.907 37.8613C102.84 37.8613 103.508 37.6094 103.91 37.1055L101.344 30.5547H103.336L104.825 34.6387L106.143 30.5547ZM109.052 39.3379V30.5547H110.874V31.2637C110.988 31.0293 111.183 30.8281 111.46 30.6602C111.741 30.4883 112.068 30.4023 112.439 30.4023C112.779 30.4023 113.095 30.4727 113.388 30.6133C113.681 30.7539 113.941 30.9609 114.167 31.2344C114.398 31.5039 114.577 31.8574 114.706 32.2949C114.839 32.7324 114.905 33.2285 114.905 33.7832C114.905 34.3379 114.839 34.834 114.706 35.2715C114.577 35.709 114.398 36.0645 114.167 36.3379C113.941 36.6074 113.681 36.8125 113.388 36.9531C113.095 37.0898 112.779 37.1582 112.439 37.1582C112.111 37.1582 111.81 37.0918 111.536 36.959C111.263 36.8262 111.042 36.6602 110.874 36.4609V39.3379H109.052ZM111.958 35.5703C112.685 35.5703 113.048 34.9746 113.048 33.7832C113.048 32.584 112.685 31.9844 111.958 31.9844C111.236 31.9844 110.874 32.584 110.874 33.7832C110.874 34.9746 111.236 35.5703 111.958 35.5703ZM120.791 36.2969C120.256 36.8711 119.543 37.1582 118.652 37.1582C117.762 37.1582 117.047 36.8711 116.508 36.2969C115.969 35.7188 115.699 34.8809 115.699 33.7832C115.699 32.6816 115.967 31.8438 116.502 31.2695C117.041 30.6914 117.758 30.4023 118.652 30.4023C119.543 30.4023 120.256 30.6895 120.791 31.2637C121.326 31.8379 121.594 32.6777 121.594 33.7832C121.594 34.8809 121.326 35.7188 120.791 36.2969ZM118.652 35.5703C119.371 35.5703 119.731 34.9746 119.731 33.7832C119.731 32.584 119.371 31.9844 118.652 31.9844C117.926 31.9844 117.563 32.584 117.563 33.7832C117.563 34.9746 117.926 35.5703 118.652 35.5703ZM122.804 37V30.5547H125.827C126.483 30.5547 127.013 30.707 127.415 31.0117C127.821 31.3125 128.024 31.7402 128.024 32.2949C128.024 32.9785 127.677 33.4512 126.981 33.7129V33.7246C127.106 33.7637 127.229 33.8184 127.351 33.8887C127.472 33.959 127.591 34.0508 127.708 34.1641C127.825 34.2773 127.921 34.4199 127.995 34.5918C128.069 34.7637 128.106 34.9512 128.106 35.1543C128.106 35.7363 127.892 36.1895 127.462 36.5137C127.032 36.8379 126.476 37 125.792 37H122.804ZM124.626 33.1094H125.599C125.802 33.1094 125.954 33.0605 126.056 32.9629C126.161 32.8613 126.214 32.7383 126.214 32.5938C126.214 32.457 126.163 32.3398 126.061 32.2422C125.96 32.1406 125.813 32.0898 125.622 32.0898H124.626V33.1094ZM124.626 35.4648H125.599C125.81 35.4648 125.97 35.4141 126.079 35.3125C126.192 35.2109 126.249 35.0859 126.249 34.9375C126.249 34.793 126.192 34.6719 126.079 34.5742C125.97 34.4727 125.81 34.4219 125.599 34.4219H124.626V35.4648ZM129.58 37V30.5547H131.402V32.9453H133.828V30.5547H135.65V37H133.828V34.4805H131.402V37H129.58ZM139.872 30.5547H142.573V37H140.716V35.043H140.475C140.229 35.043 140.02 35.1113 139.848 35.248C139.676 35.3848 139.548 35.541 139.462 35.7168C139.38 35.8926 139.276 36.1113 139.151 36.373C139.026 36.6348 138.903 36.8438 138.782 37H136.661C136.762 36.8672 136.884 36.6543 137.024 36.3613C137.169 36.0645 137.331 35.75 137.51 35.418C137.69 35.082 137.878 34.793 138.073 34.5508C137.76 34.3398 137.524 34.0801 137.364 33.7715C137.204 33.4629 137.124 33.1387 137.124 32.7988C137.124 32.5137 137.182 32.2402 137.3 31.9785C137.417 31.7129 137.585 31.4746 137.803 31.2637C138.026 31.0488 138.315 30.877 138.671 30.748C139.03 30.6191 139.43 30.5547 139.872 30.5547ZM140.716 33.4727V32.1426H139.813C139.563 32.1426 139.368 32.209 139.227 32.3418C139.091 32.4707 139.022 32.623 139.022 32.7988C139.022 32.9785 139.091 33.1367 139.227 33.2734C139.368 33.4062 139.563 33.4727 139.813 33.4727H140.716ZM144.187 37V30.5547H146.361L147.908 33.7949L149.466 30.5547H151.64V37H149.812V33.2793L148.652 36.0039H147.164L146.009 33.2793V37H144.187Z" fill="white"/>
<path d="M84 79L54 50" stroke="#44C313" stroke-width="2"/>
<circle cx="88" cy="85" r="7" stroke="#44C313" stroke-width="2"/>
<circle cx="88" cy="85" r="4" fill="#44C313"/>
</svg>
