<svg width="159" height="94" viewBox="0 0 159 94" fill="none" xmlns="http://www.w3.org/2000/svg">
<rect x="1.5" y="1" width="156" height="50" rx="25" fill="#2A2A2A"/>
<rect x="1.5" y="1" width="156" height="50" rx="25" stroke="#44C313" stroke-width="2"/>
<path d="M17.9961 15.6621H20.0469L17.4336 21.6504C17.2461 22.0801 17.0469 22.4414 16.8359 22.7344C16.6289 23.0234 16.377 23.2754 16.0801 23.4902C15.7871 23.7051 15.4414 23.8613 15.043 23.959C14.6445 24.0566 14.1777 24.1055 13.6426 24.1055L13.543 22.5117C13.9141 22.5117 14.2441 22.4512 14.5332 22.3301C14.8223 22.209 15.084 22.002 15.3184 21.709L12.6582 15.6621H14.709L16.3145 19.6816L17.9961 15.6621ZM22.7216 24.1582C21.9755 24.1582 21.3641 24.0059 20.8876 23.7012C20.411 23.3965 20.0985 22.9609 19.9501 22.3945L21.6552 21.9141C21.7372 22.1016 21.8661 22.2578 22.0419 22.3828C22.2216 22.5078 22.4403 22.5703 22.6981 22.5703C22.9325 22.5703 23.1298 22.5117 23.2899 22.3945C23.4501 22.2734 23.5302 22.1211 23.5302 21.9375C23.5302 21.7422 23.4501 21.5898 23.2899 21.4805C23.1298 21.3672 22.9286 21.3105 22.6864 21.3105H21.7255V20.1973H22.6747C22.9012 20.1973 23.0868 20.1445 23.2313 20.0391C23.3798 19.9297 23.454 19.7773 23.454 19.582C23.454 19.4141 23.3837 19.2734 23.243 19.1602C23.1024 19.043 22.9325 18.9844 22.7333 18.9844C22.5302 18.9844 22.3563 19.0449 22.2118 19.166C22.0712 19.2832 21.9735 19.4219 21.9188 19.582L20.1317 19.1543C20.1708 19.0098 20.2294 18.8633 20.3075 18.7148C20.3895 18.5664 20.5028 18.4121 20.6473 18.252C20.7958 18.0918 20.9637 17.9512 21.1512 17.8301C21.3427 17.7051 21.579 17.6035 21.8602 17.5254C22.1415 17.4434 22.4442 17.4023 22.7684 17.4023C23.5223 17.4023 24.1337 17.5703 24.6024 17.9062C25.0712 18.2422 25.3055 18.6934 25.3055 19.2598C25.3055 19.873 25.0282 20.2969 24.4735 20.5312V20.543C24.7509 20.6445 24.9813 20.8301 25.1649 21.0996C25.3524 21.3652 25.4462 21.668 25.4462 22.0078C25.4462 22.6367 25.1962 23.1523 24.6962 23.5547C24.1962 23.957 23.538 24.1582 22.7216 24.1582ZM26.8318 24V17.5547H28.6541V19.9453H31.0798V17.5547H32.9021V24H31.0798V21.4805H28.6541V24H26.8318ZM36.1159 24.1582C35.5729 24.1582 35.1178 23.9844 34.7506 23.6367C34.3834 23.2891 34.1998 22.8145 34.1998 22.2129C34.1998 21.5723 34.442 21.0723 34.9264 20.7129C35.4147 20.3535 36.0514 20.1738 36.8366 20.1738H37.7858V19.8223C37.7858 19.5645 37.7116 19.3613 37.5631 19.2129C37.4147 19.0605 37.2213 18.9844 36.983 18.9844C36.7838 18.9844 36.61 19.043 36.4616 19.1602C36.3131 19.2773 36.2038 19.4297 36.1334 19.6172L34.4401 19.1777C34.487 19.041 34.5495 18.9004 34.6276 18.7559C34.7096 18.6074 34.8229 18.4512 34.9674 18.2871C35.1159 18.1191 35.2799 17.9727 35.4596 17.8477C35.6393 17.7188 35.86 17.6133 36.1217 17.5312C36.3873 17.4453 36.6705 17.4023 36.9713 17.4023C37.7721 17.4023 38.4166 17.6152 38.9049 18.041C39.3932 18.4668 39.6373 19.0684 39.6373 19.8457V21.9258C39.6373 22.8438 39.733 23.5352 39.9245 24H37.9909C37.8932 23.793 37.8405 23.5723 37.8327 23.3379C37.6842 23.584 37.4577 23.7832 37.153 23.9355C36.8522 24.084 36.5065 24.1582 36.1159 24.1582ZM36.778 22.6348C37.0397 22.6348 37.2721 22.5527 37.4752 22.3887C37.6823 22.2246 37.7858 22.0215 37.7858 21.7793V21.3867H36.9245C36.6354 21.3867 36.4186 21.4453 36.2741 21.5625C36.1295 21.6758 36.0573 21.8359 36.0573 22.043C36.0573 22.2188 36.1256 22.3613 36.2623 22.4707C36.403 22.5801 36.5748 22.6348 36.778 22.6348ZM44.4273 16.8223C43.8726 16.8223 43.4292 16.6621 43.0972 16.3418C42.7652 16.0215 42.5933 15.543 42.5816 14.9062H43.8062C43.8062 15.1562 43.8628 15.3496 43.9761 15.4863C44.0933 15.6191 44.2437 15.6855 44.4273 15.6855C44.6187 15.6855 44.771 15.6191 44.8843 15.4863C44.9976 15.3496 45.0542 15.1562 45.0542 14.9062H46.2905C46.2788 15.543 46.105 16.0215 45.7691 16.3418C45.437 16.6621 44.9898 16.8223 44.4273 16.8223ZM47.5269 24H45.6987V20.3262L43.062 24H41.3452V17.5547H43.1675V21.2285L45.8101 17.5547H47.5269V24ZM54.0305 18C54.886 18 55.5735 18.2637 56.093 18.791C56.6126 19.3145 56.8723 20.0781 56.8723 21.082C56.8723 22.082 56.6126 22.8457 56.093 23.373C55.5735 23.8965 54.886 24.1582 54.0305 24.1582C53.1751 24.1582 52.4856 23.8945 51.9622 23.3672C51.4427 22.8359 51.1829 22.0742 51.1829 21.082C51.1829 19.5234 51.4134 18.3359 51.8743 17.5195C52.3352 16.6992 53.097 16.1641 54.1595 15.9141C54.5345 15.8242 54.8138 15.7363 54.9973 15.6504C55.1848 15.5605 55.3235 15.4551 55.4134 15.334C55.5032 15.209 55.5852 15.0254 55.6595 14.7832L57.2063 14.9414C57.1399 15.5625 56.8997 16.0723 56.4856 16.4707C56.0716 16.8652 55.4563 17.168 54.6399 17.3789C54.093 17.4922 53.7141 17.7109 53.5032 18.0352C53.6712 18.0117 53.847 18 54.0305 18ZM53.2688 22.2246C53.4407 22.4863 53.6946 22.6172 54.0305 22.6172C54.3665 22.6172 54.6204 22.4863 54.7923 22.2246C54.9641 21.9629 55.0501 21.582 55.0501 21.082C55.0501 20.0508 54.7102 19.5352 54.0305 19.5352C53.6946 19.5352 53.4407 19.666 53.2688 19.9277C53.097 20.1895 53.011 20.5703 53.011 21.0703C53.011 21.5742 53.097 21.959 53.2688 22.2246ZM62.758 23.2969C62.2228 23.8711 61.5099 24.1582 60.6193 24.1582C59.7287 24.1582 59.0138 23.8711 58.4748 23.2969C57.9357 22.7188 57.6662 21.8809 57.6662 20.7832C57.6662 19.6816 57.9338 18.8438 58.4689 18.2695C59.008 17.6914 59.7248 17.4023 60.6193 17.4023C61.5099 17.4023 62.2228 17.6895 62.758 18.2637C63.2931 18.8379 63.5607 19.6777 63.5607 20.7832C63.5607 21.8809 63.2931 22.7188 62.758 23.2969ZM60.6193 22.5703C61.338 22.5703 61.6974 21.9746 61.6974 20.7832C61.6974 19.584 61.338 18.9844 60.6193 18.9844C59.8927 18.9844 59.5295 19.584 59.5295 20.7832C59.5295 21.9746 59.8927 22.5703 60.6193 22.5703ZM64.085 24.0703V22.5352C64.4209 22.5352 64.6631 22.4785 64.8116 22.3652C64.96 22.252 65.0459 22.0527 65.0694 21.7676L65.3565 17.5547H70.8291V24H69.0069V19.0898H67.0381L66.833 21.7324C66.7666 22.5684 66.5088 23.168 66.0596 23.5312C65.6143 23.8906 64.9561 24.0703 64.085 24.0703ZM75.5956 19.7168C75.9745 19.7168 76.3163 19.7773 76.621 19.8984C76.9257 20.0195 77.1718 20.1816 77.3593 20.3848C77.5507 20.5879 77.6952 20.8145 77.7929 21.0645C77.8945 21.3145 77.9452 21.5762 77.9452 21.8496C77.9452 22.123 77.8945 22.3867 77.7929 22.6406C77.6952 22.8906 77.5507 23.1191 77.3593 23.3262C77.1718 23.5293 76.9257 23.6934 76.621 23.8184C76.3163 23.9395 75.9745 24 75.5956 24H72.4374V17.5547H74.2597V19.7168H75.5956ZM75.332 22.4648C75.5741 22.4648 75.7597 22.4043 75.8886 22.2832C76.0214 22.1621 76.0878 22.0176 76.0878 21.8496C76.0878 21.6855 76.0214 21.5449 75.8886 21.4277C75.7597 21.3105 75.5741 21.252 75.332 21.252H74.2597V22.4648H75.332ZM79.1434 24V17.5547H80.9656V22.4648H83.2684V17.5547H85.0965V22.4648H87.3875V17.5547H89.198V24H79.1434ZM96.4079 20.4375V21.4102H92.318C92.4626 22.2148 92.8747 22.6172 93.5544 22.6172C93.8434 22.6172 94.0895 22.543 94.2927 22.3945C94.4997 22.2461 94.6501 22.0449 94.7438 21.791L96.3845 22.1309C96.2438 22.6738 95.8981 23.1484 95.3473 23.5547C94.7966 23.957 94.195 24.1582 93.5427 24.1582C92.5817 24.1582 91.8161 23.8535 91.2458 23.2441C90.6794 22.6309 90.3962 21.7988 90.3962 20.748C90.3962 19.748 90.6774 18.9414 91.2399 18.3281C91.8063 17.7109 92.5427 17.4023 93.4489 17.4023C93.9177 17.4023 94.3415 17.4883 94.7204 17.6602C95.1032 17.8281 95.4157 18.0547 95.6579 18.3398C95.9001 18.6211 96.0856 18.9434 96.2145 19.3066C96.3434 19.666 96.4079 20.043 96.4079 20.4375ZM92.3298 19.9688H94.5036C94.4997 19.6602 94.3942 19.418 94.1872 19.2422C93.9841 19.0625 93.7282 18.9727 93.4196 18.9727C92.8454 18.9727 92.4821 19.3047 92.3298 19.9688ZM17.9258 36.2969C17.3906 36.8711 16.6777 37.1582 15.7871 37.1582C14.8965 37.1582 14.1816 36.8711 13.6426 36.2969C13.1035 35.7188 12.834 34.8809 12.834 33.7832C12.834 32.6816 13.1016 31.8438 13.6367 31.2695C14.1758 30.6914 14.8926 30.4023 15.7871 30.4023C16.6777 30.4023 17.3906 30.6895 17.9258 31.2637C18.4609 31.8379 18.7285 32.6777 18.7285 33.7832C18.7285 34.8809 18.4609 35.7188 17.9258 36.2969ZM15.7871 35.5703C16.5059 35.5703 16.8652 34.9746 16.8652 33.7832C16.8652 32.584 16.5059 31.9844 15.7871 31.9844C15.0605 31.9844 14.6973 32.584 14.6973 33.7832C14.6973 34.9746 15.0605 35.5703 15.7871 35.5703ZM25.0271 37.1582C24.5935 37.1582 24.1931 37.0879 23.8259 36.9473C23.4627 36.8066 23.1423 36.5996 22.865 36.3262C22.5916 36.0527 22.3767 35.6992 22.2205 35.2656C22.0681 34.832 21.992 34.3379 21.992 33.7832C21.992 33.248 22.0681 32.7656 22.2205 32.3359C22.3767 31.9062 22.5916 31.5508 22.865 31.2695C23.1384 30.9883 23.4587 30.7734 23.8259 30.625C24.197 30.4766 24.5974 30.4023 25.0271 30.4023C25.4021 30.4023 25.7517 30.4609 26.0759 30.5781C26.4002 30.6914 26.6716 30.8418 26.8904 31.0293C27.113 31.2129 27.2947 31.418 27.4353 31.6445C27.5759 31.8711 27.6658 32.1035 27.7048 32.3418L25.9998 32.834C25.8005 32.2676 25.4529 31.9844 24.9568 31.9844C24.6052 31.9844 24.3337 32.1465 24.1423 32.4707C23.9509 32.7949 23.8552 33.2324 23.8552 33.7832C23.8552 34.334 23.949 34.7695 24.1365 35.0898C24.3279 35.4102 24.6013 35.5703 24.9568 35.5703C25.488 35.5703 25.8689 35.3145 26.0994 34.8027L27.7517 35.1309C27.5994 35.7168 27.2693 36.2012 26.7615 36.584C26.2576 36.9668 25.6795 37.1582 25.0271 37.1582ZM30.3971 37V32.0898H28.2877V30.5547H34.3463V32.0898H32.2194V37H30.3971ZM35.3804 39.3379V30.5547H37.2027V31.2637C37.3159 31.0293 37.5112 30.8281 37.7886 30.6602C38.0698 30.4883 38.396 30.4023 38.7671 30.4023C39.107 30.4023 39.4234 30.4727 39.7163 30.6133C40.0093 30.7539 40.2691 30.9609 40.4956 31.2344C40.7261 31.5039 40.9058 31.8574 41.0347 32.2949C41.1675 32.7324 41.2339 33.2285 41.2339 33.7832C41.2339 34.3379 41.1675 34.834 41.0347 35.2715C40.9058 35.709 40.7261 36.0645 40.4956 36.3379C40.2691 36.6074 40.0093 36.8125 39.7163 36.9531C39.4234 37.0898 39.107 37.1582 38.7671 37.1582C38.439 37.1582 38.1382 37.0918 37.8648 36.959C37.5913 36.8262 37.3706 36.6602 37.2027 36.4609V39.3379H35.3804ZM38.2866 35.5703C39.0132 35.5703 39.3765 34.9746 39.3765 33.7832C39.3765 32.584 39.0132 31.9844 38.2866 31.9844C37.564 31.9844 37.2027 32.584 37.2027 33.7832C37.2027 34.9746 37.564 35.5703 38.2866 35.5703ZM46.4809 30.5547H48.391L46.1938 36.9766C46.0414 37.4258 45.8344 37.8145 45.5727 38.1426C45.3109 38.4746 45.0102 38.7363 44.6703 38.9277C44.3305 39.123 43.9691 39.2656 43.5863 39.3555C43.2035 39.4492 42.7934 39.4961 42.3559 39.4961L42.2445 37.8613C43.1781 37.8613 43.8461 37.6094 44.2484 37.1055L41.682 30.5547H43.6742L45.1625 34.6387L46.4809 30.5547ZM53.2864 33.291C53.4856 33.4238 53.6692 33.6035 53.8372 33.8301C54.0052 34.0566 54.1536 34.3047 54.2825 34.5742C54.4153 34.8398 54.5384 35.1074 54.6516 35.377C54.7688 35.6465 54.9016 35.9316 55.0501 36.2324C55.2024 36.5293 55.3548 36.7852 55.5071 37H53.3802C53.2669 36.8711 53.1536 36.6934 53.0403 36.4668C52.9309 36.2402 52.8313 36.0254 52.7415 35.8223C52.6555 35.6152 52.5598 35.4141 52.4544 35.2188C52.3528 35.0234 52.2337 34.8672 52.097 34.75C51.9602 34.6328 51.8079 34.5742 51.6399 34.5742H51.3645V37H49.5423V30.5547H51.3645V32.9805H51.6165L52.4602 31.6211C52.636 31.332 52.8391 31.0938 53.0696 30.9062C53.3001 30.7188 53.5266 30.5879 53.7493 30.5137C53.9759 30.4395 54.2102 30.4023 54.4524 30.4023C54.8313 30.4023 55.1868 30.502 55.5188 30.7012L55.1321 32.043C55.1165 32.0391 55.0833 32.0293 55.0325 32.0137C54.9856 31.9941 54.9446 31.9805 54.9095 31.9727C54.8743 31.9609 54.8294 31.9512 54.7747 31.9434C54.7239 31.9316 54.6751 31.9258 54.6282 31.9258C54.3743 31.9258 54.1712 32.041 54.0188 32.2715L53.2864 33.291ZM58.0646 37V32.0898H55.9552V30.5547H62.0138V32.0898H59.8869V37H58.0646ZM67.0909 30.5547H69.001L66.8037 36.9766C66.6514 37.4258 66.4444 37.8145 66.1827 38.1426C65.9209 38.4746 65.6202 38.7363 65.2803 38.9277C64.9405 39.123 64.5791 39.2656 64.1963 39.3555C63.8135 39.4492 63.4034 39.4961 62.9659 39.4961L62.8545 37.8613C63.7881 37.8613 64.4561 37.6094 64.8584 37.1055L62.292 30.5547H64.2842L65.7725 34.6387L67.0909 30.5547ZM69.9999 39.3379V30.5547H71.8222V31.2637C71.9355 31.0293 72.1308 30.8281 72.4081 30.6602C72.6894 30.4883 73.0155 30.4023 73.3866 30.4023C73.7265 30.4023 74.0429 30.4727 74.3359 30.6133C74.6288 30.7539 74.8886 30.9609 75.1152 31.2344C75.3456 31.5039 75.5253 31.8574 75.6542 32.2949C75.787 32.7324 75.8534 33.2285 75.8534 33.7832C75.8534 34.3379 75.787 34.834 75.6542 35.2715C75.5253 35.709 75.3456 36.0645 75.1152 36.3379C74.8886 36.6074 74.6288 36.8125 74.3359 36.9531C74.0429 37.0898 73.7265 37.1582 73.3866 37.1582C73.0585 37.1582 72.7577 37.0918 72.4843 36.959C72.2109 36.8262 71.9902 36.6602 71.8222 36.4609V39.3379H69.9999ZM72.9062 35.5703C73.6327 35.5703 73.996 34.9746 73.996 33.7832C73.996 32.584 73.6327 31.9844 72.9062 31.9844C72.1835 31.9844 71.8222 32.584 71.8222 33.7832C71.8222 34.9746 72.1835 35.5703 72.9062 35.5703ZM82.659 33.4375V34.4102H78.5691C78.7137 35.2148 79.1258 35.6172 79.8055 35.6172C80.0945 35.6172 80.3406 35.543 80.5438 35.3945C80.7508 35.2461 80.9012 35.0449 80.9949 34.791L82.6355 35.1309C82.4949 35.6738 82.1492 36.1484 81.5984 36.5547C81.0477 36.957 80.4461 37.1582 79.7938 37.1582C78.8328 37.1582 78.0672 36.8535 77.4969 36.2441C76.9305 35.6309 76.6473 34.7988 76.6473 33.748C76.6473 32.748 76.9285 31.9414 77.491 31.3281C78.0574 30.7109 78.7938 30.4023 79.7 30.4023C80.1688 30.4023 80.5926 30.4883 80.9715 30.6602C81.3543 30.8281 81.6668 31.0547 81.909 31.3398C82.1512 31.6211 82.3367 31.9434 82.4656 32.3066C82.5945 32.666 82.659 33.043 82.659 33.4375ZM78.5809 32.9688H80.7547C80.7508 32.6602 80.6453 32.418 80.4383 32.2422C80.2352 32.0625 79.9793 31.9727 79.6707 31.9727C79.0965 31.9727 78.7332 32.3047 78.5809 32.9688ZM90.9205 36.9707C90.5455 37.0957 90.1353 37.1582 89.69 37.1582C89.2447 37.1582 88.8345 37.0957 88.4595 36.9707C88.0884 36.8418 87.7564 36.6484 87.4634 36.3906C87.1744 36.1328 86.9478 35.7891 86.7838 35.3594C86.6197 34.9297 86.5377 34.4316 86.5377 33.8652V28.6621H88.3951V33.8945C88.3951 34.4062 88.4986 34.8066 88.7056 35.0957C88.9166 35.3809 89.2447 35.5234 89.69 35.5234C90.1353 35.5234 90.4654 35.3789 90.6802 35.0898C90.8951 34.8008 91.0025 34.4023 91.0025 33.8945V28.6621H92.8599V33.8652C92.8599 34.4277 92.7759 34.9258 92.608 35.3594C92.4439 35.7891 92.2154 36.1328 91.9224 36.3906C91.6295 36.6484 91.2955 36.8418 90.9205 36.9707ZM96.8178 37.1582C96.4428 37.1582 96.0952 37.1152 95.7748 37.0293C95.4545 36.9434 95.185 36.8281 94.9662 36.6836C94.7514 36.5391 94.5737 36.3926 94.433 36.2441C94.2924 36.0918 94.183 35.9355 94.1049 35.7754L95.2475 34.8262C95.4155 35.0645 95.6245 35.2656 95.8745 35.4297C96.1284 35.5898 96.4155 35.6699 96.7358 35.6699C96.9467 35.6699 97.1225 35.625 97.2631 35.5352C97.4077 35.4414 97.4799 35.3184 97.4799 35.166C97.4799 35.0527 97.4194 34.9512 97.2983 34.8613C97.1811 34.7715 97.0287 34.6934 96.8412 34.627C96.6537 34.5566 96.4448 34.4863 96.2143 34.416C95.9877 34.3457 95.7592 34.2598 95.5287 34.1582C95.2983 34.0527 95.0893 33.9336 94.9018 33.8008C94.7143 33.6641 94.56 33.4863 94.4389 33.2676C94.3217 33.0449 94.2631 32.793 94.2631 32.5117C94.2631 31.8867 94.4916 31.3789 94.9487 30.9883C95.4096 30.5977 96.0053 30.4023 96.7358 30.4023C97.0912 30.4023 97.4233 30.4434 97.7319 30.5254C98.0444 30.6074 98.3061 30.7148 98.517 30.8477C98.728 30.9805 98.9037 31.1191 99.0444 31.2637C99.185 31.4043 99.2944 31.5488 99.3725 31.6973L98.2241 32.6582C98.0717 32.4434 97.8666 32.2617 97.6088 32.1133C97.3549 31.9648 97.0834 31.8906 96.7944 31.8906C96.5912 31.8906 96.4272 31.9336 96.3022 32.0195C96.1811 32.1016 96.1205 32.2129 96.1205 32.3535C96.1205 32.4707 96.1791 32.5742 96.2963 32.6641C96.4174 32.7539 96.5717 32.832 96.7592 32.8984C96.9467 32.9648 97.1537 33.0332 97.3803 33.1035C97.6108 33.1738 97.8412 33.2617 98.0717 33.3672C98.3022 33.4688 98.5112 33.5898 98.6987 33.7305C98.8862 33.8672 99.0385 34.0508 99.1557 34.2812C99.2768 34.5117 99.3373 34.7734 99.3373 35.0664C99.3373 35.7148 99.0971 36.2266 98.6166 36.6016C98.1362 36.9727 97.5366 37.1582 96.8178 37.1582ZM106.272 33.4375V34.4102H102.182C102.326 35.2148 102.739 35.6172 103.418 35.6172C103.707 35.6172 103.953 35.543 104.157 35.3945C104.364 35.2461 104.514 35.0449 104.608 34.791L106.248 35.1309C106.108 35.6738 105.762 36.1484 105.211 36.5547C104.66 36.957 104.059 37.1582 103.407 37.1582C102.446 37.1582 101.68 36.8535 101.11 36.2441C100.543 35.6309 100.26 34.7988 100.26 33.748C100.26 32.748 100.541 31.9414 101.104 31.3281C101.67 30.7109 102.407 30.4023 103.313 30.4023C103.782 30.4023 104.205 30.4883 104.584 30.6602C104.967 30.8281 105.28 31.0547 105.522 31.3398C105.764 31.6211 105.95 31.9434 106.078 32.3066C106.207 32.666 106.272 33.043 106.272 33.4375ZM102.194 32.9688H104.368C104.364 32.6602 104.258 32.418 104.051 32.2422C103.848 32.0625 103.592 31.9727 103.284 31.9727C102.709 31.9727 102.346 32.3047 102.194 32.9688ZM107.505 37V30.5547H109.327V31.2637C109.488 30.9902 109.706 30.7812 109.984 30.6367C110.261 30.4883 110.568 30.4141 110.904 30.4141C111.423 30.4141 111.855 30.541 112.198 30.7949L111.501 32.4648C111.236 32.25 110.935 32.1426 110.599 32.1426C110.251 32.1426 109.952 32.2812 109.702 32.5586C109.452 32.8359 109.327 33.1973 109.327 33.6426V37H107.505ZM118.462 37.1582C117.638 37.1582 116.944 36.9766 116.382 36.6133C115.823 36.2461 115.44 35.7383 115.233 35.0898L116.95 34.5742C117.075 34.8828 117.267 35.1191 117.524 35.2832C117.786 35.4434 118.099 35.5234 118.462 35.5234C118.755 35.5234 118.999 35.4512 119.194 35.3066C119.394 35.1582 119.493 34.959 119.493 34.709C119.493 34.5723 119.446 34.4473 119.353 34.334C119.259 34.2207 119.134 34.123 118.978 34.041C118.821 33.959 118.64 33.8789 118.433 33.8008C118.229 33.7227 118.015 33.6426 117.788 33.5605C117.565 33.4746 117.341 33.3828 117.114 33.2852C116.892 33.1875 116.677 33.0684 116.47 32.9277C116.267 32.7832 116.087 32.625 115.931 32.4531C115.774 32.2773 115.649 32.0605 115.556 31.8027C115.462 31.5449 115.415 31.2617 115.415 30.9531C115.415 30.4375 115.546 29.9922 115.808 29.6172C116.069 29.2422 116.415 28.9629 116.845 28.7793C117.278 28.5957 117.767 28.5039 118.31 28.5039C119.126 28.5039 119.786 28.6797 120.29 29.0312C120.794 29.3789 121.145 29.8789 121.345 30.5312L119.558 31.0352C119.46 30.7578 119.304 30.5391 119.089 30.3789C118.874 30.2188 118.63 30.1387 118.356 30.1387C118.075 30.1387 117.845 30.209 117.665 30.3496C117.485 30.4863 117.395 30.6758 117.395 30.918C117.395 31.1055 117.47 31.2715 117.618 31.416C117.77 31.5605 117.966 31.6836 118.204 31.7852C118.446 31.8867 118.712 31.9883 119.001 32.0898C119.294 32.1875 119.585 32.3047 119.874 32.4414C120.167 32.5781 120.433 32.7344 120.671 32.9102C120.913 33.0859 121.108 33.3184 121.257 33.6074C121.409 33.8965 121.485 34.2266 121.485 34.5977C121.485 35.3789 121.21 36.002 120.659 36.4668C120.108 36.9277 119.376 37.1582 118.462 37.1582ZM125.461 37.1582C124.797 37.1582 124.264 36.9785 123.861 36.6191C123.463 36.2598 123.264 35.7344 123.264 35.043V32.1777H122.15V30.5547H123.264V28.8496L125.074 28.5273V30.5547H126.721V32.1777H125.074V34.6738C125.074 35.1543 125.31 35.3945 125.783 35.3945C126.002 35.3945 126.295 35.3262 126.662 35.1895L126.779 36.918C126.342 37.0781 125.902 37.1582 125.461 37.1582ZM132.53 36.2969C131.995 36.8711 131.282 37.1582 130.391 37.1582C129.501 37.1582 128.786 36.8711 128.247 36.2969C127.708 35.7188 127.438 34.8809 127.438 33.7832C127.438 32.6816 127.706 31.8438 128.241 31.2695C128.78 30.6914 129.497 30.4023 130.391 30.4023C131.282 30.4023 131.995 30.6895 132.53 31.2637C133.065 31.8379 133.333 32.6777 133.333 33.7832C133.333 34.8809 133.065 35.7188 132.53 36.2969ZM130.391 35.5703C131.11 35.5703 131.469 34.9746 131.469 33.7832C131.469 32.584 131.11 31.9844 130.391 31.9844C129.665 31.9844 129.301 32.584 129.301 33.7832C129.301 34.9746 129.665 35.5703 130.391 35.5703ZM134.543 37V30.5547H136.365V31.2637C136.525 30.9902 136.744 30.7812 137.021 30.6367C137.298 30.4883 137.605 30.4141 137.941 30.4141C138.461 30.4141 138.892 30.541 139.236 30.7949L138.539 32.4648C138.273 32.25 137.972 32.1426 137.636 32.1426C137.289 32.1426 136.99 32.2812 136.74 32.5586C136.49 32.8359 136.365 33.1973 136.365 33.6426V37H134.543ZM144.249 30.5547H146.159L143.961 36.9766C143.809 37.4258 143.602 37.8145 143.34 38.1426C143.079 38.4746 142.778 38.7363 142.438 38.9277C142.098 39.123 141.737 39.2656 141.354 39.3555C140.971 39.4492 140.561 39.4961 140.124 39.4961L140.012 37.8613C140.946 37.8613 141.614 37.6094 142.016 37.1055L139.45 30.5547H141.442L142.93 34.6387L144.249 30.5547Z" fill="white"/>
<path d="M84 80L54 51" stroke="#44C313" stroke-width="2"/>
<circle cx="88" cy="86" r="7" stroke="#44C313" stroke-width="2"/>
<circle cx="88" cy="86" r="4" fill="#44C313"/>
</svg>
